<?xml version="1.0" encoding="utf-8"?>
<!-- Generator: Adobe Illustrator 16.0.0, SVG Export Plug-In . SVG Version: 6.00 Build 0)  -->
<!DOCTYPE svg PUBLIC "-//W3C//DTD SVG 1.1//EN" "http://www.w3.org/Graphics/SVG/1.1/DTD/svg11.dtd">
<svg version="1.1" id="icons" xmlns="http://www.w3.org/2000/svg" xmlns:xlink="http://www.w3.org/1999/xlink" x="0px" y="0px"
	 width="64px" height="64px" viewBox="0 0 64 64" enable-background="new 0 0 64 64" xml:space="preserve">
<g>
	<g>
		<path fill="#5D9CEC" d="M58,6h-8c-1.1,0-2,0.9-2,2V3c0-1.1,0.9-2,2-2h8c1.1,0,2,0.9,2,2v5C60,6.9,59.1,6,58,6z"/>
	</g>
	<g>
		<path fill="#4A89DC" d="M60,8v19c0,14.45-10.95,26.34-25,27.84L32,58l-3-3.16C14.95,53.34,4,41.45,4,27V8c0-1.1,0.89-2,2-2h8
			c1.1,0,2,0.9,2,2v19v5c0,8.83,7.16,16,16,16s16-7.17,16-16v-5V8c0-1.1,0.9-2,2-2h8C59.1,6,60,6.9,60,8z"/>
	</g>
	<g>
		<path fill="#5D9CEC" d="M35,54.84C49.05,53.34,60,41.45,60,27v8c0,15.471-12.54,28-28,28S4,50.471,4,35v-8
			c0,14.45,10.95,26.34,25,27.84L32,58L35,54.84z"/>
	</g>
	<g>
		<path fill="#5D9CEC" d="M32,43c8.84,0,16-7.16,16-16v5c0,8.83-7.16,16-16,16s-16-7.17-16-16v-5C16,35.84,23.16,43,32,43z"/>
	</g>
	<g>
		<path fill="#5D9CEC" d="M16,3v5c0-1.1-0.9-2-2-2H6C4.89,6,4,6.9,4,8V3c0-1.1,0.89-2,2-2h8C15.1,1,16,1.9,16,3z"/>
	</g>
</g>
</svg>
