<?xml version="1.0" encoding="utf-8"?>
<!-- Generator: Adobe Illustrator 16.0.0, SVG Export Plug-In . SVG Version: 6.00 Build 0)  -->
<!DOCTYPE svg PUBLIC "-//W3C//DTD SVG 1.1//EN" "http://www.w3.org/Graphics/SVG/1.1/DTD/svg11.dtd">
<svg version="1.1" id="icons" xmlns="http://www.w3.org/2000/svg" xmlns:xlink="http://www.w3.org/1999/xlink" x="0px" y="0px"
	 width="64px" height="64px" viewBox="0 0 64 64" enable-background="new 0 0 64 64" xml:space="preserve">
<g>
	<g>
		<path fill="#D3374E" d="M47.999,9.501c0.55,0,1,0.45,1,1v4c0,0.55-0.45,1-1,1h-2.001c-0.55,0-1-0.45-1-1v-4c0-0.55,0.45-1,1-1
			H47.999z"/>
	</g>
	<g>
		<path fill="#3679CE" d="M18.002,9.501c0.55,0,1,0.45,1,1v4c0,0.55-0.45,1-1,1h-2.001c-0.55,0-1-0.45-1-1v-4c0-0.55,0.45-1,1-1
			H18.002z"/>
	</g>
	<g>
		<path fill="#CCD1D9" d="M55,33.499c-0.553,0-1-0.447-1-1v-11c0-0.552,0.447-1,1-1s1,0.448,1,1v11
			C56,33.052,55.553,33.499,55,33.499z"/>
	</g>
	<g>
		<path fill="#CCD1D9" d="M9,33.499c-0.553,0-1-0.447-1-1v-11c0-0.552,0.447-1,1-1s1,0.448,1,1v11C10,33.052,9.553,33.499,9,33.499z
			"/>
	</g>
	<g>
		<path fill="#4A89DC" d="M25.001,14.501c0,1.66,1.34,3,3,3h-8c-1.1,0-2-0.9-2-2v-6c0-1.1,0.9-2,2-2h8c-1.66,0-3,1.34-3,3V14.501z"
			/>
	</g>
	<g>
		<path fill="#DA4453" d="M35.999,7.501h8c1.1,0,2,0.9,2,2v6c0,1.1-0.9,2-2,2h-8c1.66,0,3-1.34,3-3v-4
			C38.999,8.841,37.659,7.501,35.999,7.501z"/>
	</g>
	<g>
		<path fill="#5D9CEC" d="M31.001,9.501v6c0,1.1-0.9,2-2,2h-1c-1.66,0-3-1.34-3-3v-4c0-1.66,1.34-3,3-3h1
			C30.101,7.501,31.001,8.401,31.001,9.501z"/>
	</g>
	<g>
		<path fill="#ED5565" d="M38.999,10.501v4c0,1.66-1.34,3-3,3h-1c-1.1,0-2-0.9-2-2v-6c0-1.1,0.9-2,2-2h1
			C37.659,7.501,38.999,8.841,38.999,10.501z"/>
	</g>
	<g>
		<path fill="#3679CE" d="M28.001,6.001v1.5h-8c0-1.66,1.34-3,3-3h3.5C27.331,4.501,28.001,5.171,28.001,6.001z"/>
	</g>
	<g>
		<path fill="#D3374E" d="M37.499,4.501h3.5c1.66,0,3,1.34,3,3h-8v-1.5C35.999,5.171,36.669,4.501,37.499,4.501z"/>
	</g>
	<g>
		<path fill="#FFCE54" d="M32,47.501c1.66,0,3,1.35,3,3c0,1.66-1.34,3-3,3c-1.65,0-3-1.34-3-3C29,48.851,30.35,47.501,32,47.501z"/>
	</g>
	<g>
		<path fill="#656D78" d="M63,42.501v16H1v-16H63z M35,50.501c0-1.65-1.34-3-3-3c-1.65,0-3,1.35-3,3c0,1.66,1.35,3,3,3
			C33.66,53.501,35,52.161,35,50.501z"/>
	</g>
	<g>
		<path fill="#545C66" d="M55.998,49.505H41.003c-0.553,0-1-0.447-1-1s0.447-1,1-1h14.995c0.553,0,1,0.447,1,1
			S56.551,49.505,55.998,49.505z"/>
	</g>
	<g>
		<path fill="#545C66" d="M52.002,52.505h-7.003c-0.553,0-1-0.447-1-1s0.447-1,1-1h7.003c0.553,0,1,0.447,1,1
			S52.555,52.505,52.002,52.505z"/>
	</g>
	<g>
		<path fill="#545C66" d="M22.997,49.505H8.002c-0.553,0-1-0.447-1-1s0.447-1,1-1h14.995c0.553,0,1,0.447,1,1
			S23.55,49.505,22.997,49.505z"/>
	</g>
	<g>
		<path fill="#545C66" d="M19.001,52.505h-7.003c-0.553,0-1-0.447-1-1s0.447-1,1-1h7.003c0.553,0,1,0.447,1,1
			S19.554,52.505,19.001,52.505z"/>
	</g>
	<g>
		<path fill="#656D78" d="M63,59.499H1c-0.553,0-1-0.447-1-1v-16c0-0.553,0.447-1,1-1h62c0.553,0,1,0.447,1,1v16
			C64,59.052,63.553,59.499,63,59.499z M2,57.499h60v-14H2V57.499z"/>
	</g>
	<g>
		<polygon fill="#E6E9ED" points="58.99,37.491 54.99,32.501 9.01,32.501 5.01,37.491 1,42.501 63,42.501 		"/>
	</g>
	<g>
		<path fill="#E6E9ED" d="M63,43.499H1c-0.385,0-0.735-0.221-0.901-0.567c-0.167-0.347-0.119-0.758,0.121-1.058l8.008-10
			c0.189-0.236,0.477-0.375,0.78-0.375h45.984c0.304,0,0.591,0.139,0.78,0.375l8.008,10c0.24,0.3,0.288,0.711,0.121,1.058
			C63.735,43.278,63.385,43.499,63,43.499z M3.082,41.499h57.836L54.512,33.5H9.488L3.082,41.499z"/>
	</g>
	<g>
		<path fill="#545C66" d="M63,38.495H1c-0.394,0-0.751-0.231-0.912-0.591s-0.097-0.779,0.165-1.074l8.008-8.998
			c0.189-0.214,0.462-0.335,0.747-0.335h45.984c0.285,0,0.558,0.121,0.747,0.335l8.008,8.998c0.262,0.295,0.326,0.715,0.165,1.074
			S63.394,38.495,63,38.495z M3.229,36.495h57.543l-6.228-6.998H9.456L3.229,36.495z"/>
	</g>
	<g>
		<path fill="#656D78" d="M63,33.49H1c-0.404,0-0.77-0.244-0.924-0.618c-0.155-0.374-0.069-0.805,0.217-1.09l8.008-7.995
			c0.188-0.188,0.442-0.292,0.707-0.292h45.984c0.265,0,0.52,0.104,0.707,0.292l8.008,7.995c0.286,0.285,0.372,0.716,0.217,1.09
			C63.77,33.246,63.404,33.49,63,33.49z M3.417,31.489h57.166l-6.005-5.994H9.422L3.417,31.489z"/>
	</g>
	<path fill="#CCD1D9" d="M1,29.499c-0.553,0-1,0.448-1,1V43.5h2V30.499C2,29.947,1.553,29.499,1,29.499z"/>
	<path fill="#CCD1D9" d="M63,29.499c-0.553,0-1,0.448-1,1V43.5h2V30.499C64,29.947,63.553,29.499,63,29.499z"/>
</g>
</svg>
