<?xml version="1.0" encoding="utf-8"?>
<!-- Generator: Adobe Illustrator 16.0.0, SVG Export Plug-In . SVG Version: 6.00 Build 0)  -->
<!DOCTYPE svg PUBLIC "-//W3C//DTD SVG 1.1//EN" "http://www.w3.org/Graphics/SVG/1.1/DTD/svg11.dtd">
<svg version="1.1" id="icons" xmlns="http://www.w3.org/2000/svg" xmlns:xlink="http://www.w3.org/1999/xlink" x="0px" y="0px"
	 width="64px" height="64px" viewBox="0 0 64 64" enable-background="new 0 0 64 64" xml:space="preserve">
<g>
	<g>
		<path fill="#656D78" d="M61,20.5h-5c-6.87,0-13-7-24-7s-17.13,7-24,7H3c-1.1,0-2,0.89-2,2v16c0,1.11,0.89,2,2,2h5
			c6.87,0,13,7,24,7s17.13-7,24-7h5c1.11,0,2-0.89,2-2v-16C63,21.39,62.1,20.5,61,20.5z"/>
	</g>
	<g>
		<path fill="#FFCE54" d="M10,27.5c1.65,0,3,1.35,3,3s-1.35,3-3,3s-3-1.35-3-3S8.35,27.5,10,27.5z"/>
	</g>
	<g>
		<path fill="#545C66" d="M8,40.5c6.87,0,13,7,24,7s17.13-7,24-7h5c1.11,0,2-0.89,2-2v3c0,1.11-0.89,2-2,2h-5c-6.87,0-13,7-24,7
			s-17.13-7-24-7H3c-1.11,0-2-0.89-2-2v-3c0,1.11,0.89,2,2,2H8z"/>
	</g>
	<g>
		<polygon fill="#FFCE54" points="39,28.59 35.5,31.99 36.33,36.81 32,34.54 27.67,36.81 28.5,31.99 25,28.59 29.83,27.88 32,23.5 
			34.17,27.88 		"/>
	</g>
	<g>
		<path fill="#EDAB37" d="M32,19.5c6.07,0,11,4.93,11,11s-4.93,11-11,11s-11-4.93-11-11S25.93,19.5,32,19.5z M35.5,31.99l3.5-3.4
			l-4.83-0.71L32,23.5l-2.17,4.38L25,28.59l3.5,3.4l-0.83,4.819L32,34.54l4.33,2.27L35.5,31.99z"/>
	</g>
	<g>
		<path fill="#FFCE54" d="M54,27.5c1.65,0,3,1.35,3,3s-1.35,3-3,3s-3-1.35-3-3S52.35,27.5,54,27.5z"/>
	</g>
	<g>
		<path fill="#FFCE54" d="M43,30.5c0-6.07-4.93-11-11-11s-11,4.93-11,11s4.93,11,11,11S43,36.57,43,30.5z M32,44.5
			c-7.73,0-14-6.27-14-14s6.27-14,14-14s14,6.27,14,14S39.73,44.5,32,44.5z"/>
	</g>
</g>
</svg>
