<?xml version="1.0" encoding="utf-8"?>
<!-- Generator: Adobe Illustrator 16.0.0, SVG Export Plug-In . SVG Version: 6.00 Build 0)  -->
<!DOCTYPE svg PUBLIC "-//W3C//DTD SVG 1.1//EN" "http://www.w3.org/Graphics/SVG/1.1/DTD/svg11.dtd">
<svg version="1.1" id="icons" xmlns="http://www.w3.org/2000/svg" xmlns:xlink="http://www.w3.org/1999/xlink" x="0px" y="0px"
	 width="64px" height="64px" viewBox="0 0 64 64" enable-background="new 0 0 64 64" xml:space="preserve">
<g>
	<g>
		<g>
			<path fill="#965353" d="M41.485,22.505v3.03l-3-2.02c0,0-2.01,1-5.5,1s-6.5-1-6.5-1l-3,2.02v-3.02c0-4.431,3.58-8,8-8h6v4
				C39.695,18.516,41.485,20.306,41.485,22.505z"/>
		</g>
		<g>
			<path fill="#844747" d="M37.485,21.516c0.552,0,1,0.443,1,0.989v1.011l3,2.02v-3.03c0-2.199-1.79-3.989-4-3.989v-4h-3v4
				C34.485,20.173,35.828,21.516,37.485,21.516z"/>
		</g>
		<g>
			<path fill="#EAC6BB" d="M41.485,25.535v3.98c0,3.529-2.04,6.59-5,8.06c-1.2,0.601-2.57,0.94-4,0.94c-1.44,0-2.8-0.34-4-0.94
				c-2.96-1.47-5-4.53-5-8.06v-3.98l3-2.02c0,0,3.01,1,6.5,1s5.5-1,5.5-1L41.485,25.535z"/>
		</g>
		<g>
			<path fill="#D3B1A9" d="M38.485,23.516l-0.003,0.001v5.999c0,3.529-2.04,6.59-5,8.06c-0.771,0.386-1.618,0.65-2.501,0.8
				c0.49,0.083,0.989,0.141,1.504,0.141c1.43,0,2.8-0.34,4-0.94c2.96-1.47,5-4.53,5-8.06v-3.98L38.485,23.516z"/>
		</g>
		<g>
			<path fill="#EAC6BB" d="M59.485,33.016v0.5c0,6.63-5.37,12-12,12h-5.93h-0.07v9.91c-2.5-0.351-4.57-1.91-9-1.91s-6.5,1.56-9,1.91
				v-9.91h-0.07h-5.93c-6.63,0-12-5.37-12-12v-0.5c0-1.38,1.12-2.5,2.5-2.5s2.5,1.12,2.5,2.5v0.5c0,3.87,3.13,7,7,7h11v-2.94
				c1.2,0.601,2.56,0.94,4,0.94c1.43,0,2.8-0.34,4-0.94v2.94h11c3.87,0,7-3.13,7-7v-0.5c0-1.38,1.12-2.5,2.5-2.5
				S59.485,31.636,59.485,33.016z"/>
		</g>
		<g>
			<path fill="#F6BB42" d="M32.485,56.516c1.1,0,2,0.89,2,2c0,1.1-0.9,2-2,2s-2-0.9-2-2C30.485,57.405,31.386,56.516,32.485,56.516z
				"/>
		</g>
		<g>
			<path fill="#656D78" d="M32.485,53.516c-2.76,0-5,2.229-5,5c0,2.67,2.09,4.85,4.73,4.979c-4.24-0.05-6.28-1.56-8.73-1.899
				c-0.33-0.051-0.66-0.08-1-0.08v-6.011c0.34,0,0.67-0.029,1-0.079C25.985,55.075,28.056,53.516,32.485,53.516z"/>
		</g>
		<g>
			<path fill="#FFCE54" d="M34.485,58.516c0-1.11-0.9-2-2-2s-2,0.89-2,2c0,1.1,0.9,2,2,2S34.485,59.615,34.485,58.516z
				 M32.485,53.516c2.76,0,5,2.229,5,5c0,2.67-2.09,4.85-4.73,4.979c-0.09,0.01-0.18,0.01-0.27,0.01s-0.18,0-0.27-0.01
				c-2.641-0.13-4.73-2.31-4.73-4.979C27.485,55.745,29.726,53.516,32.485,53.516z"/>
		</g>
		<g>
			<path fill="#656D78" d="M41.485,61.596c-2.45,0.34-4.49,1.85-8.73,1.899c2.641-0.13,4.73-2.31,4.73-4.979c0-2.771-2.24-5-5-5
				c4.43,0,6.5,1.56,9,1.91c0.33,0.05,0.66,0.079,1,0.079v6.011C42.146,61.516,41.815,61.545,41.485,61.596z"/>
		</g>
		<g>
			<path fill="#5D9CEC" d="M32.755,63.495c4.24-0.05,6.28-1.56,8.73-1.899v1.92h-9C32.575,63.516,32.665,63.516,32.755,63.495z"/>
		</g>
		<g>
			<path fill="#5D9CEC" d="M23.485,61.596c2.45,0.34,4.49,1.85,8.73,1.899c0.09,0.021,0.18,0.021,0.27,0.021h-9v-0.011V61.596z"/>
		</g>
	</g>
	<g>
		<path fill="#5D9CEC" d="M9.481,13.48c-0.256,0-0.512-0.098-0.707-0.293c-0.391-0.391-0.391-1.023,0-1.414l2-2
			c0.391-0.391,1.023-0.391,1.414,0s0.391,1.023,0,1.414l-2,2C9.993,13.383,9.737,13.48,9.481,13.48z"/>
	</g>
	<g>
		<path fill="#5D9CEC" d="M11.481,15.48c-0.256,0-0.512-0.098-0.707-0.293l-2-2c-0.391-0.391-0.391-1.023,0-1.414
			s1.023-0.391,1.414,0l2,2c0.391,0.391,0.391,1.023,0,1.414C11.993,15.383,11.737,15.48,11.481,15.48z"/>
	</g>
	<g>
		<path fill="#5D9CEC" d="M9.481,17.48c-0.256,0-0.512-0.098-0.707-0.293c-0.391-0.391-0.391-1.023,0-1.414l2-2
			c0.391-0.391,1.023-0.391,1.414,0s0.391,1.023,0,1.414l-2,2C9.993,17.383,9.737,17.48,9.481,17.48z"/>
	</g>
	<g>
		<path fill="#5D9CEC" d="M11.481,19.48c-0.256,0-0.512-0.098-0.707-0.293l-2-2c-0.391-0.391-0.391-1.023,0-1.414
			s1.023-0.391,1.414,0l2,2c0.391,0.391,0.391,1.023,0,1.414C11.993,19.383,11.737,19.48,11.481,19.48z"/>
	</g>
	<g>
		<path fill="#ED5565" d="M47.485,12.486c-0.256,0-0.512-0.098-0.707-0.293c-0.391-0.391-0.391-1.023,0-1.414l2-2
			c0.391-0.391,1.023-0.391,1.414,0s0.391,1.023,0,1.414l-2,2C47.997,12.389,47.741,12.486,47.485,12.486z"/>
	</g>
	<g>
		<path fill="#ED5565" d="M49.485,10.486c-0.256,0-0.512-0.098-0.707-0.293l-2-2c-0.391-0.391-0.391-1.023,0-1.414
			s1.023-0.391,1.414,0l2,2c0.391,0.391,0.391,1.023,0,1.414C49.997,10.389,49.741,10.486,49.485,10.486z"/>
	</g>
	<g>
		<path fill="#ED5565" d="M47.485,16.486c-0.256,0-0.512-0.098-0.707-0.293c-0.391-0.391-0.391-1.023,0-1.414l2-2
			c0.391-0.391,1.023-0.391,1.414,0s0.391,1.023,0,1.414l-2,2C47.997,16.389,47.741,16.486,47.485,16.486z"/>
	</g>
	<g>
		<path fill="#ED5565" d="M49.485,14.486c-0.256,0-0.512-0.098-0.707-0.293l-2-2c-0.391-0.391-0.391-1.023,0-1.414
			s1.023-0.391,1.414,0l2,2c0.391,0.391,0.391,1.023,0,1.414C49.997,14.389,49.741,14.486,49.485,14.486z"/>
	</g>
	<g>
		<path fill="#ED5565" d="M47.485,8.486c-0.256,0-0.512-0.098-0.707-0.293c-0.391-0.391-0.391-1.023,0-1.414l2-2
			c0.391-0.391,1.023-0.391,1.414,0s0.391,1.023,0,1.414l-2,2C47.997,8.389,47.741,8.486,47.485,8.486z"/>
	</g>
	<g>
		<path fill="#ED5565" d="M49.485,6.486c-0.256,0-0.512-0.098-0.707-0.293l-2-2c-0.391-0.391-0.391-1.023,0-1.414
			s1.023-0.391,1.414,0l2,2c0.391,0.391,0.391,1.023,0,1.414C49.997,6.389,49.741,6.486,49.485,6.486z"/>
	</g>
	<g>
		<path fill="#A0D468" d="M17.527,28.498c-0.553,0-1.005-0.447-1.005-1s0.442-1,0.994-1h0.011c0.552,0,1,0.447,1,1
			S18.079,28.498,17.527,28.498z"/>
	</g>
	<g>
		<path fill="#FFCE54" d="M3.518,5.477c-0.553,0-1.005-0.447-1.005-1s0.442-1,0.994-1h0.011c0.552,0,1,0.447,1,1
			S4.069,5.477,3.518,5.477z"/>
	</g>
	<g>
		<path fill="#FFCE54" d="M48.516,27.484c-0.553,0-1.005-0.447-1.005-1s0.442-1,0.994-1h0.011c0.552,0,1,0.447,1,1
			S49.067,27.484,48.516,27.484z"/>
	</g>
	<g>
		<path fill="#48CFAD" d="M24.478,6.484c-0.553,0-1-0.447-1-1v-4c0-0.553,0.447-1,1-1s1,0.447,1,1v4
			C25.478,6.037,25.03,6.484,24.478,6.484z"/>
	</g>
	<g>
		<path fill="#48CFAD" d="M25.478,4.484h-2c-0.553,0-1-0.447-1-1s0.447-1,1-1h2c0.553,0,1,0.447,1,1S26.03,4.484,25.478,4.484z"/>
	</g>
	<g>
		<path fill="#A0D468" d="M59.487,20.482c-0.553,0-1-0.447-1-1v-4c0-0.553,0.447-1,1-1s1,0.447,1,1v4
			C60.487,20.035,60.04,20.482,59.487,20.482z"/>
	</g>
	<g>
		<path fill="#A0D468" d="M60.487,18.482h-2c-0.553,0-1-0.447-1-1s0.447-1,1-1h2c0.553,0,1,0.447,1,1S61.04,18.482,60.487,18.482z"
			/>
	</g>
</g>
</svg>
