<?xml version="1.0" encoding="utf-8"?>
<!-- Generator: Adobe Illustrator 16.0.0, SVG Export Plug-In . SVG Version: 6.00 Build 0)  -->
<!DOCTYPE svg PUBLIC "-//W3C//DTD SVG 1.1//EN" "http://www.w3.org/Graphics/SVG/1.1/DTD/svg11.dtd">
<svg version="1.1" id="icons" xmlns="http://www.w3.org/2000/svg" xmlns:xlink="http://www.w3.org/1999/xlink" x="0px" y="0px"
	 width="64px" height="64px" viewBox="0 0 64 64" enable-background="new 0 0 64 64" xml:space="preserve">
<g>
	<g>
		<polygon fill="#ED5565" points="46.495,2 46.495,19 35.495,19 33.495,21 31.495,19 20.495,19 20.495,2 		"/>
	</g>
	<g>
		<path fill="#656D78" d="M41.984,32.029l-3,2.02v-1.02h0.011c0.01-4.971,4.029-8.99,9-8.99c4.97,0,8.989,4.02,9,8.99h-0.011v1.02
			l-3-2.02c0,0-2,1-5.5,1C44.995,33.029,41.984,32.029,41.984,32.029z"/>
	</g>
	<g>
		<g>
			<path fill="#545C66" d="M47.995,24.039c-0.513,0-1.013,0.053-1.502,0.135c3.937,0.662,7.002,3.867,7.442,7.879
				c0.018-0.008,0.049-0.023,0.049-0.023l3,2.02v-1.02h0.011C56.984,28.059,52.965,24.039,47.995,24.039z"/>
		</g>
	</g>
	<g>
		<path fill="#E6E9ED" d="M56.984,61v2H38.995v-8.971c-2.131,0-4.07-0.83-5.5-2.189c1.529-1.439,2.479-3.48,2.5-5.75
			c0.029,1.629,1.369,2.939,3,2.939h4.989V53l4-2.5v0.01h0.011l3.989,2.48v-3.961h5h0.021c2.77,0,5,2.23,5,5V61h-5H56.984z"/>
	</g>
	<g>
		<g>
			<path fill="#CCD1D9" d="M57.005,49.029h-0.021h-2.982c2.77,0,5,2.23,5,5V61h3.003v-6.971
				C62.005,51.26,59.774,49.029,57.005,49.029z"/>
		</g>
	</g>
	<g>
		<polygon fill="#656D78" points="51.984,49.029 51.984,52.99 47.995,50.51 47.995,50.5 51.984,48 		"/>
	</g>
	<g>
		<polygon fill="#EAC6BB" points="57.005,61 62.005,61 62.005,63 56.984,63 56.984,61 		"/>
	</g>
	<g>
		<path fill="#F5F7FA" d="M47.984,47.029c1.44,0,2.79-0.34,4-0.93V48l-3.989,2.5h-0.011l-4-2.5v-1.9v-0.01
			C45.185,46.689,46.545,47.029,47.984,47.029z"/>
	</g>
	<g>
		<polygon fill="#656D78" points="43.984,48 47.984,50.5 43.984,53 43.984,49.029 		"/>
	</g>
	<g>
		<path fill="#EAC6BB" d="M53.984,32.029l3,2.02v3.98c0,3.541-2.029,6.6-5,8.07c-1.21,0.59-2.56,0.93-4,0.93
			c-1.439,0-2.8-0.34-4-0.939c-2.96-1.471-5-4.531-5-8.061v-3.98l3-2.02c0,0,3.011,1,6.5,1
			C51.984,33.029,53.984,32.029,53.984,32.029z"/>
	</g>
	<g>
		<path fill="#D3B1A9" d="M53.984,32.029l-0.003,0.002v5.998c0,3.541-2.029,6.6-5,8.07c-0.777,0.379-1.618,0.641-2.498,0.789
			c0.489,0.084,0.987,0.141,1.501,0.141c1.44,0,2.79-0.34,4-0.93c2.971-1.471,5-4.529,5-8.07v-3.98L53.984,32.029z"/>
	</g>
	<g>
		<path fill="#EAC6BB" d="M27.995,34.049v3.98c0,3.529-2.04,6.59-5,8.061c-1.2,0.6-2.57,0.939-4,0.939c-1.431,0-2.801-0.34-4-0.939
			c-2.961-1.471-5-4.531-5-8.061v-3.98l3-2.02c0,0,3,1,6.5,1c3.489,0,5.5-1,5.5-1L27.995,34.049z"/>
	</g>
	<g>
		<path fill="#965353" d="M24.005,27c2.21,0,4,1.789,4,4h-0.01v3.049l-3-2.02c0,0-2.011,1-5.5,1c-3.5,0-6.5-1-6.5-1l-3,2.02V31h0.01
			c0-4.42,3.58-8,8-8h6V27z"/>
	</g>
	<g>
		<path fill="#EAC6BB" d="M14.995,49.029V46.1v-0.01c1.199,0.6,2.569,0.939,4,0.939c1.43,0,2.8-0.34,4-0.939v0.01v2.93h5
			c1.649,0,3-1.34,3-3v-16.5c0-1.379,1.119-2.5,2.5-2.5c1.38,0,2.5,1.121,2.5,2.5v16.5c0,0.02,0,0.041,0,0.061
			c-0.021,2.27-0.971,4.311-2.5,5.75c-1.431,1.359-3.37,2.189-5.5,2.189V63h-17.99v-8.971c-4.431,0-8-3.58-8-8h-0.01v-16.5
			c0-1.379,1.119-2.5,2.5-2.5c1.39,0,2.51,1.121,2.51,2.5h-0.01v16.5h0.01c0,1.66,1.34,3,3,3H14.995z"/>
	</g>
	<g>
		<path fill="#844747" d="M23.988,30.029c0.552,0,1,0.443,1,0.99v1.01l3,2.02V31.02c0-2.199-1.79-3.99-4-3.99v-4h-3v4
			C20.988,28.688,22.331,30.029,23.988,30.029z"/>
	</g>
	<g>
		<path fill="#D3B1A9" d="M24.988,32.029l-0.003,0.002v5.998c0,3.529-2.04,6.59-5,8.061c-0.771,0.385-1.618,0.65-2.501,0.799
			c0.49,0.084,0.989,0.141,1.504,0.141c1.43,0,2.8-0.34,4-0.939c2.96-1.471,5-4.531,5-8.061v-3.98L24.988,32.029z"/>
	</g>
	<g>
		<rect x="59" y="61" fill="#D3B1A9" width="3.005" height="2"/>
	</g>
	<g>
		<g>
			<path fill="#DA4453" d="M25.493,16c-0.503,0-0.937-0.379-0.993-0.891l-1-9c-0.061-0.549,0.335-1.043,0.884-1.104
				c0.553-0.055,1.044,0.334,1.104,0.883l1,9c0.061,0.549-0.335,1.043-0.884,1.105C25.567,15.998,25.529,16,25.493,16z"/>
		</g>
		<g>
			<path fill="#DA4453" d="M25.494,16c-0.124,0-0.249-0.023-0.371-0.072c-0.513-0.205-0.763-0.787-0.558-1.299l1.998-5
				c0.205-0.514,0.788-0.764,1.3-0.559c0.513,0.205,0.763,0.787,0.558,1.301l-1.998,5C26.267,15.762,25.891,16,25.494,16z"/>
		</g>
		<g>
			<path fill="#DA4453" d="M29.493,16c-0.036,0-0.074-0.002-0.111-0.006c-0.549-0.063-0.944-0.557-0.884-1.105l0.998-9
				c0.061-0.547,0.557-0.936,1.104-0.883c0.549,0.061,0.944,0.555,0.884,1.104l-0.998,9C30.43,15.621,29.996,16,29.493,16z"/>
		</g>
		<g>
			<path fill="#DA4453" d="M29.492,16c-0.396,0-0.772-0.238-0.929-0.629l-2-5c-0.205-0.514,0.045-1.096,0.558-1.301
				c0.508-0.205,1.095,0.045,1.3,0.559l2,5c0.205,0.512-0.045,1.094-0.558,1.299C29.742,15.977,29.616,16,29.492,16z"/>
		</g>
		<g>
			<path fill="#DA4453" d="M34.494,16c-0.553,0-1-0.447-1-1V6c0-0.553,0.447-1,1-1s1,0.447,1,1v9C35.494,15.553,35.047,16,34.494,16
				z"/>
		</g>
		<g>
			<path fill="#DA4453" d="M38.494,16c-0.553,0-1-0.447-1-1V6c0-0.553,0.447-1,1-1s1,0.447,1,1v9C39.494,15.553,39.047,16,38.494,16
				z"/>
		</g>
		<g>
			<path fill="#DA4453" d="M35.494,16h-2c-0.553,0-1-0.447-1-1s0.447-1,1-1h2c0.553,0,1,0.447,1,1S36.047,16,35.494,16z"/>
		</g>
		<g>
			<path fill="#DA4453" d="M35.494,7h-2c-0.553,0-1-0.447-1-1s0.447-1,1-1h2c0.553,0,1,0.447,1,1S36.047,7,35.494,7z"/>
		</g>
		<g>
			<path fill="#DA4453" d="M42.495,16c-0.384,0-0.749-0.221-0.915-0.594l-4-9c-0.224-0.506,0.003-1.096,0.508-1.32
				c0.506-0.225,1.096,0.004,1.32,0.508l4,9c0.224,0.504-0.003,1.096-0.508,1.32C42.769,15.973,42.631,16,42.495,16z"/>
		</g>
		<g>
			<path fill="#DA4453" d="M42.494,16c-0.553,0-1-0.447-1-1V6c0-0.553,0.447-1,1-1s1,0.447,1,1v9C43.494,15.553,43.047,16,42.494,16
				z"/>
		</g>
	</g>
	<g>
		<path fill="#ED5565" d="M33.494,22.002c-0.266,0-0.52-0.105-0.707-0.293L31.078,20H20.494c-0.553,0-1-0.447-1-1V2
			c0-0.553,0.447-1,1-1h26c0.553,0,1,0.447,1,1v17c0,0.553-0.447,1-1,1H35.909l-1.708,1.709
			C34.014,21.896,33.76,22.002,33.494,22.002z M21.494,18h9.998c0.266,0,0.52,0.105,0.707,0.293l1.295,1.295l1.294-1.295
			C34.976,18.105,35.229,18,35.495,18h9.999V3h-24V18z"/>
	</g>
</g>
</svg>
