<?xml version="1.0" encoding="utf-8"?>
<!-- Generator: Adobe Illustrator 16.0.0, SVG Export Plug-In . SVG Version: 6.00 Build 0)  -->
<!DOCTYPE svg PUBLIC "-//W3C//DTD SVG 1.1//EN" "http://www.w3.org/Graphics/SVG/1.1/DTD/svg11.dtd">
<svg version="1.1" id="icons" xmlns="http://www.w3.org/2000/svg" xmlns:xlink="http://www.w3.org/1999/xlink" x="0px" y="0px"
	 width="64px" height="64px" viewBox="0 0 64 64" enable-background="new 0 0 64 64" xml:space="preserve">
<g>
	<g>
		<g>
			<rect x="29.001" y="40.5" fill="#545C66" width="6" height="11.96"/>
		</g>
		<g>
			<path fill="#656D78" d="M42.001,56.5v6h-20v-6c0-2.2,1.8-4,4-4h12C40.201,52.5,42.001,54.3,42.001,56.5z"/>
		</g>
		<g>
			<path fill="#545C66" d="M38.001,52.5h-3.003c2.2,0,4,1.8,4,4v6h3.003v-6C42.001,54.3,40.201,52.5,38.001,52.5z"/>
		</g>
		<g>
			<path fill="#656D78" d="M26.001,8.5l-2,2.03V8.5c0-4.42,3.58-8,8-8s8,3.58,8,8v2.03l-2-2.03c0,0-2.01,1-5.5,1
				S26.001,8.5,26.001,8.5z"/>
		</g>
		<g>
			<g>
				<path fill="#545C66" d="M32.001,0.5c-0.514,0-1.015,0.053-1.502,0.146C34.2,1.349,36.998,4.594,36.998,8.5v0.37
					c0.645-0.199,1.003-0.37,1.003-0.37l2,2.03V8.5C40.001,4.08,36.421,0.5,32.001,0.5z"/>
			</g>
		</g>
		<g>
			<path fill="#D3B1A9" d="M24.001,28.49c0,1.66,1.34,3,3,3h3c1.1,0,2-0.891,2-2c0,1.109,0.89,2.01,2,2.01h3c1.66,0,3-1.35,3-3.01
				v4.01v6c0,1.1-0.9,2-2,2h-3h-6h-3c-1.11,0-2-0.9-2-2v-6V28.49z"/>
		</g>
		<g>
			<path fill="#EAC6BB" d="M24.001,28.49v4.01c-2.76,0-5-2.24-5-5s2.23-5,5-5h4v-2.94l0.06-0.1c1.16,0.66,2.511,1.04,3.94,1.04
				s2.78-0.38,3.94-1.04l0.06,0.1v2.94h4c2.77,0,5,2.24,5,5s-2.24,5-5,5v-4.01c0,1.66-1.34,3.01-3,3.01h-3c-1.11,0-2-0.9-2-2.01
				c0,1.109-0.9,2-2,2h-3C25.341,31.49,24.001,30.15,24.001,28.49z"/>
		</g>
		<g>
			<path fill="#EAC6BB" d="M40.001,10.53v1.97c0,2.99-1.63,5.59-4.06,6.96c-1.16,0.66-2.511,1.04-3.94,1.04s-2.78-0.38-3.94-1.04
				c-2.409-1.36-4.04-3.94-4.06-6.91V12.5v-1.97l2-2.03c0,0,3.01,1,6.5,1s5.5-1,5.5-1L40.001,10.53z"/>
		</g>
		<g>
			<path fill="#D3B1A9" d="M38.001,8.5c0,0-0.358,0.171-1.003,0.37v3.63c0,2.99-1.63,5.59-4.06,6.96
				c-0.743,0.423-1.569,0.715-2.439,0.882c0.489,0.093,0.987,0.158,1.502,0.158c1.43,0,2.78-0.38,3.94-1.04
				c2.43-1.37,4.06-3.97,4.06-6.96v-1.97L38.001,8.5z"/>
		</g>
	</g>
	<g>
		<path fill="#E6E9ED" d="M44.001,63.5H19.999c-0.553,0-1-0.447-1-1s0.447-1,1-1h24.002c0.553,0,1,0.447,1,1
			S44.554,63.5,44.001,63.5z"/>
	</g>
</g>
</svg>
