<?xml version="1.0" encoding="utf-8"?>
<!-- Generator: Adobe Illustrator 16.0.0, SVG Export Plug-In . SVG Version: 6.00 Build 0)  -->
<!DOCTYPE svg PUBLIC "-//W3C//DTD SVG 1.1//EN" "http://www.w3.org/Graphics/SVG/1.1/DTD/svg11.dtd">
<svg version="1.1" id="icons" xmlns="http://www.w3.org/2000/svg" xmlns:xlink="http://www.w3.org/1999/xlink" x="0px" y="0px"
	 width="64px" height="64px" viewBox="0 0 64 64" enable-background="new 0 0 64 64" xml:space="preserve">
<g>
	<g>
		<g>
			<path fill="#ED5565" d="M36,40c0-2.21-1.79-4-4-4s-4,1.79-4,4s1.79,4,4,4S36,42.21,36,40z M39,40c0,3.86-3.14,7-7,7s-7-3.14-7-7
				s3.14-7,7-7S39,36.14,39,40z"/>
		</g>
		<g>
			<path fill="#656D78" d="M44,16v43c0,2.21-1.79,4-4,4H24c-2.21,0-4-1.79-4-4V16c0,2.21,1.79,4,4,4h16C42.21,20,44,18.21,44,16z
				 M39,40c0-3.86-3.14-7-7-7s-7,3.14-7,7s3.14,7,7,7S39,43.86,39,40z"/>
		</g>
		<g>
			<circle fill="#656D78" cx="32" cy="40" r="4"/>
		</g>
		<g>
			<path fill="#545C66" d="M32,12h7.99H40c2.21,0,4,1.79,4,4s-1.79,4-4,4H24c-2.21,0-4-1.79-4-4s1.79-4,4-4h0.01H32z"/>
		</g>
	</g>
	<g>
		<g>
			<path fill="#CCD1D9" d="M24,14.006c-0.204,0-0.409-0.063-0.587-0.191c-0.447-0.324-0.546-0.95-0.221-1.396l7.999-11.005
				c0.324-0.447,0.948-0.546,1.396-0.221c0.447,0.324,0.546,0.95,0.221,1.396L24.81,13.594C24.614,13.863,24.31,14.006,24,14.006z"
				/>
		</g>
		<g>
			<path fill="#CCD1D9" d="M40.001,14.006c-0.31,0-0.614-0.143-0.81-0.412L31.192,2.589c-0.325-0.446-0.227-1.072,0.221-1.396
				s1.073-0.227,1.396,0.221l7.999,11.005c0.325,0.446,0.227,1.072-0.221,1.396C40.41,13.943,40.205,14.006,40.001,14.006z"/>
		</g>
		<g>
			<path fill="#E6E9ED" d="M24.001,17.003c-0.553,0-1-0.447-1-1v-2.997c0-0.553,0.447-1,1-1s1,0.447,1,1v2.997
				C25.001,16.556,24.554,17.003,24.001,17.003z"/>
		</g>
		<g>
			<path fill="#E6E9ED" d="M40,17.003c-0.553,0-1-0.447-1-1v-2.997c0-0.553,0.447-1,1-1s1,0.447,1,1v2.997
				C41,16.556,40.553,17.003,40,17.003z"/>
		</g>
		<g>
			<path fill="#E6E9ED" d="M32,18c-0.553,0-1-0.447-1-1V2.001c0-0.553,0.447-1,1-1s1,0.447,1,1V17C33,17.553,32.553,18,32,18z"/>
		</g>
	</g>
</g>
</svg>
