<?xml version="1.0" encoding="utf-8"?>
<!-- Generator: Adobe Illustrator 16.0.0, SVG Export Plug-In . SVG Version: 6.00 Build 0)  -->
<!DOCTYPE svg PUBLIC "-//W3C//DTD SVG 1.1//EN" "http://www.w3.org/Graphics/SVG/1.1/DTD/svg11.dtd">
<svg version="1.1" id="icons" xmlns="http://www.w3.org/2000/svg" xmlns:xlink="http://www.w3.org/1999/xlink" x="0px" y="0px"
	 width="64px" height="64px" viewBox="0 0 64 64" enable-background="new 0 0 64 64" xml:space="preserve">
<g>
	<g>
		<path fill="#DA4453" d="M38,1c2.76,0,5,2.24,5,5s-2.24,5-5,5H26.01c-2.77,0-5-2.24-5-5s2.23-5,5-5H38z"/>
	</g>
	<g>
		<path fill="#ED5565" d="M32,24.99c2.21,0,4,1.8,4,4c0,2.21-1.79,4-4,4s-4-1.79-4-4C28,26.79,29.79,24.99,32,24.99z"/>
	</g>
	<g>
		<path fill="#FFCE54" d="M36,28.99c0-2.2-1.79-4-4-4s-4,1.8-4,4c0,2.21,1.79,4,4,4S36,31.2,36,28.99z M25,28.99c0-3.86,3.14-7,7-7
			c3.87,0,7,3.14,7,7c0,3.87-3.13,7-7,7C28.14,35.99,25,32.86,25,28.99z"/>
	</g>
	<g>
		<path fill="#ED5565" d="M21,36.34V6h0.01c0,2.76,2.23,5,5,5H38c2.76,0,5-2.24,5-5v30.34V45c0,2.76-2.24,5-5,5H26.01
			c-2.77,0-5-2.24-5-5H21V36.34z M39,28.99c0-3.86-3.13-7-7-7c-3.86,0-7,3.14-7,7c0,3.87,3.14,7,7,7C35.87,35.99,39,32.86,39,28.99z
			"/>
	</g>
	<g>
		<path fill="#545C66" d="M16.01,45.51C16,45.34,16,45.17,16,45c0-3.7,2.01-6.93,5-8.66V45h0.01c0,2.76,2.23,5,5,5H38
			c2.76,0,5-2.24,5-5v-8.66c2.99,1.73,5,4.96,5,8.66c0,5.53-4.48,10-10,10H26C20.65,55,16.28,50.8,16.01,45.51z"/>
	</g>
	<g>
		<path fill="#656D78" d="M16.01,45.51C16.28,50.8,20.65,55,26,55h12c5.52,0,10-4.47,10-10v8c0,5.52-4.48,10-10,10H26
			c-5.52,0-10-4.48-10-10h0.01V45.51z"/>
	</g>
</g>
</svg>
