<?xml version="1.0" encoding="utf-8"?>
<!-- Generator: Adobe Illustrator 16.0.0, SVG Export Plug-In . SVG Version: 6.00 Build 0)  -->
<!DOCTYPE svg PUBLIC "-//W3C//DTD SVG 1.1//EN" "http://www.w3.org/Graphics/SVG/1.1/DTD/svg11.dtd">
<svg version="1.1" id="icons" xmlns="http://www.w3.org/2000/svg" xmlns:xlink="http://www.w3.org/1999/xlink" x="0px" y="0px"
	 width="64px" height="64px" viewBox="0 0 64 64" enable-background="new 0 0 64 64" xml:space="preserve">
<g>
	<g>
		<path fill="#545C66" d="M34,10v5c0-1.1-0.9-2-2-2s-2,0.9-2,2v-5H34z"/>
	</g>
	<g>
		<path fill="#AAB2BD" d="M32,13c1.1,0,2,0.9,2,2c0,1.11-0.9,2-2,2s-2-0.89-2-2C30,13.9,30.9,13,32,13z"/>
	</g>
	<g>
		<path fill="#656D78" d="M43,1c0.55,0,1,0.45,1,1v4c0,0.55-0.45,1-1,1h-2c-0.55,0-1.45,0-2,0H25c-0.55,0-1.45,0-2,0h-2
			c-0.55,0-1-0.45-1-1V2c0-0.55,0.45-1,1-1H43z"/>
	</g>
	<g>
		<path fill="#CCD1D9" d="M24,7h16c0,1.66-1.34,3-3,3h-3h-4h-3C25.34,10,24,8.66,24,7z"/>
	</g>
	<g>
		<path fill="#CCD1D9" d="M35,20c0.55,0,1,0.45,1,1v1c0,0.55-0.371,1-0.825,1s-1.275,0-1.825,0H33c-0.55,0-1.45,0-2,0h-0.35
			c-0.55,0-1.371,0-1.825,0S28,22.55,28,22v-1c0-0.55,0.45-1,1-1l0,0c0.55,0,1.45,0,2,0h2C33.55,20,34.45,20,35,20L35,20z"/>
	</g>
	<g>
		<path fill="#545C66" d="M34,15v5h-4v-5c0,1.11,0.9,2,2,2S34,16.11,34,15z"/>
	</g>
	<g>
		<path fill="#434A54" d="M36,23c4.6,4.33,13,15.73,13,23c0,9.39-7.61,17-17,17c5.52,0,10-7.61,10-17c0-7.27-4.94-18.67-7.65-23H36z
			"/>
	</g>
	<g>
		<path fill="#545C66" d="M34.35,23C37.06,27.33,42,38.73,42,46c0,9.39-4.48,17-10,17V23H34.35z"/>
	</g>
	<g>
		<path fill="#656D78" d="M32,23v40c-5.52,0-10-7.61-10-17c0-7.27,4.94-18.67,7.65-23H32z"/>
	</g>
	<g>
		<path fill="#545C66" d="M29.65,23C26.94,27.33,22,38.73,22,46c0,9.39,4.48,17,10,17c-9.39,0-17-7.61-17-17c0-7.27,8.4-18.67,13-23
			H29.65z"/>
	</g>
	<rect x="28" y="22" fill="#CCD1D9" width="8" height="1"/>
</g>
</svg>
