<?xml version="1.0" encoding="utf-8"?>
<!-- Generator: Adobe Illustrator 16.0.0, SVG Export Plug-In . SVG Version: 6.00 Build 0)  -->
<!DOCTYPE svg PUBLIC "-//W3C//DTD SVG 1.1//EN" "http://www.w3.org/Graphics/SVG/1.1/DTD/svg11.dtd">
<svg version="1.1" id="icons" xmlns="http://www.w3.org/2000/svg" xmlns:xlink="http://www.w3.org/1999/xlink" x="0px" y="0px"
	 width="64px" height="64px" viewBox="0 0 64 64" enable-background="new 0 0 64 64" xml:space="preserve">
<g>
	<g>
		<path fill="#ED5565" d="M37,11c0,5.41-2.89,9.82-4.25,12h-1.5C29.89,20.82,27,16.41,27,11c0-5.35,2.1-9.72,4.74-9.99
			C31.83,1,31.91,1,32,1s0.17,0,0.26,0.01C34.9,1.28,37,5.65,37,11z"/>
	</g>
	<g>
		<path fill="#DA4453" d="M42,11c0,5.41-5.79,9.82-8.5,12h-0.75C34.11,20.82,37,16.41,37,11c0-5.35-2.1-9.72-4.74-9.99
			C37.66,1.14,42,5.57,42,11z"/>
	</g>
	<g>
		<polygon fill="#656D78" points="33.5,23 33.5,55 30.5,55 30.5,23 31.25,23 32.75,23 		"/>
	</g>
	<g>
		<path fill="#DA4453" d="M27,11c0,5.41,2.89,9.82,4.25,12H30.5c-2.72-2.18-8.5-6.59-8.5-12c0-5.43,4.34-9.86,9.74-9.99
			C29.1,1.28,27,5.65,27,11z"/>
	</g>
	<g>
		<path fill="#CCD1D9" d="M26.01,55h4.49h3h4.49c1.66,0,3,1.34,3,3H23.01C23.01,56.34,24.35,55,26.01,55z"/>
	</g>
	<g>
		<path fill="#656D78" d="M41.99,58c0.55,0,1,0.45,1,1v3c0,0.55-0.45,1-1,1H22.01c-0.55,0-1-0.45-1-1v-3c0-0.55,0.45-1,1-1l0,0
			c0.55,0,1.45,0,2,0h15.98C40.54,58,41.44,58,41.99,58L41.99,58z"/>
	</g>
</g>
</svg>
