<?xml version="1.0" encoding="utf-8"?>
<!-- Generator: Adobe Illustrator 16.0.0, SVG Export Plug-In . SVG Version: 6.00 Build 0)  -->
<!DOCTYPE svg PUBLIC "-//W3C//DTD SVG 1.1//EN" "http://www.w3.org/Graphics/SVG/1.1/DTD/svg11.dtd">
<svg version="1.1" id="icons" xmlns="http://www.w3.org/2000/svg" xmlns:xlink="http://www.w3.org/1999/xlink" x="0px" y="0px"
	 width="64px" height="64px" viewBox="0 0 64 64" enable-background="new 0 0 64 64" xml:space="preserve">
<g>
	<g>
		<path fill="#AAB2BD" d="M24.005,18.002c-0.158,0-0.319-0.039-0.47-0.117c-0.487-0.26-0.672-0.867-0.412-1.354l7.996-15.002
			c0.261-0.486,0.863-0.67,1.354-0.412c0.487,0.26,0.672,0.865,0.412,1.354l-7.996,15.002
			C24.708,17.809,24.362,18.002,24.005,18.002z"/>
	</g>
	<g>
		<path fill="#AAB2BD" d="M39.997,18.002c-0.357,0-0.703-0.193-0.884-0.529L31.117,2.471c-0.26-0.488-0.075-1.094,0.412-1.354
			c0.491-0.258,1.093-0.074,1.354,0.412l7.996,15.002c0.26,0.486,0.075,1.094-0.412,1.354
			C40.316,17.963,40.155,18.002,39.997,18.002z"/>
	</g>
	<g>
		<path fill="#CCD1D9" d="M32,18.002c-0.553,0-1-0.447-1-1V2c0-0.553,0.447-1,1-1s1,0.447,1,1v15.002
			C33,17.555,32.553,18.002,32,18.002z"/>
	</g>
	<path fill="#E6E9ED" d="M41,16c-0.55,0-1.45,0-2,0h-6c-0.55,0-1.45,0-2,0h-5.99c-0.55,0-1.45,0-2,0H23c-0.55,0-1,0.451-1,1v2.992
		h20V17C42,16.451,41.55,16,41,16z"/>
	<g>
		<path fill="#545C66" d="M49,34.99V53c0,5.531-4.47,10-10,10h-7V50c4.42,0,8-3.58,8-8s-3.58-8-8-8V19.99h10L49,34.99z"/>
	</g>
	<g>
		<path fill="#656D78" d="M32,50v13h-7c-5.53,0-10-4.469-10-10V34.99l7-15h10V34c-4.42,0-8,3.58-8,8S27.58,50,32,50z"/>
	</g>
	<g>
		<path fill="#ED5565" d="M32,34c4.42,0,8,3.58,8,8s-3.58,8-8,8s-8-3.58-8-8S27.58,34,32,34z M36,42c0-2.209-1.79-4-4-4
			s-4,1.791-4,4c0,2.211,1.79,4,4,4S36,44.211,36,42z"/>
	</g>
	<g>
		<circle fill="#DA4453" cx="32" cy="42" r="4"/>
	</g>
</g>
</svg>
