<?xml version="1.0" encoding="utf-8"?>
<!-- Generator: Adobe Illustrator 16.0.0, SVG Export Plug-In . SVG Version: 6.00 Build 0)  -->
<!DOCTYPE svg PUBLIC "-//W3C//DTD SVG 1.1//EN" "http://www.w3.org/Graphics/SVG/1.1/DTD/svg11.dtd">
<svg version="1.1" id="icons" xmlns="http://www.w3.org/2000/svg" xmlns:xlink="http://www.w3.org/1999/xlink" x="0px" y="0px"
	 width="64px" height="64px" viewBox="0 0 64 64" enable-background="new 0 0 64 64" xml:space="preserve">
<g>
	<path fill="#434A54" d="M57.49,28c0,0.55-0.45,1-1,1H40.5c-0.55,0-1-0.45-1-1V18c0-0.55,0.45-1,1-1h15.99c0.55,0,1,0.45,1,1V28z"/>
	<path fill="#434A54" d="M24.5,46c0,0.551-0.45,1-1,1H7.51c-0.55,0-1-0.449-1-1V36c0-0.55,0.45-1,1-1H23.5c0.55,0,1,0.45,1,1V46z"/>
	<g>
		<path fill="#434A54" d="M31.49,8c1.66,0,3,1.34,3,3v12c0,3.31-2.681,5.99-5.99,5.99V8H31.49z"/>
	</g>
	<g>
		<path fill="#656D78" d="M61.5,57c0,3.3-2.71,6-6,6h-14c-3.3,0-6-2.7-6-6c0-6.08,4.92-11,11-11h4C56.58,46,61.5,50.92,61.5,57z"/>
	</g>
	<g>
		<rect x="39.5" y="20" fill="#AAB2BD" width="14" height="5"/>
	</g>
	<g>
		<path fill="#434A54" d="M35.5,35.01V56h-2.99c-1.66,0-3-1.34-3-3V41C29.51,37.689,32.19,35.01,35.5,35.01z"/>
	</g>
	<g>
		<path fill="#545C66" d="M28.5,8v20.99v3c0,2.21-1.79,4-4,4h-6V27c0-1.65-1.34-3-3-3c-1.65,0-3,1.35-3,3v8.99H6.51V36
			C4.3,36,2.5,34.21,2.5,31.99V7c0,6.08,4.92,11,11,11h4c6.08,0,11-4.92,11-11V8z"/>
	</g>
	<g>
		<rect x="10.5" y="39" fill="#AAB2BD" width="14" height="5"/>
	</g>
	<g>
		<path fill="#656D78" d="M28.5,7c0,6.08-4.92,11-11,11h-4c-6.08,0-11-4.92-11-11c0-3.3,2.71-6,6-6h14C25.8,1,28.5,3.7,28.5,7z"/>
	</g>
	<g>
		<rect x="6.51" y="39" fill="#545C66" width="3.99" height="5"/>
	</g>
	<g>
		<path fill="#656D78" d="M51.5,37c0,1.65-1.35,3-3,3c-1.66,0-3-1.35-3-3v-8.99h3h3V37z"/>
	</g>
	<g>
		<rect x="53.5" y="20" fill="#545C66" width="3.99" height="5"/>
	</g>
	<g>
		<path fill="#545C66" d="M35.5,56V35.01v-3c0-2.21,1.79-4,4-4h6V37c0,1.65,1.34,3,3,3c1.65,0,3-1.35,3-3v-8.99h5.99V28
			c2.21,0,4.01,1.79,4.01,4.01V57c0-6.08-4.92-11-11-11h-4c-6.08,0-11,4.92-11,11V56z"/>
	</g>
	<g>
		<path fill="#656D78" d="M15.5,24c1.66,0,3,1.35,3,3v8.99h-3h-3V27C12.5,25.35,13.85,24,15.5,24z"/>
	</g>
	<g>
		<path fill="#545C66" d="M15.504,26.002c-0.553,0-1,0.448-1,1v8.987h2v-8.987C16.504,26.45,16.057,26.002,15.504,26.002z"/>
		<path fill="#545C66" d="M47.496,28.01v8.988c0,0.553,0.447,1,1,1s1-0.447,1-1V28.01H47.496z"/>
	</g>
</g>
</svg>
