<?xml version="1.0" encoding="utf-8"?>
<!-- Generator: Adobe Illustrator 16.0.0, SVG Export Plug-In . SVG Version: 6.00 Build 0)  -->
<!DOCTYPE svg PUBLIC "-//W3C//DTD SVG 1.1//EN" "http://www.w3.org/Graphics/SVG/1.1/DTD/svg11.dtd">
<svg version="1.1" id="icons" xmlns="http://www.w3.org/2000/svg" xmlns:xlink="http://www.w3.org/1999/xlink" x="0px" y="0px"
	 width="64px" height="64px" viewBox="0 0 64 64" enable-background="new 0 0 64 64" xml:space="preserve">
<g>
	<g>
		<path fill="#4A89DC" d="M44.01,35.033c-0.553,0-1-0.447-1-1V20.004c0-0.553,0.447-1,1-1s1,0.447,1,1v14.029
			C45.01,34.586,44.563,35.033,44.01,35.033z"/>
	</g>
	<g>
		<path fill="#5D9CEC" d="M15.012,58.99C6.734,58.99,0,52.256,0,43.979c0-0.553,0.447-1,1-1s1,0.447,1,1
			C2,51.153,7.837,56.99,15.012,56.99c0.553,0,1,0.447,1,1S15.564,58.99,15.012,58.99z"/>
	</g>
	<g>
		<path fill="#5D9CEC" d="M1,44.979c-0.553,0-1-0.447-1-1V20.004c0-0.553,0.447-1,1-1s1,0.447,1,1v23.975
			C2,44.531,1.553,44.979,1,44.979z"/>
	</g>
	<g>
		<path fill="#4A89DC" d="M29.994,15c2.77,0,5.01,2.24,5.01,5c0,2.77-2.24,5.01-5.01,5.01V25h-14.98v0.01
			c-2.77,0-5.01-2.24-5.01-5.01c0-2.59,1.971-4.72,4.5-4.97h0.51h14.98V15z M32.004,20c0-1.1-0.899-2-2-2l-0.01,0.04h-14.98h-0.409
			c-0.91,0.19-1.601,1-1.601,1.96c0,1.11,0.9,2,2,2l0.01-0.01h14.98l0.01,0.01C31.104,22,32.004,21.11,32.004,20z"/>
	</g>
	<g>
		<path fill="#4A89DC" d="M30.004,18c1.101,0,2,0.9,2,2c0,1.11-0.899,2-2,2l-0.01-0.01h-14.98L15.004,22c-1.1,0-2-0.89-2-2
			c0-0.96,0.69-1.77,1.601-1.96h0.409h14.98L30.004,18z"/>
	</g>
	<g>
		<path fill="#4A89DC" d="M44.014,20v14.02h-14.02C37.734,34.02,44.014,27.74,44.014,20z"/>
	</g>
	<g>
		<path fill="#4A89DC" d="M29.994,12.02V12c4.42,0,8.01,3.58,8.01,8c0,4.43-3.59,8.01-8.01,8.01h-14.98c-4.42,0-8.01-3.58-8.01-8.01
			c0-4.28,3.37-7.78,7.601-7.99l0.409,0.01H29.994z M29.994,25.01c2.77,0,5.01-2.24,5.01-5.01c0-2.76-2.24-5-5.01-5v0.03h-14.98
			h-0.51c-2.529,0.25-4.5,2.38-4.5,4.97c0,2.77,2.24,5.01,5.01,5.01V25h14.98V25.01z"/>
	</g>
	<g>
		<path fill="#4A89DC" d="M1.004,20c0-7.73,6.271-14.01,14.01-14.01h14.98c7.74,0,14.02,6.279,14.02,14.01
			c0,7.74-6.279,14.02-14.02,14.02V33.99h-14.98v0.029c-0.01,0-0.02,0-0.029,0C7.254,34,1.004,27.73,1.004,20z M14.444,9
			c-5.811,0.3-10.44,5.11-10.44,11c0,6.08,4.931,11.01,11.01,11.01v0.01h14.98v-0.01c6.08,0,11.01-4.93,11.01-11.01
			s-4.93-11.01-11.01-11.01V9h-14.98H14.444z"/>
	</g>
	<g>
		<path fill="#4A89DC" d="M14.604,12.01c-4.23,0.21-7.601,3.71-7.601,7.99c0,4.43,3.59,8.01,8.01,8.01h14.98
			c4.42,0,8.01-3.58,8.01-8.01c0-4.42-3.59-8-8.01-8v0.02h-14.98L14.604,12.01z M4.004,20c0-5.89,4.63-10.7,10.44-11h0.569h14.98
			V8.99c6.08,0,11.01,4.93,11.01,11.01s-4.93,11.01-11.01,11.01v0.01h-14.98v-0.01C8.935,31.01,4.004,26.08,4.004,20z"/>
	</g>
	<g>
		<path fill="#E6E9ED" d="M36.984,42c2.21,0,4,1.79,4,4s-1.79,4-4,4v-0.01h-10.99V50c-2.21,0-4-1.79-4-4s1.79-4,4-4H36.984z"/>
	</g>
	<g>
		<path fill="#545C66" d="M61.984,42.04c0.55,0,1,0.45,1,1V49c0,0.55-0.45,1-1,1h-13c-0.55,0-1-0.45-1-1v-5.96c0-0.55,0.45-1,1-1
			H61.984z"/>
	</g>
	<g>
		<path fill="#5D9CEC" d="M14.984,34.02V57.99c-7.73-0.021-13.98-6.28-13.98-14.01V20C1.004,27.73,7.254,34,14.984,34.02z"/>
	</g>
	<g>
		<path fill="#656D78" d="M44.014,34.02h3.971v0.011v8.01V50v8.01h-17.99h-14.98v-0.02c-0.01,0-0.02,0-0.029,0V34.02
			c0.01,0,0.02,0,0.029,0V33.99h14.98v0.029H44.014z M40.984,46c0-2.21-1.79-4-4-4h-10.99c-2.21,0-4,1.79-4,4s1.79,4,4,4v-0.01
			h10.99V50C39.194,50,40.984,48.21,40.984,46z"/>
	</g>
	<g>
		<g>
			<path fill="#5D9CEC" d="M15.008,23.004c-1.654,0-3-1.346-3-3s1.346-3,3-3c0.553,0,1,0.447,1,1s-0.447,1-1,1c-0.552,0-1,0.448-1,1
				s0.448,1,1,1c0.553,0,1,0.447,1,1S15.561,23.004,15.008,23.004z"/>
		</g>
		<g>
			<path fill="#5D9CEC" d="M15.01,26.008c-3.311,0-6.004-2.693-6.004-6.004S11.699,14,15.01,14c0.553,0,1,0.447,1,1s-0.447,1-1,1
				c-2.208,0-4.004,1.796-4.004,4.004s1.796,4.004,4.004,4.004c0.553,0,1,0.447,1,1S15.563,26.008,15.01,26.008z"/>
		</g>
		<g>
			<path fill="#5D9CEC" d="M15.01,29.01c-4.966,0-9.006-4.04-9.006-9.006s4.04-9.006,9.006-9.006c0.553,0,1,0.447,1,1s-0.447,1-1,1
				c-3.863,0-7.006,3.143-7.006,7.006s3.143,7.006,7.006,7.006c0.553,0,1,0.447,1,1S15.563,29.01,15.01,29.01z"/>
		</g>
		<g>
			<path fill="#5D9CEC" d="M15.012,32.014C8.389,32.014,3,26.626,3,20.004C3,13.381,8.389,7.992,15.012,7.992c0.553,0,1,0.447,1,1
				s-0.447,1-1,1C9.491,9.992,5,14.483,5,20.004c0,5.52,4.491,10.01,10.012,10.01c0.553,0,1,0.447,1,1S15.564,32.014,15.012,32.014z
				"/>
		</g>
		<g>
			<path fill="#5D9CEC" d="M15.012,35.016C6.734,35.016,0,28.281,0,20.004S6.734,4.992,15.012,4.992c0.553,0,1,0.447,1,1
				s-0.447,1-1,1C7.837,6.992,2,12.829,2,20.004s5.837,13.012,13.012,13.012c0.553,0,1,0.447,1,1S15.564,35.016,15.012,35.016z"/>
		</g>
		<g>
			<path fill="#5D9CEC" d="M30,23.004c-0.553,0-1-0.447-1-1s0.447-1,1-1c0.552,0,1-0.448,1-1s-0.448-1-1-1c-0.553,0-1-0.447-1-1
				s0.447-1,1-1c1.654,0,3,1.346,3,3S31.654,23.004,30,23.004z"/>
		</g>
		<g>
			<path fill="#5D9CEC" d="M29.998,26.008c-0.553,0-1-0.447-1-1s0.447-1,1-1c2.208,0,4.004-1.796,4.004-4.004S32.206,16,29.998,16
				c-0.553,0-1-0.447-1-1s0.447-1,1-1c3.311,0,6.004,2.693,6.004,6.004S33.309,26.008,29.998,26.008z"/>
		</g>
		<g>
			<path fill="#5D9CEC" d="M29.998,29.01c-0.553,0-1-0.447-1-1s0.447-1,1-1c3.863,0,7.006-3.143,7.006-7.006
				s-3.143-7.006-7.006-7.006c-0.553,0-1-0.447-1-1s0.447-1,1-1c4.966,0,9.006,4.04,9.006,9.006S34.964,29.01,29.998,29.01z"/>
		</g>
		<g>
			<path fill="#5D9CEC" d="M29.998,32.014c-0.553,0-1-0.447-1-1s0.447-1,1-1c5.52,0,10.01-4.49,10.01-10.01
				c0-5.521-4.49-10.012-10.01-10.012c-0.553,0-1-0.447-1-1s0.447-1,1-1c6.622,0,12.01,5.389,12.01,12.012
				C42.008,26.626,36.62,32.014,29.998,32.014z"/>
		</g>
		<g>
			<path fill="#5D9CEC" d="M29.998,35.016c-0.553,0-1-0.447-1-1s0.447-1,1-1c7.175,0,13.012-5.837,13.012-13.012
				S37.173,6.992,29.998,6.992c-0.553,0-1-0.447-1-1s0.447-1,1-1c8.277,0,15.012,6.734,15.012,15.012S38.275,35.016,29.998,35.016z"
				/>
		</g>
		<g>
			<path fill="#5D9CEC" d="M29.998,6.992H15.012c-0.553,0-1-0.447-1-1s0.447-1,1-1h14.986c0.553,0,1,0.447,1,1
				S30.551,6.992,29.998,6.992z"/>
		</g>
		<g>
			<path fill="#5D9CEC" d="M29.998,10.004H15.012c-0.553,0-1-0.447-1-1s0.447-1,1-1h14.986c0.553,0,1,0.447,1,1
				S30.551,10.004,29.998,10.004z"/>
		</g>
		<g>
			<path fill="#5D9CEC" d="M29.998,13.016H15.012c-0.553,0-1-0.447-1-1s0.447-1,1-1h14.986c0.553,0,1,0.447,1,1
				S30.551,13.016,29.998,13.016z"/>
		</g>
		<g>
			<path fill="#5D9CEC" d="M29.998,16.027H15.012c-0.553,0-1-0.447-1-1s0.447-1,1-1h14.986c0.553,0,1,0.447,1,1
				S30.551,16.027,29.998,16.027z"/>
		</g>
		<g>
			<path fill="#5D9CEC" d="M29.998,19.039H15.012c-0.553,0-1-0.447-1-1s0.447-1,1-1h14.986c0.553,0,1,0.447,1,1
				S30.551,19.039,29.998,19.039z"/>
		</g>
		<g>
			<path fill="#5D9CEC" d="M29.998,22.986H15.012c-0.553,0-1-0.447-1-1s0.447-1,1-1h14.986c0.553,0,1,0.447,1,1
				S30.551,22.986,29.998,22.986z"/>
		</g>
		<g>
			<path fill="#5D9CEC" d="M29.998,25.998H15.012c-0.553,0-1-0.447-1-1s0.447-1,1-1h14.986c0.553,0,1,0.447,1,1
				S30.551,25.998,29.998,25.998z"/>
		</g>
		<g>
			<path fill="#5D9CEC" d="M29.998,29.01H15.012c-0.553,0-1-0.447-1-1s0.447-1,1-1h14.986c0.553,0,1,0.447,1,1
				S30.551,29.01,29.998,29.01z"/>
		</g>
		<g>
			<path fill="#5D9CEC" d="M29.998,32.021H15.012c-0.553,0-1-0.447-1-1s0.447-1,1-1h14.986c0.553,0,1,0.447,1,1
				S30.551,32.021,29.998,32.021z"/>
		</g>
		<g>
			<path fill="#5D9CEC" d="M29.998,34.992H15.012c-0.553,0-1-0.447-1-1s0.447-1,1-1h14.986c0.553,0,1,0.447,1,1
				S30.551,34.992,29.998,34.992z"/>
		</g>
	</g>
	<g>
		<path fill="#656D78" d="M29.998,59.008H15.012c-0.553,0-1-0.447-1-1s0.447-1,1-1h14.986c0.553,0,1,0.447,1,1
			S30.551,59.008,29.998,59.008z"/>
	</g>
	<g>
		<path fill="#656D78" d="M47.985,59.008H29.998c-0.553,0-1-0.447-1-1s0.447-1,1-1h17.987c0.553,0,1,0.447,1,1
			S48.538,59.008,47.985,59.008z"/>
	</g>
	<g>
		<path fill="#656D78" d="M47.985,59.008c-0.553,0-1-0.447-1-1V34.033c0-0.553,0.447-1,1-1s1,0.447,1,1v23.975
			C48.985,58.561,48.538,59.008,47.985,59.008z"/>
	</g>
	<g>
		<path fill="#656D78" d="M14.988,58.99c-0.553,0-1-0.447-1-1V34.016c0-0.553,0.447-1,1-1s1,0.447,1,1V57.99
			C15.988,58.543,15.541,58.99,14.988,58.99z"/>
	</g>
	<g>
		<path fill="#656D78" d="M47.985,35.016H14.983c-0.553,0-1-0.447-1-1s0.447-1,1-1h33.002c0.553,0,1,0.447,1,1
			S48.538,35.016,47.985,35.016z"/>
	</g>
	<g>
		<path fill="#CCD1D9" d="M36.985,47.004H25.99c-0.553,0-1-0.447-1-1s0.447-1,1-1h10.995c0.553,0,1,0.447,1,1
			S37.538,47.004,36.985,47.004z"/>
	</g>
</g>
</svg>
