<?xml version="1.0" encoding="utf-8"?>
<!-- Generator: Adobe Illustrator 16.0.0, SVG Export Plug-In . SVG Version: 6.00 Build 0)  -->
<!DOCTYPE svg PUBLIC "-//W3C//DTD SVG 1.1//EN" "http://www.w3.org/Graphics/SVG/1.1/DTD/svg11.dtd">
<svg version="1.1" id="icons" xmlns="http://www.w3.org/2000/svg" xmlns:xlink="http://www.w3.org/1999/xlink" x="0px" y="0px"
	 width="64px" height="64px" viewBox="0 0 64 64" enable-background="new 0 0 64 64" xml:space="preserve">
<g>
	<g>
		<path fill="#656D78" d="M34.99,10.001c-0.553,0-1-0.447-1-1v-6c0-0.553,0.447-1,1-1s1,0.447,1,1v6
			C35.99,9.554,35.543,10.001,34.99,10.001z"/>
	</g>
	<g>
		<path fill="#656D78" d="M59,58c0.55,0,1,0.45,1,1v3c0,0.55-0.45,1-1,1H15c-0.55,0-1-0.45-1-1v-3c0-0.55,0.45-1,1-1l0,0
			c0.55,0,1.45,0,2,0h40C57.55,58,58.45,58,59,58L59,58z"/>
	</g>
	<g>
		<path fill="#CCD1D9" d="M63,29c0,10.92-6.25,20.38-15.38,25H35c13.81,0,25-11.19,25-25C60,15.2,48.81,4,35,4h-0.01h-8.98V1H35
			C50.46,1,63,13.54,63,29z"/>
	</g>
	<g>
		<path fill="#E6E9ED" d="M58,58H16c0-2.21,1.79-4,4.01-4H35h12.62h6.37C56.21,54,58,55.79,58,58z"/>
	</g>
	<g>
		<path fill="#F6BB42" d="M34.99,20c4.97,0,9,4.04,9,9s-4.03,9-9,9c-4.96,0-9-4.04-9-9S30.03,20,34.99,20z"/>
	</g>
	<g>
		<path fill="#FFCE54" d="M34.99,8c11.6,0,21,9.4,21,21s-9.4,21-21,21c-11.601,0-21-9.4-21-21S23.39,8,34.99,8z M43.99,29
			c0-4.96-4.03-9-9-9c-4.96,0-9,4.04-9,9s4.04,9,9,9C39.96,38,43.99,33.96,43.99,29z"/>
	</g>
	<g>
		<path fill="#545C66" d="M7,15.009c0.55,0,1,0.45,1,1v30c0,0.55-0.45,1-1,1H6c-0.55,0-1-0.45-1-1v-30c0-0.55,0.45-1,1-1H7z"/>
	</g>
	<g>
		<path fill="#656D78" d="M12,12.01v2c0,1.101-0.9,2-2,2H8H5H3c-1.1,0-2-0.899-2-2v-2c0-1.1,0.9-2,2-2h7
			C11.1,10.01,12,10.91,12,12.01z"/>
	</g>
	<g>
		<path fill="#CCD1D9" d="M26.012,4c-0.553,0-1-0.447-1-1V2.002c0-0.553,0.447-1,1-1s1,0.447,1,1V3C27.012,3.553,26.564,4,26.012,4z
			"/>
	</g>
</g>
</svg>
