<?xml version="1.0" encoding="utf-8"?>
<!-- Generator: Adobe Illustrator 16.0.0, SVG Export Plug-In . SVG Version: 6.00 Build 0)  -->
<!DOCTYPE svg PUBLIC "-//W3C//DTD SVG 1.1//EN" "http://www.w3.org/Graphics/SVG/1.1/DTD/svg11.dtd">
<svg version="1.1" id="icons" xmlns="http://www.w3.org/2000/svg" xmlns:xlink="http://www.w3.org/1999/xlink" x="0px" y="0px"
	 width="64px" height="64px" viewBox="0 0 64 64" enable-background="new 0 0 64 64" xml:space="preserve">
<g>
	<path fill="#8CC152" d="M47.01,39.007c0,0.55-0.449,1-1,1h-44c-0.549,0-1-0.45-1-1V18.018c0-0.55,0.451-1,1-1h44
		c0.551,0,1,0.45,1,1V39.007z"/>
	<path fill="#A0D468" d="M47.01,38.007c0,0.55-0.449,1-1,1h-44c-0.549,0-1-0.45-1-1V17.018c0-0.55,0.451-1,1-1h44
		c0.551,0,1,0.45,1,1V38.007z"/>
	<path fill="#8CC152" d="M47.01,37.005c0,0.55-0.449,1-1,1h-44c-0.549,0-1-0.45-1-1V16.016c0-0.55,0.451-1,1-1h44
		c0.551,0,1,0.45,1,1V37.005z"/>
	<path fill="#A0D468" d="M47.01,36.005c0,0.55-0.449,1-1,1h-44c-0.549,0-1-0.45-1-1V15.016c0-0.55,0.451-1,1-1h44
		c0.551,0,1,0.45,1,1V36.005z"/>
	<path fill="#8CC152" d="M47.01,35.005c0,0.55-0.449,1-1,1h-44c-0.549,0-1-0.45-1-1V14.016c0-0.55,0.451-1,1-1h44
		c0.551,0,1,0.45,1,1V35.005z"/>
	<path fill="#A0D468" d="M47.01,34.008c0,0.55-0.449,1-1,1h-44c-0.549,0-1-0.45-1-1V13.019c0-0.55,0.451-1,1-1h44
		c0.551,0,1,0.45,1,1V34.008z"/>
	<path fill="#8CC152" d="M47.01,33.008c0,0.55-0.449,1-1,1h-44c-0.549,0-1-0.45-1-1V12.019c0-0.55,0.451-1,1-1h44
		c0.551,0,1,0.45,1,1V33.008z"/>
	<path fill="#A0D468" d="M47.01,32.005c0,0.55-0.449,1-1,1h-44c-0.549,0-1-0.45-1-1V11.016c0-0.55,0.451-1,1-1h44
		c0.551,0,1,0.45,1,1V32.005z"/>
	<path fill="#8CC152" d="M47.01,31c0,0.55-0.449,1-1,1h-44c-0.549,0-1-0.45-1-1V10.011c0-0.55,0.451-1,1-1h44c0.551,0,1,0.45,1,1V31
		z"/>
	<path fill="#A0D468" d="M47.01,29.984c0,0.55-0.449,1-1,1h-44c-0.549,0-1-0.45-1-1V8.995c0-0.55,0.451-1,1-1h44c0.551,0,1,0.45,1,1
		V29.984z"/>
	<g>
		<path fill="#8CC152" d="M20,26.375l0.01,0.01c-0.41,0.46-0.711,1-0.859,1.6H6.01c0-1.1-0.9-2-2-2V12.995c1.1,0,2-0.9,2-2H20
			V26.375z"/>
	</g>
	<g>
		<path fill="#8CC152" d="M28,10.995h13.994c0,1.1,0.9,2,2,2v12.989c-1.1,0-2,0.9-2,2H28.006L28,10.995z"/>
	</g>
	<g>
		<path fill="#E6E9ED" d="M28,10.995v13.97v0.04h-4.99c-1.199,0-2.279,0.54-3,1.38L20,26.375v-15.38v-3h8V10.995z"/>
	</g>
	<g>
		<path fill="#3679CE" d="M33.998,47.993c0-0.55-0.449-1-1-1H23.01c-0.551,0-1,0.45-1,1v7.012c0,0.55,0.449,1,1,1h9.988
			c0.551,0,1-0.45,1-1V47.993z"/>
		<g>
			<path fill="#4A89DC" d="M27.998,48.995H22.01c-2.201,0-4-1.801-4-4v-1V30.984v-1.979c0,4.42,3.578,8,8,8h3.988
				c4.291,0,7.791-3.36,8-7.59v15.58c0,2.199-1.789,4-4,4H27.998z"/>
		</g>
		<path fill="#656D78" d="M22.01,52.005v3c0,0.55,0.449,1,1,1h6.988v-4H22.01z"/>
		<g>
			<path fill="#3679CE" d="M18.01,30.984v13.011c-2.211,0-3.99-1.78-3.99-3.99h-0.01v-0.021v-3v-3v-0.979c0-1.101,0.898-2,2-2
				v-0.021H18.01z"/>
		</g>
		<g>
			<path fill="#5D9CEC" d="M37.998,29.005v0.41c-0.209,4.229-3.709,7.59-8,7.59H26.01c-4.422,0-8-3.58-8-8
				c0-0.351,0.049-0.69,0.139-1.021c0.15-0.6,0.451-1.14,0.861-1.6c0.719-0.84,1.799-1.38,3-1.38h4.988h7
				C36.209,25.005,37.998,26.805,37.998,29.005z"/>
		</g>
		<path fill="#5D9CEC" d="M28.008,42.005c-0.553,0-1,0.447-1,1v5.993h2v-5.993C29.008,42.452,28.561,42.005,28.008,42.005z"/>
	</g>
	<g>
		<path fill="#3679CE" d="M43,47.993c0-0.55,0.451-1,1-1h9.99c0.549,0,1,0.45,1,1v7.012c0,0.55-0.451,1-1,1H44c-0.549,0-1-0.45-1-1
			V47.993z"/>
		<g>
			<path fill="#4A89DC" d="M49,48.995h5.99c2.199,0,4-1.801,4-4v-1V30.984v-1.979c0,4.42-3.58,8-8,8H47c-4.289,0-7.789-3.36-8-7.59
				v15.58c0,2.199,1.791,4,4,4H49z"/>
		</g>
		<path fill="#656D78" d="M54.99,52.005v3c0,0.55-0.451,1-1,1H47v-4H54.99z"/>
		<g>
			<path fill="#3679CE" d="M58.99,30.984v13.011c2.211,0,3.99-1.78,3.99-3.99h0.01v-0.021v-3v-3v-0.979c0-1.101-0.9-2-2-2v-0.021
				H58.99z"/>
		</g>
		<g>
			<path fill="#5D9CEC" d="M39,29.005v0.41c0.211,4.229,3.711,7.59,8,7.59h3.99c4.42,0,8-3.58,8-8c0-0.351-0.051-0.69-0.141-1.021
				c-0.148-0.6-0.449-1.14-0.859-1.6c-0.721-0.84-1.801-1.38-3-1.38H50h-7C40.791,25.005,39,26.805,39,29.005z"/>
		</g>
		<path fill="#5D9CEC" d="M48.992,42.005c0.553,0,1,0.447,1,1v5.993h-2v-5.993C47.992,42.452,48.439,42.005,48.992,42.005z"/>
	</g>
</g>
</svg>
