<?xml version="1.0" encoding="utf-8"?>
<!-- Generator: Adobe Illustrator 16.0.0, SVG Export Plug-In . SVG Version: 6.00 Build 0)  -->
<!DOCTYPE svg PUBLIC "-//W3C//DTD SVG 1.1//EN" "http://www.w3.org/Graphics/SVG/1.1/DTD/svg11.dtd">
<svg version="1.1" id="icons" xmlns="http://www.w3.org/2000/svg" xmlns:xlink="http://www.w3.org/1999/xlink" x="0px" y="0px"
	 width="64px" height="64px" viewBox="0 0 64 64" enable-background="new 0 0 64 64" xml:space="preserve">
<g>
	<path fill="#A0D468" d="M58.995,62c0,0.55-0.45,1-1,1h-15.99c-0.55,0-1-0.45-1-1V36.01c0-0.55,0.45-1,1-1h15.99c0.55,0,1,0.45,1,1
		V62z"/>
	<path fill="#8CC152" d="M58.995,61c0,0.55-0.45,1-1,1h-15.99c-0.55,0-1-0.45-1-1V35.01c0-0.55,0.45-1,1-1h15.99c0.55,0,1,0.45,1,1
		V61z"/>
	<path fill="#A0D468" d="M58.995,60c0,0.55-0.45,1-1,1h-15.99c-0.55,0-1-0.45-1-1V34.01c0-0.55,0.45-1,1-1h15.99c0.55,0,1,0.45,1,1
		V60z"/>
	<path fill="#8CC152" d="M58.995,59c0,0.55-0.45,1-1,1h-15.99c-0.55,0-1-0.45-1-1V33.01c0-0.55,0.45-1,1-1h15.99c0.55,0,1,0.45,1,1
		V59z"/>
	<path fill="#A0D468" d="M58.995,58c0,0.55-0.45,1-1,1h-15.99c-0.55,0-1-0.45-1-1V32.01c0-0.55,0.45-1,1-1h15.99c0.55,0,1,0.45,1,1
		V58z"/>
	<path fill="#8CC152" d="M58.995,57c0,0.55-0.45,1-1,1h-15.99c-0.55,0-1-0.45-1-1V31.01c0-0.55,0.45-1,1-1h15.99c0.55,0,1,0.45,1,1
		V57z"/>
	<path fill="#A0D468" d="M58.995,56c0,0.55-0.45,1-1,1h-15.99c-0.55,0-1-0.45-1-1V30.01c0-0.55,0.45-1,1-1h15.99c0.55,0,1,0.45,1,1
		V56z"/>
	<path fill="#D3374E" d="M13.005,34c0,0.55,0.45,1,1,1h10c0.55,0,1-0.45,1-1v-8.012c0-0.55-0.45-1-1-1h-10c-0.55,0-1,0.45-1,1V34z"
		/>
	<g>
		<path fill="#8CC152" d="M50.005,39.01c2.201,0,4,1.79,4,3.99c0,2.21-1.799,4-4,4c-2.209,0-4-1.79-4-4
			C46.005,40.8,47.796,39.01,50.005,39.01z"/>
	</g>
	<path fill="#8CC152" d="M41.005,54v2c0,0.55,0.45,1,1,1h2C44.005,55.34,42.655,54,41.005,54z"/>
	<path fill="#8CC152" d="M56.005,57h1.99c0.55,0,1-0.45,1-1v-2C57.335,54.01,56.005,55.34,56.005,57z"/>
	<path fill="#8CC152" d="M43.995,29.01h-1.99c-0.55,0-1,0.45-1,1V32C42.655,32,43.995,30.66,43.995,29.01z"/>
	<g>
		<path fill="#D3374E" d="M9.005,7v14.99c-2.199,0-3.99-1.78-3.99-3.99h-0.01V9c0-1.1,0.9-2,2-2H9.005z"/>
	</g>
	<g>
		<path fill="#DA4453" d="M19.005,26.99h-6c-2.199,0-4-1.8-4-4v-1V7V5c0,4.42,3.58,8,8,8h4c4.42,0,8-3.58,8-8v17.99
			c0,2.2-1.799,4-4,4H19.005z"/>
	</g>
	<path fill="#656D78" d="M13.005,30v4c0,0.55,0.45,1,1,1h7v-5H13.005z"/>
	<g>
		<path fill="#ED5565" d="M25.005,1c2.201,0,4,1.8,4,4c0,4.42-3.58,8-8,8h-4c-4.42,0-8-3.58-8-8c0-2.2,1.801-4,4-4H25.005z"/>
	</g>
	<path fill="#8CC152" d="M58.995,31.999V30.01c0-0.55-0.45-1-1-1h-1.994C56.011,30.668,57.338,31.996,58.995,31.999z"/>
	<g>
		<path fill="#656D78" d="M18.989,51.984c-0.553,0-1-0.447-1-1v-12c0-0.553,0.447-1,1-1s1,0.447,1,1v12
			C19.989,51.537,19.542,51.984,18.989,51.984z"/>
	</g>
	<g>
		<path fill="#656D78" d="M36.985,51.984H18.989c-0.553,0-1-0.447-1-1s0.447-1,1-1h17.996c0.553,0,1,0.447,1,1
			S37.538,51.984,36.985,51.984z"/>
	</g>
	<g>
		<path fill="#656D78" d="M33.985,54.984c-0.256,0-0.512-0.098-0.707-0.293c-0.391-0.391-0.391-1.023,0-1.414l3-3
			c0.391-0.391,1.023-0.391,1.414,0s0.391,1.023,0,1.414l-3,3C34.497,54.887,34.241,54.984,33.985,54.984z"/>
	</g>
	<g>
		<path fill="#656D78" d="M36.985,51.984c-0.256,0-0.512-0.098-0.707-0.293l-3-3c-0.391-0.391-0.391-1.023,0-1.414
			s1.023-0.391,1.414,0l3,3c0.391,0.391,0.391,1.023,0,1.414C37.497,51.887,37.241,51.984,36.985,51.984z"/>
	</g>
	<g>
		<path fill="#656D78" d="M49.981,25.984c-0.553,0-1-0.447-1-1V13.986c0-0.553,0.447-1,1-1s1,0.447,1,1v10.998
			C50.981,25.537,50.534,25.984,49.981,25.984z"/>
	</g>
	<g>
		<path fill="#656D78" d="M49.981,14.986H32.985c-0.553,0-1-0.447-1-1s0.447-1,1-1h16.996c0.553,0,1,0.447,1,1
			S50.534,14.986,49.981,14.986z"/>
	</g>
	<g>
		<path fill="#656D78" d="M32.985,14.986c-0.256,0-0.512-0.098-0.707-0.293c-0.391-0.391-0.391-1.023,0-1.414l3-3
			c0.391-0.391,1.023-0.391,1.414,0s0.391,1.023,0,1.414l-3,3C33.497,14.889,33.241,14.986,32.985,14.986z"/>
	</g>
	<g>
		<path fill="#656D78" d="M35.985,17.986c-0.256,0-0.512-0.098-0.707-0.293l-3-3c-0.391-0.391-0.391-1.023,0-1.414
			s1.023-0.391,1.414,0l3,3c0.391,0.391,0.391,1.023,0,1.414C36.497,17.889,36.241,17.986,35.985,17.986z"/>
	</g>
	<path fill="#ED5565" d="M19.001,20c-0.553,0-1,0.447-1,1v5.994h2V21C20.001,20.447,19.554,20,19.001,20z"/>
</g>
</svg>
