<?xml version="1.0" encoding="utf-8"?>
<!-- Generator: Adobe Illustrator 16.0.0, SVG Export Plug-In . SVG Version: 6.00 Build 0)  -->
<!DOCTYPE svg PUBLIC "-//W3C//DTD SVG 1.1//EN" "http://www.w3.org/Graphics/SVG/1.1/DTD/svg11.dtd">
<svg version="1.1" id="icons" xmlns="http://www.w3.org/2000/svg" xmlns:xlink="http://www.w3.org/1999/xlink" x="0px" y="0px"
	 width="64px" height="64px" viewBox="0 0 64 64" enable-background="new 0 0 64 64" xml:space="preserve">
<g>
	<g>
		<path fill="#D3374E" d="M49.001,9.5c0.55,0,1,0.45,1,1v4c0,0.55-0.45,1-1,1H47c-0.55,0-1-0.45-1-1v-4c0-0.55,0.45-1,1-1H49.001z"
			/>
	</g>
	<g>
		<path fill="#3679CE" d="M17.002,9.5c0.55,0,1,0.45,1,1v4c0,0.55-0.45,1-1,1h-2.001c-0.55,0-1-0.45-1-1v-4c0-0.55,0.45-1,1-1
			H17.002z"/>
	</g>
	<circle fill="#545C66" cx="51.001" cy="40.504" r="12"/>
	<circle fill="#545C66" cx="12.999" cy="40.504" r="12"/>
	<g>
		<path fill="#D3374E" d="M38.501,4.5h3.5c1.66,0,3,1.34,3,3h-8V7.49V6C37.001,5.17,37.671,4.5,38.501,4.5z"/>
	</g>
	<g>
		<path fill="#3679CE" d="M27.001,6v1.5h-8c0-1.66,1.34-3,3-3h3.5C26.331,4.5,27.001,5.17,27.001,6z"/>
	</g>
	<g>
		<path fill="#4A89DC" d="M24.001,14.5c0,1.65,1.34,3,3,3h-8c-1.1,0-2-0.9-2-2v-6c0-1.1,0.9-2,2-2h8c-1.66,0-3,1.34-3,3V14.5z"/>
	</g>
	<g>
		<path fill="#ED5565" d="M40.001,10.5v4c0,1.65-1.34,3-3,3h-1c-1.1,0-2-0.9-2-2v-6c0-1.1,0.9-2,2-2h1
			C38.661,7.5,40.001,8.84,40.001,10.5z"/>
	</g>
	<g>
		<path fill="#DA4453" d="M37.001,7.5h8c1.1,0,2,0.9,2,2v6c0,1.1-0.9,2-2,2h-8c1.66,0,3-1.35,3-3v-4
			C40.001,8.84,38.661,7.5,37.001,7.5z"/>
	</g>
	<g>
		<path fill="#5D9CEC" d="M30.001,9.5v6c0,1.1-0.9,2-2,2h-1c-1.66,0-3-1.35-3-3v-4c0-1.66,1.34-3,3-3h1
			C29.101,7.5,30.001,8.4,30.001,9.5z"/>
	</g>
	<g>
		<path fill="#D3B1A9" d="M55.001,47.5c1.58,0,2.87,1.21,2.99,2.76c-1.971,1.41-4.38,2.24-6.99,2.24c-1.33,0-2.6-0.21-3.79-0.61
			c-1.16-0.38-2.229-0.93-3.2-1.63c0.12-1.55,1.41-2.76,2.99-2.76h2v-2.39l0.01-0.021c0.61,0.26,1.28,0.41,1.99,0.41
			s1.39-0.15,2-0.41v2.41H55.001z"/>
	</g>
	<g>
		<path fill="#545C66" d="M15.001,45.08c1.76-0.771,3-2.53,3-4.58v-2v-2.01c0-1.101-0.89-1.99-2-1.99v-2h-4c-2.21,0-4,1.79-4,4v2
			v1.99v0.01c0,2.05,1.24,3.82,3.01,4.59l-0.01,0.021v2.39h-2c-1.58,0-2.87,1.21-2.99,2.76c-3.029-2.18-5.01-5.74-5.01-9.76
			c0-6.62,5.37-12,12-12c1.33,0,2.6,0.21,3.79,0.61c4.77,1.59,8.21,6.09,8.21,11.39c0,4.02-1.98,7.58-5.01,9.76
			c-0.12-1.55-1.41-2.76-2.99-2.76h-2v-2.41V45.08z"/>
	</g>
	<g>
		<g>
			<path fill="#D3B1A9" d="M17.001,47.5c1.58,0,2.87,1.21,2.99,2.76c-0.971,0.7-2.04,1.25-3.2,1.63c-1.19,0.4-2.46,0.61-3.79,0.61
				c-2.61,0-5.02-0.83-6.99-2.24c0.12-1.55,1.41-2.76,2.99-2.76h2v-1.389l0.01-0.021c0.61,0.26,1.28,0.41,1.99,0.41
				s1.39-0.15,2-0.41V47.5H17.001z"/>
		</g>
		<g>
			<path fill="#965353" d="M18.001,39.501l-2-1.01c0,0-1,1.01-3,1.01s-3-1-3-1l-2,1v-2c0-2.21,1.79-4,4-4h4v2c1.11,0,2,0.89,2,1.99
				V39.501z"/>
		</g>
		<g>
			<path fill="#EAC6BB" d="M18.001,39.501v2c0,2.05-1.24,3.81-3,4.58v0.01c-0.61,0.26-1.29,0.41-2,0.41s-1.38-0.15-1.99-0.41
				c-1.77-0.77-3.01-2.54-3.01-4.59v-0.01v-1.99l2-1c0,0,1,1,3,1s3-1.01,3-1.01L18.001,39.501z"/>
		</g>
	</g>
	<g>
		<path fill="#E6E9ED" d="M39.001,40.5c0,4.02,1.98,7.58,5.01,9.76c0.971,0.7,2.04,1.25,3.2,1.63c-3.47,4.62-8.99,7.61-15.21,7.61
			s-11.74-2.99-15.21-7.61c1.16-0.38,2.229-0.93,3.2-1.63c3.029-2.18,5.01-5.74,5.01-9.76c0-5.3-3.44-9.8-8.21-11.39
			c3.47-4.62,8.99-7.61,15.21-7.61s11.74,2.99,15.21,7.61C42.441,30.7,39.001,35.2,39.001,40.5z"/>
	</g>
	<g>
		<g>
			<path fill="#656D78" d="M29.502,43.504c-0.404,0-0.786-0.247-0.937-0.648l-1.501-4.002c-0.193-0.518,0.068-1.094,0.585-1.288
				c0.519-0.19,1.095,0.067,1.288,0.585l1.501,4.002c0.193,0.518-0.068,1.094-0.585,1.288
				C29.737,43.483,29.619,43.504,29.502,43.504z"/>
		</g>
		<g>
			<path fill="#656D78" d="M29.502,43.504c-0.117,0-0.235-0.021-0.351-0.063c-0.518-0.194-0.779-0.771-0.586-1.287l1.5-4.002
				c0.193-0.52,0.774-0.777,1.287-0.586c0.518,0.194,0.779,0.771,0.586,1.287l-1.5,4.002C30.288,43.257,29.906,43.504,29.502,43.504
				z"/>
		</g>
		<g>
			<path fill="#656D78" d="M35.502,39.502h-2c-0.553,0-1-0.447-1-1s0.447-1,1-1h2c0.553,0,1,0.447,1,1S36.055,39.502,35.502,39.502z
				"/>
		</g>
		<g>
			<path fill="#656D78" d="M35.503,43.504c-0.367,0-0.721-0.202-0.896-0.553l-2-4.002c-0.247-0.494-0.047-1.095,0.447-1.342
				c0.495-0.245,1.096-0.047,1.342,0.447l2,4.002c0.247,0.494,0.047,1.095-0.447,1.342C35.806,43.47,35.653,43.504,35.503,43.504z"
				/>
		</g>
		<g>
			<path fill="#656D78" d="M35.502,43.504h-2c-0.553,0-1-0.447-1-1s0.447-1,1-1h2c0.553,0,1,0.447,1,1S36.055,43.504,35.502,43.504z
				"/>
		</g>
	</g>
	<g>
		<path fill="#CCD1D9" d="M38.002,30.484H26c-0.553,0-1-0.447-1-1s0.447-1,1-1h12.002c0.553,0,1,0.447,1,1
			S38.555,30.484,38.002,30.484z"/>
	</g>
	<g>
		<path fill="#CCD1D9" d="M34.001,33.484h-4c-0.553,0-1-0.447-1-1s0.447-1,1-1h4c0.553,0,1,0.447,1,1S34.554,33.484,34.001,33.484z"
			/>
	</g>
	<g>
		<path fill="#CCD1D9" d="M36.008,53.527h-1.999c-0.553,0-1-0.447-1-1s0.447-1,1-1h1.999c0.553,0,1,0.447,1,1
			S36.561,53.527,36.008,53.527z"/>
	</g>
	<g>
		<path fill="#CCD1D9" d="M39.011,50.518h-5.002c-0.553,0-1-0.447-1-1s0.447-1,1-1h5.002c0.553,0,1,0.447,1,1
			S39.563,50.518,39.011,50.518z"/>
	</g>
	<g>
		<path fill="#CCD1D9" d="M30.002,53.527h-1.999c-0.553,0-1-0.447-1-1s0.447-1,1-1h1.999c0.553,0,1,0.447,1,1
			S30.555,53.527,30.002,53.527z"/>
	</g>
	<g>
		<path fill="#CCD1D9" d="M30.002,50.518H25c-0.553,0-1-0.447-1-1s0.447-1,1-1h5.002c0.553,0,1,0.447,1,1
			S30.555,50.518,30.002,50.518z"/>
	</g>
	<g>
		<path fill="#EAC6BB" d="M56.001,39.501v2c0,2.05-1.24,3.81-3,4.58v0.01c-0.61,0.26-1.29,0.41-2,0.41s-1.38-0.15-1.99-0.41
			c-1.77-0.77-3.01-2.54-3.01-4.59v-0.01v-1.99l2-1c0,0,1,1,3,1s3-1.01,3-1.01L56.001,39.501z"/>
	</g>
	<g>
		<path fill="#656D78" d="M56.001,38.511v0.99l-2-1.01c0,0-1,1.01-3,1.01s-3-1-3-1l-2,1v-0.99c0-2.76,2.24-5,5-5
			S56.001,35.751,56.001,38.511z"/>
	</g>
</g>
</svg>
