<?xml version="1.0" encoding="utf-8"?>
<!-- Generator: Adobe Illustrator 16.0.0, SVG Export Plug-In . SVG Version: 6.00 Build 0)  -->
<!DOCTYPE svg PUBLIC "-//W3C//DTD SVG 1.1//EN" "http://www.w3.org/Graphics/SVG/1.1/DTD/svg11.dtd">
<svg version="1.1" id="icons" xmlns="http://www.w3.org/2000/svg" xmlns:xlink="http://www.w3.org/1999/xlink" x="0px" y="0px"
	 width="64px" height="64px" viewBox="0 0 64 64" enable-background="new 0 0 64 64" xml:space="preserve">
<g>
	<g>
		<path fill="#D3374E" d="M45.999,46.5c0.55,0,1,0.45,1,1v3c0,0.55-0.45,1-1,1h-2.001c-0.55,0-1-0.45-1-1v-3c0-0.55,0.45-1,1-1
			H45.999z"/>
	</g>
	<g>
		<path fill="#D3374E" d="M20.021,46.5c0.55,0,1,0.45,1,1v3c0,0.55-0.45,1-1,1H18.02c-0.55,0-1-0.45-1-1v-3c0-0.55,0.45-1,1-1
			H20.021z"/>
	</g>
	<g>
		<path fill="#545C66" d="M54,25.998h-3c-0.553,0-1-0.447-1-1s0.447-1,1-1h3c0.553,0,1,0.447,1,1S54.553,25.998,54,25.998z"/>
	</g>
	<g>
		<path fill="#545C66" d="M51,39.998c-0.553,0-1-0.447-1-1v-14c0-0.553,0.447-1,1-1s1,0.447,1,1v14
			C52,39.551,51.553,39.998,51,39.998z"/>
	</g>
	<g>
		<path fill="#545C66" d="M54,39.998h-3c-0.553,0-1-0.447-1-1s0.447-1,1-1h3c0.553,0,1,0.447,1,1S54.553,39.998,54,39.998z"/>
	</g>
	<g>
		<path fill="#545C66" d="M51,32.99h-3.002c-0.553,0-1-0.447-1-1s0.447-1,1-1H51c0.553,0,1,0.447,1,1S51.553,32.99,51,32.99z"/>
	</g>
	<g>
		<path fill="#545C66" d="M13,25.998h-3c-0.553,0-1-0.447-1-1s0.447-1,1-1h3c0.553,0,1,0.447,1,1S13.553,25.998,13,25.998z"/>
	</g>
	<g>
		<path fill="#545C66" d="M13,39.998c-0.553,0-1-0.447-1-1v-14c0-0.553,0.447-1,1-1s1,0.447,1,1v14
			C14,39.551,13.553,39.998,13,39.998z"/>
	</g>
	<g>
		<path fill="#545C66" d="M13,39.998h-3c-0.553,0-1-0.447-1-1s0.447-1,1-1h3c0.553,0,1,0.447,1,1S13.553,39.998,13,39.998z"/>
	</g>
	<g>
		<path fill="#545C66" d="M16.002,32.99H13c-0.553,0-1-0.447-1-1s0.447-1,1-1h3.002c0.553,0,1,0.447,1,1S16.555,32.99,16.002,32.99z
			"/>
	</g>
	<g>
		<path fill="#545C66" d="M38.998,32.99H25.002c-0.553,0-1-0.447-1-1s0.447-1,1-1h13.996c0.553,0,1,0.447,1,1
			S39.551,32.99,38.998,32.99z"/>
	</g>
	<g>
		<path fill="#545C66" d="M32,32.99c-0.553,0-1-0.447-1-1V22.5c0-0.553,0.447-1,1-1s1,0.447,1,1v9.49
			C33,32.543,32.553,32.99,32,32.99z"/>
	</g>
	<g>
		<path fill="#656D78" d="M5.5,20.5c2.48,0,4.5,2.01,4.5,4.5c0,1.56-0.8,2.94-2.01,3.74C7.85,27.48,6.79,26.5,5.5,26.5
			C6.33,26.5,7,25.83,7,25s-0.67-1.5-1.5-1.5S4,24.17,4,25s0.67,1.5,1.5,1.5c-1.29,0-2.36,0.98-2.49,2.24C1.8,27.94,1,26.56,1,25
			C1,22.51,3.02,20.5,5.5,20.5z"/>
	</g>
	<g>
		<path fill="#A0D468" d="M5.5,43.5c-0.92,0-1.78-0.28-2.49-0.76c0.13-1.26,1.2-2.24,2.49-2.24s2.35,0.98,2.49,2.24v0.01
			C7.28,43.22,6.42,43.5,5.5,43.5z"/>
	</g>
	<g>
		<path fill="#656D78" d="M5.5,34.5c2.48,0,4.5,2.01,4.5,4.5c0,1.56-0.8,2.94-2.01,3.74C7.85,41.48,6.79,40.5,5.5,40.5
			C6.33,40.5,7,39.83,7,39s-0.67-1.5-1.5-1.5S4,38.17,4,39s0.67,1.5,1.5,1.5c-1.29,0-2.36,0.98-2.49,2.24C1.8,41.94,1,40.56,1,39
			C1,36.51,3.02,34.5,5.5,34.5z"/>
	</g>
	<g>
		<path fill="#48CFAD" d="M5.5,29.5c-0.92,0-1.78-0.28-2.49-0.76c0.13-1.26,1.2-2.24,2.49-2.24s2.35,0.98,2.49,2.24v0.01
			C7.28,29.22,6.42,29.5,5.5,29.5z"/>
	</g>
	<g>
		<path fill="#656D78" d="M19,31.99c0,0.83,0.67,1.5,1.5,1.5c-1.29,0-2.36,0.979-2.48,2.24C16.8,34.93,16,33.55,16,31.99
			c0-2.48,2.02-4.5,4.5-4.5c2.49,0,4.5,2.02,4.5,4.5c0,1.56-0.8,2.939-2.01,3.75c-0.13-1.26-1.19-2.25-2.49-2.25
			c0.83,0,1.5-0.67,1.5-1.5s-0.67-1.5-1.5-1.5S19,31.16,19,31.99z"/>
	</g>
	<g>
		<path fill="#5D9CEC" d="M20.5,36.49c-0.92,0-1.77-0.28-2.48-0.76c0.12-1.261,1.19-2.24,2.48-2.24c1.3,0,2.36,0.99,2.49,2.25
			C22.28,36.21,21.42,36.49,20.5,36.49z"/>
	</g>
	<g>
		<path fill="#ED5565" d="M58.5,26.5c1.29,0,2.36,0.98,2.49,2.24c-0.71,0.479-1.57,0.76-2.49,0.76s-1.78-0.28-2.49-0.75v-0.01
			C56.15,27.48,57.21,26.5,58.5,26.5z"/>
	</g>
	<g>
		<path fill="#656D78" d="M57,25c0,0.83,0.67,1.5,1.5,1.5c-1.29,0-2.35,0.98-2.49,2.24C54.8,27.94,54,26.56,54,25
			c0-2.49,2.02-4.5,4.5-4.5S63,22.51,63,25c0,1.56-0.8,2.94-2.01,3.74c-0.13-1.26-1.2-2.24-2.49-2.24c0.83,0,1.5-0.67,1.5-1.5
			s-0.67-1.5-1.5-1.5S57,24.17,57,25z"/>
	</g>
	<g>
		<path fill="#AC92EC" d="M45.98,35.73c-0.711,0.479-1.561,0.76-2.48,0.76s-1.78-0.28-2.49-0.75c0.13-1.26,1.19-2.25,2.49-2.25
			C44.79,33.49,45.86,34.47,45.98,35.73z"/>
	</g>
	<g>
		<path fill="#656D78" d="M43.5,27.49c2.48,0,4.5,2.02,4.5,4.5c0,1.56-0.8,2.939-2.02,3.74c-0.12-1.261-1.19-2.24-2.48-2.24
			c0.83,0,1.5-0.67,1.5-1.5s-0.67-1.5-1.5-1.5s-1.5,0.67-1.5,1.5s0.67,1.5,1.5,1.5c-1.3,0-2.36,0.99-2.49,2.25
			C39.8,34.93,39,33.55,39,31.99C39,29.51,41.01,27.49,43.5,27.49z"/>
	</g>
	<g>
		<path fill="#FC6E51" d="M58.5,40.5c1.29,0,2.36,0.98,2.49,2.24c-0.71,0.479-1.57,0.76-2.49,0.76s-1.78-0.28-2.49-0.75v-0.01
			C56.15,41.48,57.21,40.5,58.5,40.5z"/>
	</g>
	<g>
		<path fill="#656D78" d="M57,39c0,0.83,0.67,1.5,1.5,1.5c-1.29,0-2.35,0.98-2.49,2.24C54.8,41.94,54,40.56,54,39
			c0-2.49,2.02-4.5,4.5-4.5S63,36.51,63,39c0,1.56-0.8,2.94-2.01,3.74c-0.13-1.26-1.2-2.24-2.49-2.24c0.83,0,1.5-0.67,1.5-1.5
			s-0.67-1.5-1.5-1.5S57,38.17,57,39z"/>
	</g>
	<g>
		<path fill="#D3374E" d="M38.999,41.5c1.66,0,3,1.34,3,3h-6V43c0-0.83,0.67-1.5,1.5-1.5H38.999z"/>
	</g>
	<g>
		<path fill="#ED5565" d="M38.999,47.5v3c0,1.66-1.34,3-3,3h-1c-1.1,0-2-0.9-2-2v-5c0-1.1,0.9-2,2-2h1
			C37.659,44.5,38.999,45.84,38.999,47.5z"/>
	</g>
	<g>
		<path fill="#DA4453" d="M35.999,44.5h6c1.1,0,2,0.9,2,2v5c0,1.1-0.9,2-2,2h-6c1.66,0,3-1.34,3-3v-3
			C38.999,45.84,37.659,44.5,35.999,44.5z"/>
	</g>
	<g>
		<path fill="#D3374E" d="M28.001,43v1.5h-6c0-1.66,1.34-3,3-3h1.5C27.331,41.5,28.001,42.17,28.001,43z"/>
	</g>
	<g>
		<path fill="#DA4453" d="M25.001,50.5c0,1.66,1.34,3,3,3h-6c-1.1,0-2-0.9-2-2v-5c0-1.1,0.9-2,2-2h6c-1.66,0-3,1.34-3,3V50.5z"/>
	</g>
	<g>
		<path fill="#ED5565" d="M31.001,46.5v5c0,1.1-0.9,2-2,2h-1c-1.66,0-3-1.34-3-3v-3c0-1.66,1.34-3,3-3h1
			C30.101,44.5,31.001,45.4,31.001,46.5z"/>
	</g>
	<g>
		<path fill="#F6BB42" d="M32,13.5c1.66,0,3,1.34,3,3c0,1.65-1.34,3-3,3c-1.65,0-3-1.35-3-3C29,14.84,30.35,13.5,32,13.5z"/>
	</g>
	<g>
		<path fill="#656D78" d="M32,10.5c7,0,7,3,12,3v6c-5,0-5,3-12,3c3.31,0,6-2.69,6-6S35.31,10.5,32,10.5z"/>
	</g>
	<g>
		<path fill="#FFCE54" d="M35,16.5c0-1.66-1.34-3-3-3c-1.65,0-3,1.34-3,3c0,1.65,1.35,3,3,3C33.66,19.5,35,18.15,35,16.5z M32,10.5
			c3.31,0,6,2.69,6,6s-2.69,6-6,6s-6-2.69-6-6S28.69,10.5,32,10.5z"/>
	</g>
	<g>
		<path fill="#656D78" d="M32,10.5c-3.31,0-6,2.69-6,6s2.69,6,6,6c-7,0-7-3-12-3v-6C25,13.5,25,10.5,32,10.5z"/>
	</g>
	<g>
		<circle fill="#EAC6BB" cx="5.5" cy="39" r="2"/>
	</g>
	<g>
		<circle fill="#EAC6BB" cx="5.5" cy="25" r="2"/>
	</g>
	<g>
		<circle fill="#EAC6BB" cx="20.5" cy="31.99" r="2"/>
	</g>
	<g>
		<circle fill="#EAC6BB" cx="58.5" cy="25" r="2"/>
	</g>
	<g>
		<circle fill="#EAC6BB" cx="43.5" cy="31.99" r="2"/>
	</g>
	<g>
		<circle fill="#EAC6BB" cx="58.5" cy="39" r="2"/>
	</g>
</g>
</svg>
