<?xml version="1.0" encoding="utf-8"?>
<!-- Generator: Adobe Illustrator 16.0.0, SVG Export Plug-In . SVG Version: 6.00 Build 0)  -->
<!DOCTYPE svg PUBLIC "-//W3C//DTD SVG 1.1//EN" "http://www.w3.org/Graphics/SVG/1.1/DTD/svg11.dtd">
<svg version="1.1" id="icons" xmlns="http://www.w3.org/2000/svg" xmlns:xlink="http://www.w3.org/1999/xlink" x="0px" y="0px"
	 width="64px" height="64px" viewBox="0 0 64 64" enable-background="new 0 0 64 64" xml:space="preserve">
<g>
	<g>
		<g>
			<path fill="#DA4453" d="M22.01,62.5c0-0.553,0.447-1,1-1h14c0.553,0,1,0.447,1,1s-0.447,1-1,1h-14
				C22.457,63.5,22.01,63.053,22.01,62.5z"/>
		</g>
		<g>
			<g>
				<polygon fill="#DA4453" points="26,43.51 26,62.5 22.01,62.5 22.01,45.48 22.01,43.5 26,43.5 				"/>
			</g>
			<g>
				<polygon fill="#656D78" points="22.01,43.5 22.01,45.48 17.009,45.48 16.01,44.479 16.01,42.5 22.01,42.5 				"/>
			</g>
			<g>
				<path fill="#DA4453" d="M25,15.51l7,13.45L26,40.5h-3.99v2h-6V21.51V21.5c0.01-3.31,2.681-5.98,5.99-5.99h0.01H23H25z"/>
			</g>
			<g>
				<polygon fill="#656D78" points="42.06,42.5 47.99,42.5 47.99,44.479 46.989,45.48 41.99,45.48 41.99,43.5 41.99,42.5 				"/>
			</g>
			<g>
				<path fill="#ED5565" d="M42.06,42.5H41.99v-2H26l6-11.54l7-13.45h2h0.99c3.319,0,5.99,2.67,6,5.99v0.01V42.5H42.06z"/>
			</g>
			<g>
				<path fill="#545C66" d="M44,11.5v1.01c0,1.65-1.34,2.99-3,2.99v0.01h-2H25h-2V15.5c-1.66,0-3-1.34-3-2.99V11.5l12-3L44,11.5z"/>
			</g>
			<g>
				<polygon fill="#ED5565" points="44,11.5 32,8.5 20,11.5 32,0.5 				"/>
			</g>
			<g>
				<polygon fill="#656D78" points="39,15.51 32,28.96 25,15.51 				"/>
			</g>
			<g>
				<polygon fill="#656D78" points="41.99,42.5 41.99,43.5 26,43.5 22.01,43.5 22.01,42.5 22.01,40.5 26,40.5 41.99,40.5 				"/>
			</g>
			<g>
				<polygon fill="#ED5565" points="41.99,45.48 41.99,62.5 26,62.5 26,43.51 26,43.5 41.99,43.5 				"/>
			</g>
		</g>
		<path fill="#D3374E" d="M22.005,45.48V26.498c0-0.553-0.447-1-1-1s-1,0.447-1,1V45.48H22.005z"/>
		<rect x="20.005" y="42.5" fill="#545C66" width="2.005" height="2.98"/>
		<path fill="#DA4453" d="M43.993,45.48V26.498c0-0.553-0.447-1-1-1s-1,0.447-1,1V45.48H43.993z"/>
		<rect x="41.993" y="42.5" fill="#545C66" width="2.005" height="2.98"/>
		<g>
			<path fill="#ED5565" d="M25.995,62.5c0-0.553,0.447-1,1-1h14c0.553,0,1,0.447,1,1s-0.447,1-1,1h-14
				C26.442,63.5,25.995,63.053,25.995,62.5z"/>
		</g>
	</g>
	<circle fill="#656D78" cx="17.01" cy="44.48" r="1"/>
	<circle fill="#656D78" cx="46.99" cy="44.48" r="1"/>
</g>
</svg>
