<?xml version="1.0" encoding="utf-8"?>
<!-- Generator: Adobe Illustrator 16.0.0, SVG Export Plug-In . SVG Version: 6.00 Build 0)  -->
<!DOCTYPE svg PUBLIC "-//W3C//DTD SVG 1.1//EN" "http://www.w3.org/Graphics/SVG/1.1/DTD/svg11.dtd">
<svg version="1.1" id="icons" xmlns="http://www.w3.org/2000/svg" xmlns:xlink="http://www.w3.org/1999/xlink" x="0px" y="0px"
	 width="64px" height="64px" viewBox="0 0 64 64" enable-background="new 0 0 64 64" xml:space="preserve">
<g>
	<g>
		<path fill="#656D78" d="M11,13v44.04c0,2.21-1.79,4-4,4c0-0.01,0-0.03,0-0.04V13H11z"/>
	</g>
	<g>
		<path fill="#ED5565" d="M53,57.04c0,2.21,1.79,4,4,4C56.98,62.12,56.09,63,55,63H34c-1.11,0-2-0.89-2-2c0,1.11-0.89,2-2,2H9
			c-1.09,0-1.98-0.88-2-1.96c2.21,0,4-1.79,4-4V13h42V57.04z"/>
	</g>
	<g>
		<path fill="#656D78" d="M57,13v48c0,0.01,0,0.03,0,0.04c-2.21,0-4-1.79-4-4V13H57z"/>
	</g>
	<g>
		<polygon fill="#656D78" points="39,7 39,10 25,10 25,7 25,4 39,4 		"/>
	</g>
	<g>
		<path fill="#E6E9ED" d="M57,3v4h-2.98h-3.01H48h-2.99h-3H39V4H25v3h-3h-3h-3h-3h-3H7V3c0-1.1,0.9-2,2-2h46C56.1,1,57,1.9,57,3z"/>
	</g>
	<g>
		<polygon fill="#E6E9ED" points="54.02,7 57,7 57,13 53,13 11,13 7,13 7,7 10,7 13,7 16,7 19,7 22,7 25,7 25,10 39,10 39,7 
			42.01,7 45.01,7 48,7 51.01,7 		"/>
	</g>
	<path fill="#DA4453" d="M32,43.998c-0.553,0-1,0.447-1,1v17.728c0.597-0.345,1-0.982,1-1.726c0,0.743,0.403,1.381,1,1.726V44.998
		C33,44.445,32.553,43.998,32,43.998z"/>
	<g>
		<path fill="#F5F7FA" d="M24.997,6.001h-1.995v-2c0-0.553-0.447-1-1-1s-1,0.447-1,1v2H20v-2c0-0.553-0.447-1-1-1s-1,0.447-1,1v2
			h-1.002v-2c0-0.553-0.447-1-1-1s-1,0.447-1,1v2h-1.001v-2c0-0.553-0.447-1-1-1s-1,0.447-1,1v2h-1.001v-2c0-0.553-0.447-1-1-1
			s-1,0.447-1,1v2H6.998v2h1.998v1.997c0,0.553,0.447,1,1,1s1-0.447,1-1V8.001h1.001v1.997c0,0.553,0.447,1,1,1s1-0.447,1-1V8.001
			h1.001v1.997c0,0.553,0.447,1,1,1s1-0.447,1-1V8.001H18v1.997c0,0.553,0.447,1,1,1s1-0.447,1-1V8.001h1.002v1.997
			c0,0.553,0.447,1,1,1s1-0.447,1-1V8.001h1.995c0.553,0,1-0.447,1-1S25.55,6.001,24.997,6.001z"/>
		<path fill="#F5F7FA" d="M55.016,6.001v-2c0-0.553-0.447-1-1-1s-1,0.447-1,1v2h-1.001v-2c0-0.553-0.447-1-1-1s-1,0.447-1,1v2H49v-2
			c0-0.553-0.447-1-1-1s-1,0.447-1,1v2h-0.989v-2c0-0.553-0.447-1-1-1s-1,0.447-1,1v2H43.01v-2c0-0.553-0.447-1-1-1s-1,0.447-1,1v2
			h-2.011c-0.553,0-1,0.447-1,1s0.447,1,1,1h2.011v1.997c0,0.553,0.447,1,1,1s1-0.447,1-1V8.001h1.001v1.997c0,0.553,0.447,1,1,1
			s1-0.447,1-1V8.001H47v1.997c0,0.553,0.447,1,1,1s1-0.447,1-1V8.001h1.015v1.997c0,0.553,0.447,1,1,1s1-0.447,1-1V8.001h1.001
			v1.997c0,0.553,0.447,1,1,1s1-0.447,1-1V8.001h1.986v-2H55.016z"/>
	</g>
	<g>
		<path fill="#656D78" d="M38.999,10.998H24.997c-0.553,0-1-0.447-1-1V4.001c0-0.553,0.447-1,1-1h14.002c0.553,0,1,0.447,1,1v5.997
			C39.999,10.551,39.552,10.998,38.999,10.998z M25.997,8.998h12.002V5.001H25.997V8.998z"/>
	</g>
</g>
</svg>
