<?xml version="1.0" encoding="utf-8"?>
<!-- Generator: Adobe Illustrator 16.0.0, SVG Export Plug-In . SVG Version: 6.00 Build 0)  -->
<!DOCTYPE svg PUBLIC "-//W3C//DTD SVG 1.1//EN" "http://www.w3.org/Graphics/SVG/1.1/DTD/svg11.dtd">
<svg version="1.1" id="icons" xmlns="http://www.w3.org/2000/svg" xmlns:xlink="http://www.w3.org/1999/xlink" x="0px" y="0px"
	 width="64px" height="64px" viewBox="0 0 64 64" enable-background="new 0 0 64 64" xml:space="preserve">
<g>
	<g>
		<path fill="#965353" d="M9.001,25.01c1.66,0,3,1.34,3,3c0,4.971,4.02,9,9,9l1-1h4l1,1c4.97,0,9-4.029,9-9c0-1.66,1.34-3,3-3V27
			c0,5.76-3.25,10.75-8.01,13.26c-2.09,1.11-4.471,1.73-6.99,1.73s-4.9-0.62-6.99-1.73c-4.77-2.5-8.01-7.5-8.01-13.26V25.01z"/>
	</g>
	<g>
		<path fill="#F5F7FA" d="M31.001,40.279V44.5l-5,2.5l-2-0.99l-2,0.99l-5-2.5v-4.221l0.01-0.02c2.09,1.11,4.471,1.73,6.99,1.73
			s4.9-0.62,6.99-1.73L31.001,40.279z"/>
	</g>
	<g>
		<path fill="#EAC6BB" d="M32.011,17c2.16,0.12,4.23,1.391,6.99,4.99v3.02c-1.66,0-3,1.34-3,3c0,4.971-4.03,9-9,9l-1-1h-4l-1,1
			c-4.98,0-9-4.029-9-9c0-1.66-1.34-3-3-3v-4.75C22.261,21.82,27.341,16.75,32.011,17z"/>
	</g>
	<g>
		<path fill="#844747" d="M36.001,28.01c0,2.813-1.292,5.322-3.313,6.973c-1.402,2.22-3.369,4.047-5.701,5.277
			c-1.527,0.811-3.21,1.357-4.988,1.594c0.324,0.044,0.65,0.077,0.98,0.1c0.005,0.001,0.009,0.002,0.014,0.002
			c0.333,0.023,0.669,0.035,1.008,0.035c2.52,0,4.9-0.62,6.99-1.73c4.76-2.51,8.01-7.5,8.01-13.26v-1.99
			C37.341,25.01,36.001,26.35,36.001,28.01z"/>
	</g>
	<g>
		<path fill="#D3B1A9" d="M38.1,20.874c-0.051-0.06-0.103-0.123-0.152-0.181c-0.249-0.289-0.49-0.549-0.729-0.799
			c-0.099-0.104-0.198-0.207-0.295-0.305c-0.194-0.192-0.385-0.368-0.572-0.537c-0.141-0.125-0.28-0.245-0.418-0.357
			c-0.028-0.023-0.056-0.043-0.085-0.065c-0.288-0.229-0.571-0.435-0.851-0.612v6.992V27c0,2.938-0.849,5.672-2.309,7.982
			c2.021-1.65,3.313-4.16,3.313-6.973c0-1.66,1.34-3,3-3v-3.02C38.691,21.586,38.393,21.221,38.1,20.874z"/>
	</g>
	<g>
		<path fill="#844747" d="M39.001,17.99v4c-2.76-3.6-4.83-4.87-6.99-4.99l5.38-6.01C38.421,13.109,39.001,15.48,39.001,17.99z"/>
	</g>
	<g>
		<path fill="#965353" d="M37.391,10.99L32.011,17c-4.67-0.25-9.75,4.82-23.01,3.26c-0.65-0.07-1.31-0.16-2-0.27v-2
			c0-8.83,7.16-15.99,16-15.99C29.321,2,34.791,5.67,37.391,10.99z"/>
	</g>
	<g>
		<path fill="#CCD1D9" d="M55.999,46c2.76,0,5,2.24,5,5h-4c0-2.76-2.24-5-5-5H55.999z"/>
	</g>
	<g>
		<rect x="56.999" y="55.01" fill="#CCD1D9" width="4" height="6.99"/>
	</g>
	<g>
		<rect x="56.999" y="51" fill="#656D78" width="4" height="4.01"/>
	</g>
	<g>
		<path fill="#5D9CEC" d="M51.999,49c1.1,0,2,0.9,2,2s-0.9,2-2,2s-2-0.9-2-2S50.899,49,51.999,49z"/>
	</g>
	<g>
		<path fill="#E6E9ED" d="M46.999,51c0-2.76,2.24-5,5-5s5,2.24,5,5v4.01V62h-5v-6C49.239,56,46.999,53.76,46.999,51z M51.999,49
			c-1.1,0-2,0.9-2,2s0.9,2,2,2s2-0.9,2-2S53.099,49,51.999,49z"/>
	</g>
	<g>
		<path fill="#5D9CEC" d="M35.001,56c1.1,0,2,0.9,2,2s-0.9,2-2,2s-2-0.9-2-2S33.901,56,35.001,56z"/>
	</g>
	<g>
		<path fill="#E6E9ED" d="M35.001,60c1.1,0,2-0.9,2-2s-0.9-2-2-2s-2,0.9-2,2S33.901,60,35.001,60z M45.001,62h-42v-7.99
			c0-4.43,3.58-8,8-8h5l16-0.01l5,0.01c4.42,0,8,3.57,8,8V62z"/>
	</g>
	<g>
		<path fill="#CCD1D9" d="M37.001,46.01l-4.004-0.008v0.008c4.42,0,8,3.57,8,8V62h4.004v-7.99
			C45.001,49.58,41.421,46.01,37.001,46.01z"/>
	</g>
	<g>
		<polygon fill="#656D78" points="26.001,45.999 26.001,48.999 22.001,48.999 22.001,46.999 22.001,45.999 24.001,45.009 		"/>
	</g>
	<g>
		<polygon fill="#545C66" points="22.001,46.999 22.001,48.999 16.001,50.999 16.001,45.009 16.001,42.999 17.001,43.499 
			22.001,45.999 		"/>
	</g>
	<g>
		<polygon fill="#545C66" points="32.001,44.999 32.001,50.999 26.001,48.999 26.001,45.999 31.001,43.499 32.001,42.999 		"/>
	</g>
	<g>
		<g>
			<g>
				<path fill="#CCD1D9" d="M24.062,53.009c-0.553,0-1.005-0.447-1.005-1s0.442-1,0.994-1h0.011c0.552,0,1,0.447,1,1
					S24.613,53.009,24.062,53.009z"/>
			</g>
		</g>
		<g>
			<g>
				<path fill="#CCD1D9" d="M24.062,57.013c-0.553,0-1.005-0.447-1.005-1s0.442-1,0.994-1h0.011c0.552,0,1,0.447,1,1
					S24.613,57.013,24.062,57.013z"/>
			</g>
		</g>
		<g>
			<g>
				<path fill="#CCD1D9" d="M24.062,61.017c-0.553,0-1.005-0.447-1.005-1s0.442-1,0.994-1h0.011c0.552,0,1,0.447,1,1
					S24.613,61.017,24.062,61.017z"/>
			</g>
		</g>
	</g>
</g>
</svg>
