<?xml version="1.0" encoding="utf-8"?>
<!-- Generator: Adobe Illustrator 16.0.0, SVG Export Plug-In . SVG Version: 6.00 Build 0)  -->
<!DOCTYPE svg PUBLIC "-//W3C//DTD SVG 1.1//EN" "http://www.w3.org/Graphics/SVG/1.1/DTD/svg11.dtd">
<svg version="1.1" id="icons" xmlns="http://www.w3.org/2000/svg" xmlns:xlink="http://www.w3.org/1999/xlink" x="0px" y="0px"
	 width="64px" height="64px" viewBox="0 0 64 64" enable-background="new 0 0 64 64" xml:space="preserve">
<g>
	<g>
		<path fill="#3679CE" d="M9,2.5c0-0.553,0.447-1,1-1h14c0.553,0,1,0.447,1,1s-0.447,1-1,1H10C9.447,3.5,9,3.053,9,2.5z"/>
	</g>
	<g>
		<path fill="#4A89DC" d="M4,2.5c0-0.553,0.447-1,1-1h14c0.553,0,1,0.447,1,1s-0.447,1-1,1H5C4.447,3.5,4,3.053,4,2.5z"/>
	</g>
	<g>
		<path fill="#5D9CEC" d="M1,2.5c0-0.553,0.447-1,1-1h12.999c0.553,0,1,0.447,1,1s-0.447,1-1,1H2C1.447,3.5,1,3.053,1,2.5z"/>
	</g>
	<g>
		<path fill="#3679CE" d="M23.99,34.5c-2.21,0-3.99-1.79-3.99-3.99V2.5h5v32H23.99z"/>
	</g>
	<g>
		<path fill="#5D9CEC" d="M1,2.5h15v1c0,8.29-6.71,15-15,15V2.5z"/>
	</g>
	<g>
		<path fill="#5D9CEC" d="M1,24.5c8.29,0,15-6.71,15-15v6c0,8.29-6.71,15-15,15V24.5z"/>
	</g>
	<g>
		<path fill="#3679CE" d="M1,18.5c8.29,0,15-6.71,15-15v6c0,8.29-6.71,15-15,15V18.5z"/>
	</g>
	<g>
		<path fill="#4A89DC" d="M23.99,34.5H25l1.99,0.94l3.63,1.689l3.62,1.7l3.62,1.7l3.62,1.7L45.1,43.93L59.12,50.5H48
			c-4.97,0-9,4.03-9,9H15c0-7.74-6.26-14-14-14v-15c8.29,0,15-6.71,15-15v-6v-6v-1h4v28.01C20,32.71,21.78,34.5,23.99,34.5z"/>
	</g>
	<g>
		<path fill="#5D9CEC" d="M60.29,51.05C61.9,51.88,63,53.56,63,55.5v4H39c0-4.97,4.03-9,9-9h11.12L60.29,51.05z"/>
	</g>
	<g>
		<path fill="#5D9CEC" d="M15,59.5H1v-14C8.74,45.5,15,51.76,15,59.5z"/>
	</g>
	<g>
		<path fill="#E6E9ED" d="M60,62.5H1v-3h14h24h24C63,61.16,61.66,62.5,60,62.5z"/>
	</g>
	<g>
		<path fill="#E6E9ED" d="M21.987,30.511c0,0.553,0.447,1,1,1h1.996v-2h-1.996C22.435,29.511,21.987,29.958,21.987,30.511z"/>
		<path fill="#E6E9ED" d="M21.987,26.511c0,0.553,0.447,1,1,1h1.996v-2h-1.996C22.435,25.511,21.987,25.958,21.987,26.511z"/>
		<path fill="#E6E9ED" d="M21.987,22.511c0,0.553,0.447,1,1,1h1.996v-2h-1.996C22.435,21.511,21.987,21.958,21.987,22.511z"/>
		<path fill="#E6E9ED" d="M21.987,18.511c0,0.553,0.447,1,1,1h1.996v-2h-1.996C22.435,17.511,21.987,17.958,21.987,18.511z"/>
		<path fill="#E6E9ED" d="M21.987,14.511c0,0.553,0.447,1,1,1h1.996v-2h-1.996C22.435,13.511,21.987,13.958,21.987,14.511z"/>
		<path fill="#E6E9ED" d="M21.987,10.511c0,0.553,0.447,1,1,1h1.996v-2h-1.996C22.435,9.511,21.987,9.958,21.987,10.511z"/>
		<path fill="#E6E9ED" d="M22.987,5.507c-0.553,0-1,0.447-1,1s0.447,1,1,1h1.996v-2H22.987z"/>
	</g>
	<path fill="#E6E9ED" d="M45.1,43.93l-0.903-0.424l-1.049,2.196c-0.238,0.498-0.027,1.095,0.472,1.333
		c0.139,0.066,0.285,0.098,0.43,0.098c0.374,0,0.731-0.21,0.903-0.569l1.053-2.205c0,0,0.001-0.003,0.001-0.004L45.1,43.93z"/>
	<path fill="#E6E9ED" d="M42.384,42.654L41.48,42.23l-0.905-0.425l-1.037,2.174c-0.238,0.499-0.026,1.096,0.472,1.333
		c0.139,0.066,0.285,0.098,0.43,0.098c0.374,0,0.732-0.21,0.903-0.569l1.04-2.181C42.384,42.658,42.383,42.656,42.384,42.654z"/>
	<path fill="#E6E9ED" d="M37.86,40.53l-0.905-0.425l-1.027,2.151c-0.238,0.498-0.027,1.095,0.472,1.333
		c0.139,0.066,0.285,0.098,0.43,0.098c0.374,0,0.731-0.21,0.903-0.569l1.029-2.156c0.001-0.002,0.001-0.005,0.002-0.008L37.86,40.53
		z"/>
	<path fill="#E6E9ED" d="M32.788,41.866c0.14,0.066,0.286,0.098,0.431,0.098c0.373,0,0.731-0.21,0.903-0.568l1.019-2.131
		c0.002-0.003,0.001-0.007,0.003-0.011L34.24,38.83l-0.906-0.426l-1.017,2.128C32.079,41.031,32.29,41.628,32.788,41.866z"/>
	<path fill="#E6E9ED" d="M29.181,40.145c0.139,0.066,0.285,0.098,0.43,0.098c0.374,0,0.731-0.21,0.903-0.569l1.006-2.107
		c0.002-0.004,0.001-0.008,0.003-0.012L30.62,37.13l-0.907-0.422l-1.004,2.104C28.471,39.31,28.683,39.907,29.181,40.145z"/>
	<path fill="#E6E9ED" d="M25.569,38.42c0.139,0.066,0.285,0.098,0.43,0.098c0.374,0,0.731-0.21,0.903-0.569l0.994-2.082
		c0,0,0-0.002,0.001-0.004L26.99,35.44l-0.902-0.427l-0.99,2.073C24.859,37.585,25.07,38.182,25.569,38.42z"/>
</g>
</svg>
