<?xml version="1.0" encoding="utf-8"?>
<!-- Generator: Adobe Illustrator 16.0.0, SVG Export Plug-In . SVG Version: 6.00 Build 0)  -->
<!DOCTYPE svg PUBLIC "-//W3C//DTD SVG 1.1//EN" "http://www.w3.org/Graphics/SVG/1.1/DTD/svg11.dtd">
<svg version="1.1" id="icons" xmlns="http://www.w3.org/2000/svg" xmlns:xlink="http://www.w3.org/1999/xlink" x="0px" y="0px"
	 width="64px" height="64px" viewBox="0 0 64 64" enable-background="new 0 0 64 64" xml:space="preserve">
<g>
	<g>
		<path fill="#545C66" d="M59.961,40.97c0-14.08-10.41-25.729-23.961-27.68C34.691,13.1,33.35,13,31.98,13
			c-1.35,0-2.68,0.1-3.98,0.28C14.441,15.22,4.01,26.88,4.01,40.97H4v9.95C7.531,49.04,15.23,47,31.98,47
			c16.789,0,24.49,2.05,28.02,3.93v-9.96H59.961z"/>
	</g>
	<g>
		<path fill="#434A54" d="M31.98,13c-1.35,0-2.68,0.1-3.98,0.28V12c0-1.1,0.891-2,2-2h4c1.111,0,2,0.9,2,2v1.29
			C34.691,13.1,33.35,13,31.98,13z"/>
	</g>
	<g>
		<path fill="#5D9CEC" d="M31.001,26.99v1c0,1.66-1.34,3-3,3h-3c-1.66,0-3-1.34-3-3v-1c0-1.101,0.9-2,2-2h5
			C30.101,24.99,31.001,25.89,31.001,26.99z"/>
	</g>
	<g>
		<path fill="#3679CE" d="M44.999,29.5V31c0,1.66-1.34,3-3,3v-6h1.5C44.329,28,44.999,28.67,44.999,29.5z"/>
	</g>
	<g>
		<path fill="#5D9CEC" d="M41.999,27v1c0,1.66-1.34,3-3,3h-3c-1.66,0-3-1.34-3-3v-1c0-1.1,0.9-2,2-2h5
			C41.099,25,41.999,25.9,41.999,27z"/>
	</g>
	<g>
		<path fill="#3679CE" d="M22.001,27.99v6c-1.66,0-3-1.34-3-3v-1.5c0-0.83,0.67-1.5,1.5-1.5H22.001z"/>
	</g>
	<g>
		<g>
			<path fill="#3679CE" d="M38.999,34.999c0.55,0,1,0.45,1,1V38c0,0.55-0.45,1-1,1h-3c-0.55,0-1-0.45-1-1v-2.001c0-0.55,0.45-1,1-1
				H38.999z"/>
		</g>
		<g>
			<path fill="#3679CE" d="M28.001,34.989c0.55,0,1,0.45,1,1v2.001c0,0.55-0.45,1-1,1h-3c-0.55,0-1-0.45-1-1v-2.001
				c0-0.55,0.45-1,1-1H28.001z"/>
		</g>
	</g>
	<g>
		<path fill="#656D78" d="M63,54H1c0-0.01,0.01-1.49,3-3.07v-0.01C7.531,49.04,15.23,47,31.98,47c16.789,0,24.49,2.05,28.02,3.93
			C63,52.53,63,54,63,54z"/>
	</g>
	<g>
		<path fill="#4A89DC" d="M35.999,31h3c1.66,0,3-1.34,3-3v6c0,1.1-0.9,2-2,2h-5c-1.1,0-2-0.9-2-2v-6
			C32.999,29.66,34.339,31,35.999,31z"/>
	</g>
	<g>
		<path fill="#4A89DC" d="M25.001,30.99h3c1.66,0,3-1.34,3-3v6c0,1.1-0.9,2-2,2h-5c-1.1,0-2-0.9-2-2v-6
			C22.001,29.65,23.341,30.99,25.001,30.99z"/>
	</g>
</g>
</svg>
