<?xml version="1.0" encoding="utf-8"?>
<!-- Generator: Adobe Illustrator 16.0.0, SVG Export Plug-In . SVG Version: 6.00 Build 0)  -->
<!DOCTYPE svg PUBLIC "-//W3C//DTD SVG 1.1//EN" "http://www.w3.org/Graphics/SVG/1.1/DTD/svg11.dtd">
<svg version="1.1" id="icons" xmlns="http://www.w3.org/2000/svg" xmlns:xlink="http://www.w3.org/1999/xlink" x="0px" y="0px"
	 width="64px" height="64px" viewBox="0 0 64 64" enable-background="new 0 0 64 64" xml:space="preserve">
<g>
	<g>
		<path fill="#EAC6BB" d="M4.02,60c0-2.41,1.7-4.43,3.98-4.9v0.011V63H4.02V60z"/>
	</g>
	<g>
		<path fill="#EAC6BB" d="M51.98,55H52c0,1.66-1.79,3.01-4,3.01s-4-1.35-4-3.01h-0.02v-3.93V51.06c1.199,0.601,2.56,0.94,4,0.94
			c1.439,0,2.8-0.34,4-0.94v0.011V55z"/>
	</g>
	<g>
		<path fill="#EAC6BB" d="M56.98,40.03V43l-2,1.01c0,2.76-2.23,5-5,5l-0.98-1h-2l-1.02,1c-2.761,0-5-2.24-5-5l-2-1.01v-2.97l3-2.03
			c0,0,3.01,1,6.5,1c3.489,0,5.5-1,5.5-1L56.98,40.03z"/>
	</g>
	<g>
		<path fill="#965353" d="M56.98,37v3.03l-3-2.03c0,0-2.011,1-5.5,1c-3.49,0-6.5-1-6.5-1l-3,2.03V37c0-4.42,3.579-8,8-8h6v4
			C55.19,33,56.98,34.79,56.98,37z"/>
	</g>
	<g>
		<path fill="#844747" d="M56.98,40.03V37c0-2.21-1.79-4-4-4v-4h-3v4c0,1.657,1.343,3,3,3c0.552,0,1,0.448,1,1v1L56.98,40.03z"/>
	</g>
	<g>
		<path fill="#EAC6BB" d="M28.02,60v3H24v-7.89V55.1C26.29,55.55,28.02,57.57,28.02,60z"/>
	</g>
	<g>
		<path fill="#965353" d="M56.98,43c0,3.53-2.04,6.59-5,8.06c-1.2,0.601-2.561,0.94-4,0.94c-1.44,0-2.801-0.34-4-0.94
			c-2.95-1.46-4.98-4.5-5-8.01V43l2,1.01c0,2.76,2.239,5,5,5l1.02-1h2l0.98,1c2.77,0,5-2.24,5-5L56.98,43z"/>
	</g>
	<g>
		<path fill="#844747" d="M52.031,48.562c-0.822,1.04-1.857,1.903-3.054,2.498c-0.772,0.387-1.615,0.65-2.499,0.8
			c0.222,0.037,0.446,0.067,0.672,0.092C47.425,51.977,47.699,52,47.98,52c1.439,0,2.8-0.34,4-0.94c2.96-1.47,5-4.529,5-8.06
			l-2,1.01C54.98,46.039,53.77,47.778,52.031,48.562z"/>
	</g>
	<g>
		<path fill="#D3B1A9" d="M53.98,38l-0.003,0.001V43c0,2.103-0.735,4.029-1.946,5.562c1.738-0.783,2.949-2.522,2.949-4.552l2-1.01
			v-2.97L53.98,38z"/>
	</g>
	<g>
		<path fill="#E6E9ED" d="M59.98,63h-24v-3c0-2.76,2.239-5,5-5h3H44c0,1.66,1.79,3.01,4,3.01s4-1.35,4-3.01h2.98c2.77,0,5,2.24,5,5
			V63z"/>
	</g>
	<g>
		<g>
			<path fill="#CCD1D9" d="M54.98,55H52c0,0.001,0,0.002,0,0.002c2.759,0.013,4.978,2.246,4.978,4.998v3h3.003v-3
				C59.98,57.24,57.75,55,54.98,55z"/>
		</g>
	</g>
	<g>
		<path fill="#F6BB42" d="M25.02,38.5v1.22c-1.949-2.54-3.359-3.09-5-2.88l3-4.17C24.28,34.28,25.02,36.31,25.02,38.5z"/>
	</g>
	<g>
		<path fill="#EAC6BB" d="M25.02,39.72V43c0,3.53-2.039,6.59-5,8.06C18.82,51.66,17.45,52,16.02,52c-1.43,0-2.8-0.34-4-0.94
			c-2.96-1.47-5-4.529-5-8.06v-0.04v-4.32c7.08,0.87,10.341-1.46,13-1.8C21.66,36.63,23.07,37.18,25.02,39.72z"/>
	</g>
	<g>
		<path fill="#D3B1A9" d="M22.017,37.08V43c0,3.53-2.039,6.59-5,8.06c-0.771,0.386-1.616,0.649-2.498,0.8
			C15.01,51.942,15.508,52,16.02,52c1.431,0,2.801-0.34,4-0.94c2.961-1.47,5-4.529,5-8.06v-3.28
			C23.887,38.243,22.937,37.453,22.017,37.08z"/>
	</g>
	<g>
		<path fill="#FFCE54" d="M23.02,32.67l-3,4.17c-2.659,0.34-5.92,2.67-13,1.8c-0.329-0.04-0.659-0.09-1-0.14
			c0-5.24,4.25-9.5,9.5-9.5C18.57,29,21.29,30.44,23.02,32.67z"/>
	</g>
	<g>
		<path fill="#ED5565" d="M12,55c0,1.66,1.79,3.01,4,3.01s4-1.35,4-3.01h0.02h3c0.33,0,0.66,0.03,0.98,0.1v0.011V63H8v-7.89V55.1
			C8.33,55.04,8.67,55,9.02,55H12z"/>
	</g>
	<g>
		<path fill="#DA4453" d="M24,57v-1.89V55.1c-0.32-0.069-0.65-0.1-0.98-0.1h-3h-0.003c0.33,0,0.66,0.03,0.98,0.1
			C22.222,55.341,23.274,56.039,24,57z"/>
	</g>
	<g>
		<path fill="#D3B1A9" d="M24,55.1v0.011V57c0.631,0.837,1.017,1.87,1.017,3v3h3.003v-3C28.02,57.57,26.29,55.55,24,55.1z"/>
	</g>
	<g>
		<path fill="#EAC6BB" d="M12.02,55v-3.93V51.06c1.2,0.601,2.57,0.94,4,0.94c1.431,0,2.801-0.34,4-0.94v0.011V55H20
			c0,1.66-1.79,3.01-4,3.01s-4-1.35-4-3.01H12.02z"/>
	</g>
	<g>
		<path fill="#D3374E" d="M32.01,7.5V9h-8c0-1.66,1.34-3,3-3h3.5C31.34,6,32.01,6.67,32.01,7.5z"/>
	</g>
	<g>
		<path fill="#D3374E" d="M23.012,11c0.55,0,1,0.45,1,1v4c0,0.55-0.45,1-1,1H20.01c-0.55,0-1-0.45-1-1v-4c0-0.55,0.45-1,1-1H23.012z
			"/>
	</g>
	<g>
		<path fill="#E6E9ED" d="M40,21v4H25l-5,2v-2h-6V1h26v4V21z M35.01,17v-6c0-1.1-0.899-2-2-2h-0.99h-0.01V7.5
			c0-0.83-0.67-1.5-1.5-1.5h-3.5c-1.66,0-3,1.34-3,3c-1.1,0-2,0.9-2,2h-3v6h3c0,1.1,0.9,2,2,2h8h1C34.11,19,35.01,18.1,35.01,17z"/>
	</g>
	<g>
		<path fill="#ED5565" d="M32.02,9h0.99c1.101,0,2,0.9,2,2v6c0,1.1-0.899,2-2,2h-1c-1.66,0-3-1.34-3-3v-3.99c0-1.66,1.34-3,3-3.01
			H32.02z"/>
	</g>
	<g>
		<polygon fill="#CCD1D9" points="51.98,5 51.98,21 48.98,21 48.98,23 43.98,21 40,21 40,5 		"/>
	</g>
	<g>
		<path fill="#DA4453" d="M32.01,9c-1.66,0.01-3,1.35-3,3.01V16c0,1.66,1.34,3,3,3h-8c-1.1,0-2-0.9-2-2v-6c0-1.1,0.9-2,2-2H32.01z"
			/>
	</g>
</g>
</svg>
