<?xml version="1.0" encoding="utf-8"?>
<!-- Generator: Adobe Illustrator 16.0.0, SVG Export Plug-In . SVG Version: 6.00 Build 0)  -->
<!DOCTYPE svg PUBLIC "-//W3C//DTD SVG 1.1//EN" "http://www.w3.org/Graphics/SVG/1.1/DTD/svg11.dtd">
<svg version="1.1" id="icons" xmlns="http://www.w3.org/2000/svg" xmlns:xlink="http://www.w3.org/1999/xlink" x="0px" y="0px"
	 width="64px" height="64px" viewBox="0 0 64 64" enable-background="new 0 0 64 64" xml:space="preserve">
<g>
	<g>
		<path fill="#545C66" d="M43.014,23.01c-0.256,0-0.512-0.098-0.707-0.293l-3-3c-0.391-0.391-0.391-1.023,0-1.414
			s1.023-0.391,1.414,0l3,3c0.391,0.391,0.391,1.023,0,1.414C43.525,22.912,43.27,23.01,43.014,23.01z"/>
	</g>
	<g>
		<path fill="#545C66" d="M21.008,23.01c-0.256,0-0.512-0.098-0.707-0.293c-0.391-0.391-0.391-1.024,0-1.414l3.002-3
			c0.391-0.391,1.023-0.391,1.414,0s0.391,1.024,0,1.414l-3.002,3C21.52,22.912,21.264,23.01,21.008,23.01z"/>
	</g>
	<g>
		<path fill="#656D78" d="M32,29.004c-0.553,0-1-0.447-1-1v-8.996c0-0.553,0.447-1,1-1s1,0.447,1,1v8.996
			C33,28.557,32.553,29.004,32,29.004z"/>
	</g>
	<g>
		<path fill="#656D78" d="M43.014,29.004c-0.553,0-1-0.447-1-1V22.01c0-0.553,0.447-1,1-1s1,0.447,1,1v5.994
			C44.014,28.557,43.566,29.004,43.014,29.004z"/>
	</g>
	<g>
		<path fill="#656D78" d="M21.008,29.004c-0.553,0-1-0.447-1-1V22.01c0-0.553,0.447-1,1-1s1,0.447,1,1v5.994
			C22.008,28.557,21.561,29.004,21.008,29.004z"/>
	</g>
	<g>
		<path fill="#D3374E" d="M28.001,2.5V4h-8c0-1.66,1.34-3,3-3h3.5C27.321,1,28.001,1.67,28.001,2.5z"/>
	</g>
	<g>
		<path fill="#DA4453" d="M25.001,11c0,1.66,1.34,3,3,3h-8c-1.1,0-2-0.9-2-2V6c0-1.1,0.9-2,2-2h8c-1.66,0-3,1.34-3,3V11z"/>
	</g>
	<g>
		<path fill="#ED5565" d="M31.001,6v6c0,1.1-0.91,2-2,2h-1c-1.66,0-3-1.34-3-3V7c0-1.66,1.34-3,3-3h1C30.091,4,31.001,4.9,31.001,6z
			"/>
	</g>
	<g>
		<path fill="#D3374E" d="M37.499,1h3.5c1.66,0,3,1.34,3,3h-8V2.5C35.999,1.67,36.669,1,37.499,1z"/>
	</g>
	<g>
		<path fill="#ED5565" d="M38.999,7v4c0,1.66-1.35,3-3,3h-1c-1.1,0-2-0.9-2-2V6c0-1.1,0.9-2,2-2h1C37.649,4,38.999,5.34,38.999,7z"
			/>
	</g>
	<g>
		<g>
			<path fill="#D3374E" d="M18.002,6c0.55,0,1,0.45,1,1v4c0,0.55-0.45,1-1,1h-2.001c-0.55,0-1-0.45-1-1V7c0-0.55,0.45-1,1-1H18.002z
				"/>
		</g>
		<g>
			<path fill="#D3374E" d="M47.999,6c0.55,0,1,0.45,1,1v4c0,0.55-0.45,1-1,1h-2.001c-0.55,0-1-0.45-1-1V7c0-0.55,0.45-1,1-1H47.999z
				"/>
		</g>
	</g>
	<g>
		<path fill="#DA4453" d="M35.999,4h8c1.1,0,2,0.9,2,2v6c0,1.1-0.9,2-2,2h-8c1.65,0,3-1.34,3-3V7C38.999,5.34,37.649,4,35.999,4z"/>
	</g>
	<g>
		<polygon fill="#773E3E" points="51,33 46,37 46,33 		"/>
	</g>
	<g>
		<polygon fill="#773E3E" points="18,33 18,37 13,33 		"/>
	</g>
	<g>
		<polygon fill="#844747" points="46,37 46,59 18,59 18,37 18,33 46,33 		"/>
	</g>
	<path fill="#965353" d="M50,28h-5.99c-0.55,0-1.45,0-2,0H33c-0.55,0-1.45,0-2,0h-8.99c-0.55,0-1.45,0-2,0H14c-0.55,0-1,0.45-1,1
		v4.001h38V29C51,28.45,50.55,28,50,28z"/>
	<g>
		<path fill="#965353" d="M46.99,59c0.545,0,0.99,0.45,0.99,1v2c0,0.55-0.45,1-1,1H16.99c-0.55,0-1-0.45-1-1v-2c0-0.55,0.45-1,1-1
			H17c0.55,0,1.45,0,2,0h26C45.55,59,46.445,59,46.99,59z"/>
	</g>
</g>
</svg>
