<?xml version="1.0" encoding="utf-8"?>
<!-- Generator: Adobe Illustrator 16.0.0, SVG Export Plug-In . SVG Version: 6.00 Build 0)  -->
<!DOCTYPE svg PUBLIC "-//W3C//DTD SVG 1.1//EN" "http://www.w3.org/Graphics/SVG/1.1/DTD/svg11.dtd">
<svg version="1.1" id="icons" xmlns="http://www.w3.org/2000/svg" xmlns:xlink="http://www.w3.org/1999/xlink" x="0px" y="0px"
	 width="64px" height="64px" viewBox="0 0 64 64" enable-background="new 0 0 64 64" xml:space="preserve">
<g>
	<path fill="#D3374E" d="M49.998,32.99c0,0.55,0.45,1,1,1h6.012c0.55,0,1-0.45,1-1V25c0-0.55-0.45-1-1-1h-6.012c-0.55,0-1,0.45-1,1
		V32.99z"/>
	<g>
		<path fill="#D3374E" d="M47,21v0.06h-9.99V19c0-1.1,0.9-2,2-2h4v0.01C45.21,17.01,47,18.8,47,21z"/>
	</g>
	<g>
		<path fill="#ED5565" d="M42,26.99v4.02C42,34.32,39.32,37,36.01,37h-2.02c-1.101,0-2-0.9-2-2v-7.66C32,27.23,32,27.11,32,27v-4
			v-0.14c0.1-1.011,0.96-1.801,1.99-1.801h2.83C39.75,21.45,42,23.96,42,26.99z"/>
	</g>
	<g>
		<path fill="#DA4453" d="M52,29v4.99V35c0,1.1-0.9,2-2,2H36.01C39.32,37,42,34.32,42,31.01v-4.02c0-3.03-2.25-5.54-5.18-5.931
			h0.189H47h3c1.1,0,2,0.9,2,2V24V29z"/>
	</g>
	<path fill="#656D78" d="M57.01,24h-2v6h3v-5C58.01,24.45,57.56,24,57.01,24z"/>
	<g>
		<path fill="#EAC6BB" d="M31.99,22.99c0,0.02,0,0.05,0,0.069v4.28c-0.12,4.87-2.931,9.08-6.99,11.2C23.2,39.47,21.16,40,19,40
			s-4.2-0.53-6-1.46C8.84,36.37,6,32.02,6,27v-4l3-3c0,0,4.57,2,10,2s10-2,10-2L31.99,22.99z"/>
	</g>
	<g>
		<path fill="#D3B1A9" d="M29,20c0,0-0.011,0.005-0.013,0.006v7.334c-0.12,4.87-2.931,9.08-6.99,11.2
			c-1.376,0.711-2.895,1.183-4.499,1.368C17.992,39.965,18.492,40,19,40c2.16,0,4.2-0.53,6-1.46c4.06-2.12,6.87-6.33,6.99-11.2
			v-4.28c0-0.02,0-0.05,0-0.069L29,20z"/>
	</g>
	<g>
		<path fill="#EAC6BB" d="M30,58H8H1v-7c0-3.87,3.13-7,7-7h5v-5.46c1.8,0.93,3.84,1.46,6,1.46s4.2-0.53,6-1.46V44h5
			c3.87,0,7,3.13,7,7v7H30z"/>
	</g>
	<g>
		<g>
			<path fill="#D3B1A9" d="M30,44h-3.003c3.87,0,7,3.13,7,7v7H37v-7C37,47.13,33.87,44,30,44z"/>
		</g>
	</g>
	<g>
		<path fill="#965353" d="M32,16v6.86c0,0.04-0.01,0.08-0.01,0.13L29,20c0,0-4.57,2-10,2S9,20,9,20l-3,3v-5c0-6.63,5.37-12,12-12h8
			v4C29.32,10,32,12.68,32,16z"/>
	</g>
	<g>
		<path fill="#844747" d="M31.99,22.99c0-0.05,0.01-0.09,0.01-0.13V16c0-3.32-2.68-6-6-6V6h-3v4c0,1.657,1.343,3,3,3
			c1.654,0,3,1.346,3,3v4L31.99,22.99z"/>
	</g>
	<g>
		<rect x="58.01" y="25" fill="#EAC6BB" width="4.99" height="8"/>
	</g>
	<path fill="#ED5565" d="M48.008,27.996c-0.553,0-1,0.447-1,1s0.447,1,1,1H52v-2H48.008z"/>
	<g>
		<path fill="#D3B1A9" d="M8,52c-0.553,0-1,0.447-1,1v4.999h2V53C9,52.447,8.553,52,8,52z"/>
		<path fill="#D3B1A9" d="M29.998,52c-0.553,0-1,0.447-1,1v4.999h2V53C30.998,52.447,30.551,52,29.998,52z"/>
	</g>
	<g>
		<path fill="#E6E9ED" d="M35,17.003c-0.256,0-0.512-0.098-0.707-0.293c-0.391-0.391-0.391-1.023,0-1.414l4-4
			c0.391-0.391,1.023-0.391,1.414,0s0.391,1.023,0,1.414l-4,4C35.512,16.905,35.256,17.003,35,17.003z"/>
	</g>
	<g>
		<path fill="#E6E9ED" d="M39,44.029c-0.256,0-0.512-0.098-0.707-0.293l-4-4c-0.391-0.391-0.391-1.023,0-1.414s1.023-0.391,1.414,0
			l4,4c0.391,0.391,0.391,1.023,0,1.414C39.512,43.932,39.256,44.029,39,44.029z"/>
	</g>
</g>
</svg>
