<?xml version="1.0" encoding="utf-8"?>
<!-- Generator: Adobe Illustrator 16.0.0, SVG Export Plug-In . SVG Version: 6.00 Build 0)  -->
<!DOCTYPE svg PUBLIC "-//W3C//DTD SVG 1.1//EN" "http://www.w3.org/Graphics/SVG/1.1/DTD/svg11.dtd">
<svg version="1.1" id="icons" xmlns="http://www.w3.org/2000/svg" xmlns:xlink="http://www.w3.org/1999/xlink" x="0px" y="0px"
	 width="64px" height="64px" viewBox="0 0 64 64" enable-background="new 0 0 64 64" xml:space="preserve">
<g>
	<g>
		<g>
			<polygon fill="#ED5565" points="63.493,8.505 63.493,21.495 60.493,21.495 60.493,23.495 57.493,21.495 37.493,21.495 
				37.493,8.505 			"/>
		</g>
		<g>
			<path fill="#C4A29B" d="M33.493,49.495c0,0.699,0.12,1.369,0.34,2h-5.85c1.569-1.91,2.51-4.341,2.51-7
				c0-0.681-0.061-1.351-0.181-2h3.181V49.495z"/>
		</g>
		<g>
			<path fill="#EAC6BB" d="M63.493,46.505v7.99l-24,1c-2.61,0-4.84-1.671-5.66-4c-0.22-0.631-0.34-1.301-0.34-2c0-3.311,2.689-6,6-6
				L63.493,46.505z"/>
		</g>
		<g>
			<path fill="#D3B1A9" d="M63.493,39.495v7.01l-24-3.01c-3.311,0-6,2.689-6,6v-7c0-2.761,2.24-5,5-5h11c1.109,0,2,0.899,2,2H63.493
				z"/>
		</g>
		<g>
			<path fill="#EAC6BB" d="M27.983,51.495c-1.4,1.699-3.311,2.97-5.49,3.579v-0.579c0-2.211-1.79-4-4-4c-1.101,0-2-0.9-2-2
				c0-1.101,0.899-2,2-2h1v-4l-6,1v-10h6c5.399,0,9.88,3.88,10.819,9c0.12,0.649,0.181,1.319,0.181,2
				C30.493,47.154,29.553,49.585,27.983,51.495z"/>
		</g>
		<g>
			<path fill="#656D78" d="M13.493,32.495v1v10l6-1v4h-1c-1.101,0-2,0.899-2,2c0,1.1,0.899,2,2,2c2.21,0,4,1.789,4,4v0.579
				c-0.95,0.28-1.96,0.421-3,0.421h-6.5c-6.351,0-11.5-5.15-11.5-11.5c0-6.351,5.149-11.5,11.5-11.5H13.493z"/>
		</g>
	</g>
	<g>
		<path fill="none" stroke="#000000" stroke-width="2" stroke-linecap="round" stroke-linejoin="round" stroke-miterlimit="10" d="
			M13.493,43.495"/>
	</g>
	<g>
		<path fill="#48CFAD" d="M13.518,15.491c-0.553,0-1.005-0.447-1.005-1s0.442-1,0.994-1h0.011c0.552,0,1,0.447,1,1
			S14.069,15.491,13.518,15.491z"/>
	</g>
	<g>
		<path fill="#A0D468" d="M17.514,22.486c-0.553,0-1.005-0.447-1.005-1s0.442-1,0.994-1h0.011c0.552,0,1,0.447,1,1
			S18.065,22.486,17.514,22.486z"/>
	</g>
	<g>
		<path fill="#E6E9ED" d="M44.522,18.502c-0.553,0-1.005-0.447-1.005-1s0.442-1,0.994-1h0.011c0.552,0,1,0.447,1,1
			S45.074,18.502,44.522,18.502z"/>
	</g>
	<g>
		<path fill="#E6E9ED" d="M47.522,18.502c-0.553,0-1.005-0.447-1.005-1s0.442-1,0.994-1h0.011c0.552,0,1,0.447,1,1
			S48.074,18.502,47.522,18.502z"/>
	</g>
	<g>
		<path fill="#E6E9ED" d="M56.534,18.502c-0.553,0-1.005-0.447-1.005-1s0.442-1,0.994-1h0.011c0.552,0,1,0.447,1,1
			S57.086,18.502,56.534,18.502z"/>
	</g>
	<g>
		<path fill="#E6E9ED" d="M59.534,18.502c-0.553,0-1.005-0.447-1.005-1s0.442-1,0.994-1h0.011c0.552,0,1,0.447,1,1
			S60.086,18.502,59.534,18.502z"/>
	</g>
	<g>
		<path fill="#FFCE54" d="M16,30.477c-7.068,0-15.493-0.521-15.493-3.001S8.932,24.475,16,24.475s15.493,0.521,15.493,3.001
			S23.068,30.477,16,30.477z M3.551,27.476C5.502,27.95,9.681,28.477,16,28.477s10.498-0.526,12.449-1.001
			c-1.951-0.475-6.13-1.001-12.449-1.001S5.502,27.001,3.551,27.476z"/>
	</g>
	<g>
		<path fill="#5D9CEC" d="M6.493,22.339c-0.553,0-1-0.447-1-1v-3.845c0-0.553,0.447-1,1-1s1,0.447,1,1v3.845
			C7.493,21.892,7.046,22.339,6.493,22.339z"/>
	</g>
	<g>
		<path fill="#5D9CEC" d="M7.493,20.495h-2c-0.553,0-1-0.447-1-1s0.447-1,1-1h2c0.553,0,1,0.447,1,1S8.046,20.495,7.493,20.495z"/>
	</g>
	<g>
		<path fill="#ED5565" d="M25.484,19.488c-0.553,0-1-0.447-1-1v-2c0-0.553,0.447-1,1-1s1,0.447,1,1v2
			C26.484,19.041,26.037,19.488,25.484,19.488z"/>
	</g>
	<g>
		<path fill="#ED5565" d="M26.484,18.488h-2c-0.553,0-1-0.447-1-1s0.447-1,1-1h2c0.553,0,1,0.447,1,1S27.037,18.488,26.484,18.488z"
			/>
	</g>
	<g>
		<path fill="#E6E9ED" d="M41.492,18.502c-0.553,0-1-0.447-1-1v-5.001c0-0.553,0.447-1,1-1s1,0.447,1,1v5.001
			C42.492,18.055,42.045,18.502,41.492,18.502z"/>
	</g>
	<g>
		<path fill="#E6E9ED" d="M50.493,18.502c-0.274,0-0.549-0.113-0.746-0.335c-0.368-0.412-0.331-1.044,0.081-1.411
			c1.227-1.095,2.426-2.379,2.658-2.84c-0.041-0.235-0.246-0.415-0.493-0.415c-0.275,0-0.5,0.225-0.5,0.5c0,0.553-0.447,1-1,1
			s-1-0.447-1-1c0-1.379,1.121-2.5,2.5-2.5s2.5,1.121,2.5,2.5c0,0.315,0,1.276-3.335,4.248
			C50.968,18.418,50.73,18.502,50.493,18.502z"/>
	</g>
	<g>
		<path fill="#E6E9ED" d="M53.493,18.502h-3c-0.553,0-1-0.447-1-1s0.447-1,1-1h3c0.553,0,1,0.447,1,1S54.046,18.502,53.493,18.502z"
			/>
	</g>
</g>
</svg>
