<?xml version="1.0" encoding="utf-8"?>
<!-- Generator: Adobe Illustrator 16.0.0, SVG Export Plug-In . SVG Version: 6.00 Build 0)  -->
<!DOCTYPE svg PUBLIC "-//W3C//DTD SVG 1.1//EN" "http://www.w3.org/Graphics/SVG/1.1/DTD/svg11.dtd">
<svg version="1.1" id="icons" xmlns="http://www.w3.org/2000/svg" xmlns:xlink="http://www.w3.org/1999/xlink" x="0px" y="0px"
	 width="64px" height="64px" viewBox="0 0 64 64" enable-background="new 0 0 64 64" xml:space="preserve">
<g>
	<path fill="#D3374E" d="M47,47.489V53.5c0,0.55,0.45,1,1,1h10c0.55,0,1-0.45,1-1v-6.011H47z"/>
	<g>
		<path fill="#D3374E" d="M41.01,29.5H43h0.01v12.99c-2.21,0-3.99-1.78-3.99-3.99h-0.01v-7C39.01,30.4,39.9,29.5,41.01,29.5z"/>
	</g>
	<path fill="#656D78" d="M47,50.5v3c0,0.55,0.45,1,1,1h7v-4H47z"/>
	<g>
		<path fill="#ED5565" d="M63,27.5v1c0,4.42-3.58,8-8,8h-4c-4.42,0-7.99-3.58-7.99-8v-1c0-2.2,1.8-4,3.99-4h12
			C61.2,23.5,63,25.3,63,27.5z"/>
	</g>
	<g>
		<path fill="#DA4453" d="M53,47.49h-6c-2.19,0-3.99-1.8-3.99-4v-1V29.5v-1c0,4.42,3.57,8,7.99,8h4c4.42,0,8-3.58,8-8v14.99
			c0,2.2-1.8,4-4,4H53z"/>
	</g>
	<g>
		<path fill="#656D78" d="M37,18.5v1l-4-4c0,0-5,3-11,3s-11-3-11-3l-4,4v-1c0-8.28,6.71-15,15-15C30.28,3.5,37,10.22,37,18.5z"/>
	</g>
	<g>
		<g>
			<path fill="#545C66" d="M22,3.5c-0.681,0-1.346,0.062-2.003,0.149c6.395,0.855,11.516,5.731,12.722,12.009
				C32.897,15.561,33,15.5,33,15.5l4,4v-1C37,10.22,30.28,3.5,22,3.5z"/>
		</g>
	</g>
	<g>
		<path fill="#EAC6BB" d="M37,19.5v6c0,5.76-3.24,10.76-8,13.27c-2.09,1.101-4.47,1.73-7,1.73s-4.91-0.63-7-1.73
			c-4.76-2.51-8-7.51-8-13.27v-6l4-4c0,0,5,3,11,3s11-3,11-3L37,19.5z"/>
	</g>
	<g>
		<path fill="#D3B1A9" d="M33,15.5l-0.004,0.002V25.5c0,5.76-3.24,10.76-8,13.27c-1.528,0.805-3.214,1.354-4.998,1.594
			C20.653,40.451,21.32,40.5,22,40.5c2.53,0,4.91-0.63,7-1.73c4.76-2.51,8-7.51,8-13.27v-6L33,15.5z"/>
	</g>
	<g>
		<path fill="#EAC6BB" d="M35,60.5H9.01H1v-8c0-4.42,3.58-8,8-8h6v-5.73c2.09,1.101,4.47,1.73,7,1.73s4.91-0.63,7-1.73v5.73h6
			c4.42,0,8,3.58,8,8v8H35z"/>
	</g>
	<g>
		<g>
			<path fill="#D3B1A9" d="M35,44.5h-4.004c4.42,0,8,3.58,8,8v8H43v-8C43,48.08,39.42,44.5,35,44.5z"/>
		</g>
	</g>
	<g>
		<path fill="#D3B1A9" d="M9.006,52.504c-0.553,0-1,0.447-1,1V60.5h2v-6.996C10.006,52.951,9.559,52.504,9.006,52.504z"/>
		<path fill="#D3B1A9" d="M34.995,52.504c-0.553,0-1,0.447-1,1V60.5h2v-6.996C35.995,52.951,35.548,52.504,34.995,52.504z"/>
	</g>
	<path fill="#ED5565" d="M53.002,40.498c-0.553,0-1,0.447-1,1v5.994h2v-5.994C54.002,40.945,53.555,40.498,53.002,40.498z"/>
</g>
</svg>
