<?xml version="1.0" encoding="utf-8"?>
<!-- Generator: Adobe Illustrator 16.0.0, SVG Export Plug-In . SVG Version: 6.00 Build 0)  -->
<!DOCTYPE svg PUBLIC "-//W3C//DTD SVG 1.1//EN" "http://www.w3.org/Graphics/SVG/1.1/DTD/svg11.dtd">
<svg version="1.1" id="icons" xmlns="http://www.w3.org/2000/svg" xmlns:xlink="http://www.w3.org/1999/xlink" x="0px" y="0px"
	 width="64px" height="64px" viewBox="0 0 64 64" enable-background="new 0 0 64 64" xml:space="preserve">
<g>
	<g>
		<path fill="#3679CE" d="M43.005,32.005v12.99c-2.21,0-3.99-1.79-3.99-3.99h-0.01v-7c0-1.11,0.891-2,2-2h1.99H43.005z"/>
	</g>
	<g>
		<path fill="#5D9CEC" d="M62.995,30.005v1c0,4.42-3.57,8-8,8h-4c-4.42,0-7.99-3.58-7.99-8v-1c0-2.21,1.8-4,4-4h11.99
			C61.195,26.005,62.995,27.795,62.995,30.005z"/>
	</g>
	<g>
		<path fill="#4A89DC" d="M52.995,49.995h-5.99c-2.2,0-4-1.8-4-4v-1v-12.99v-1c0,4.42,3.57,8,7.99,8h4c4.43,0,8-3.58,8-8v14.99
			c0,2.2-1.8,4-4,4H52.995z"/>
	</g>
	<g>
		<path fill="#EAC6BB" d="M7.005,47.005h1v15.99h-7v-9.99C1.005,49.685,3.686,47.005,7.005,47.005z"/>
	</g>
	<g>
		<path fill="#5D9CEC" d="M34.005,47.005v15.99h-26v-15.99h4v5.99c0,2,2,4,9,4s9-2,9-4v-5.99H34.005z"/>
	</g>
	<g>
		<path fill="#EAC6BB" d="M35.005,47.005c3.311,0,6,2.68,6,6v9.99h-7v-15.99H35.005z"/>
	</g>
	<g>
		<path fill="#4A89DC" d="M34.005,47.005h-3.004c1.096,0,2.119,0.298,3.004,0.811V47.005z"/>
	</g>
	<g>
		<path fill="#EAC6BB" d="M30.005,47.005v5.99c0,2-2,4-9,4s-9-2-9-4v-5.99h3v-5.25c1.83,0.8,3.86,1.25,6,1.25
			c2.13,0,4.16-0.45,6-1.25v5.25H30.005z"/>
	</g>
	<g>
		<path fill="#F6BB42" d="M6.005,28.005c0,2.13,0.44,4.15,1.25,5.99h-0.01h-1.24c-2.71,0-4.92,2.149-5,4.84v-5.84c0-2.76,2.24-5,5-5
			V28.005z"/>
	</g>
	<g>
		<path fill="#EAC6BB" d="M36.005,21.995v6.01c0,6.15-3.7,11.43-9,13.75c-1.84,0.8-3.87,1.25-6,1.25c-2.14,0-4.17-0.45-6-1.25
			c-3.47-1.51-6.25-4.3-7.75-7.76c-0.81-1.84-1.25-3.86-1.25-5.99v-0.01v-6l3-3c0,0,6,2,12,2s12-2,12-2L36.005,21.995z"/>
	</g>
	<g>
		<path fill="#D3B1A9" d="M33.005,18.995c0,0-0.366,0.122-1.004,0.305v8.705c0,6.15-3.7,11.43-9,13.75
			c-1.253,0.545-2.6,0.912-4.001,1.101c0.657,0.088,1.322,0.149,2.005,0.149c2.13,0,4.16-0.45,6-1.25c5.3-2.32,9-7.6,9-13.75v-6.01
			L33.005,18.995z"/>
	</g>
	<g>
		<path fill="#E6E9ED" d="M25.005,5.005v1.54c-1.27-0.35-2.62-0.54-4-0.54c-1.39,0-2.729,0.19-4,0.54v-1.54c0-2.21,1.79-4,4-4
			S25.005,2.795,25.005,5.005z"/>
	</g>
	<g>
		<path fill="#FFCE54" d="M9.005,18.995l-3,3v-0.99c0-6.9,4.65-12.71,11-14.46c1.271-0.35,2.61-0.54,4-0.54c1.38,0,2.73,0.19,4,0.54
			c6.34,1.75,11,7.56,11,14.46v0.99l-3-3c0,0-6,2-12,2S9.005,18.995,9.005,18.995z"/>
	</g>
	<g>
		<g>
			<path fill="#F6BB42" d="M25.005,6.545c-1.27-0.35-2.62-0.54-4-0.54c-0.681,0-1.349,0.047-2.004,0.135
				c0.684,0.091,1.353,0.227,2,0.405c5.818,1.606,10.211,6.635,10.896,12.784c0.7-0.199,1.108-0.334,1.108-0.334l3,3v-0.99
				C36.005,14.104,31.345,8.295,25.005,6.545z"/>
		</g>
	</g>
	<g>
		<path fill="#D3B1A9" d="M35.005,47.005h-1v0.811c1.789,1.037,2.996,2.968,2.996,5.189v9.99h4.004v-9.99
			C41.005,49.685,38.315,47.005,35.005,47.005z"/>
	</g>
	<path fill="#3679CE" d="M47,49.995v6.011c0,0.55,0.45,1,1,1h10c0.55,0,1-0.45,1-1v-6.011H47z"/>
	<path fill="#656D78" d="M47,53.006v3c0,0.55,0.45,1,1,1h7v-4H47z"/>
	<path fill="#EDAB37" d="M22.005,10.993V6.039c-0.331-0.021-0.665-0.034-1-0.034c-0.337,0-0.67,0.013-1,0.034v4.954
		c0,0.553,0.447,1,1,1S22.005,11.546,22.005,10.993z"/>
	<path fill="#EDAB37" d="M17.005,6.545c-0.506,0.14-0.996,0.313-1.479,0.503l-0.482,1.667c-0.153,0.531,0.152,1.085,0.683,1.239
		c0.093,0.026,0.187,0.039,0.278,0.039c0.435,0,0.834-0.284,0.961-0.722l0.845-2.92C17.54,6.41,17.271,6.472,17.005,6.545z"/>
	<path fill="#EDAB37" d="M24.199,6.352l0.845,2.92c0.127,0.438,0.526,0.722,0.961,0.722c0.092,0,0.186-0.013,0.278-0.039
		c0.53-0.154,0.836-0.708,0.683-1.239l-0.482-1.666c-0.482-0.19-0.973-0.364-1.479-0.504C24.74,6.472,24.47,6.41,24.199,6.352z"/>
	<path fill="#5D9CEC" d="M53,42.996c-0.553,0-1,0.447-1,1v5.993h2v-5.993C54,43.443,53.553,42.996,53,42.996z"/>
</g>
</svg>
