<?xml version="1.0" encoding="utf-8"?>
<!-- Generator: Adobe Illustrator 16.0.0, SVG Export Plug-In . SVG Version: 6.00 Build 0)  -->
<!DOCTYPE svg PUBLIC "-//W3C//DTD SVG 1.1//EN" "http://www.w3.org/Graphics/SVG/1.1/DTD/svg11.dtd">
<svg version="1.1" id="icons" xmlns="http://www.w3.org/2000/svg" xmlns:xlink="http://www.w3.org/1999/xlink" x="0px" y="0px"
	 width="64px" height="64px" viewBox="0 0 64 64" enable-background="new 0 0 64 64" xml:space="preserve">
<g>
	<path fill="#656D78" d="M61,20.002H3c-1.1,0-2,0.9-2,2v3v3v20c0,1.1,0.9,2,2,2h58c1.1,0,2-0.9,2-2v-20v-3v-3
		C63,20.902,62.1,20.002,61,20.002z"/>
	<path fill="#545C66" d="M61,18.998H3c-1.1,0-2,0.9-2,2v3v3v20c0,1.1,0.9,2,2,2h58c1.1,0,2-0.9,2-2v-20v-3v-3
		C63,19.898,62.1,18.998,61,18.998z"/>
	<path fill="#656D78" d="M61,18H3c-1.1,0-2,0.9-2,2v3v3v20c0,1.1,0.9,2,2,2h58c1.1,0,2-0.9,2-2V26v-3v-3C63,18.9,62.1,18,61,18z"/>
	<path fill="#545C66" d="M61,16.998H3c-1.1,0-2,0.9-2,2v3v3v20c0,1.1,0.9,2,2,2h58c1.1,0,2-0.9,2-2v-20v-3v-3
		C63,17.898,62.1,16.998,61,16.998z"/>
	<path fill="#656D78" d="M61,15.994H3c-1.1,0-2,0.9-2,2v3v3v20c0,1.1,0.9,2,2,2h58c1.1,0,2-0.9,2-2v-20v-3v-3
		C63,16.895,62.1,15.994,61,15.994z"/>
	<path fill="#545C66" d="M61,14.994H3c-1.1,0-2,0.9-2,2v3v3v20c0,1.1,0.9,2,2,2h58c1.1,0,2-0.9,2-2v-20v-3v-3
		C63,15.895,62.1,14.994,61,14.994z"/>
	<path fill="#656D78" d="M61,13.998H3c-1.1,0-2,0.9-2,2v3v3v20c0,1.1,0.9,2,2,2h58c1.1,0,2-0.9,2-2v-20v-3v-3
		C63,14.898,62.1,13.998,61,13.998z"/>
	<g>
		<path fill="#3679CE" d="M30.999,18.988c1.66,0,3,1.35,3,3h-6v-1.5c0-0.83,0.68-1.5,1.5-1.5H30.999z"/>
	</g>
	<path fill="#3679CE" d="M10.001,23.988c-0.55,0-1,0.449-1,1v3c0,0.549,0.45,1,1,1h2.001v-5H10.001z"/>
	<path fill="#3679CE" d="M37.999,28.988c0.55,0,1-0.451,1-1v-3c0-0.551-0.45-1-1-1h-2.001v5H37.999z"/>
	<g>
		<path fill="#3679CE" d="M18.501,18.988c0.83,0,1.5,0.67,1.5,1.5v1.5h-6c0-1.65,1.34-3,3-3H18.501z"/>
	</g>
	<g>
		<path fill="#4A89DC" d="M35.999,23.988v5c0,1.1-0.9,2-2,2h-6c1.66,0,3-1.34,3-3v-2.99c0-1.66-1.33-3-3-3.01h6
			C35.099,21.988,35.999,22.887,35.999,23.988z"/>
	</g>
	<g>
		<path fill="#5D9CEC" d="M23.001,23.988v5c0,1.1-0.9,2-2,2h-1c-1.66,0-3-1.34-3-3v-3c0-1.65,1.34-3,3-3h1
			C22.101,21.988,23.001,22.887,23.001,23.988z"/>
	</g>
	<g>
		<path fill="#4A89DC" d="M17.001,27.988c0,1.66,1.34,3,3,3h-6c-1.101,0-2-0.9-2-2v-5c0-1.102,0.899-2,2-2h6c-1.66,0-3,1.35-3,3
			V27.988z"/>
	</g>
	<g>
		<path fill="#5D9CEC" d="M30.999,27.988c0,1.66-1.34,3-3,3h-1c-1.101,0-2-0.9-2-2v-5c0-1.102,0.899-2,2-2h0.99h0.01
			c1.67,0.01,3,1.35,3,3.01V27.988z"/>
	</g>
	<g>
		<path fill="#545C66" d="M36.997,36.998H10.998c-0.553,0-1-0.447-1-1s0.447-1,1-1h25.999c0.553,0,1,0.447,1,1
			S37.55,36.998,36.997,36.998z"/>
	</g>
	<g>
		<path fill="#545C66" d="M29.997,39.998H17.998c-0.553,0-1-0.447-1-1s0.447-1,1-1h11.999c0.553,0,1,0.447,1,1
			S30.55,39.998,29.997,39.998z"/>
	</g>
	<g>
		<path fill="#545C66" d="M47.036,17.998c-0.553,0-1.005-0.447-1.005-1s0.442-1,0.994-1h0.011c0.552,0,1,0.447,1,1
			S47.588,17.998,47.036,17.998z"/>
	</g>
	<g>
		<path fill="#545C66" d="M47.036,20.998c-0.553,0-1.005-0.447-1.005-1s0.442-1,0.994-1h0.011c0.552,0,1,0.447,1,1
			S47.588,20.998,47.036,20.998z"/>
	</g>
	<g>
		<path fill="#545C66" d="M47.036,23.996c-0.553,0-1.005-0.447-1.005-1s0.442-1,0.994-1h0.011c0.552,0,1,0.447,1,1
			S47.588,23.996,47.036,23.996z"/>
	</g>
	<g>
		<path fill="#545C66" d="M47.036,26.996c-0.553,0-1.005-0.447-1.005-1s0.442-1,0.994-1h0.011c0.552,0,1,0.447,1,1
			S47.588,26.996,47.036,26.996z"/>
	</g>
	<g>
		<path fill="#545C66" d="M47.036,29.994c-0.553,0-1.005-0.447-1.005-1s0.442-1,0.994-1h0.011c0.552,0,1,0.447,1,1
			S47.588,29.994,47.036,29.994z"/>
	</g>
	<g>
		<path fill="#545C66" d="M47.036,32.994c-0.553,0-1.005-0.447-1.005-1s0.442-1,0.994-1h0.011c0.552,0,1,0.447,1,1
			S47.588,32.994,47.036,32.994z"/>
	</g>
	<g>
		<path fill="#545C66" d="M47.036,35.992c-0.553,0-1.005-0.447-1.005-1s0.442-1,0.994-1h0.011c0.552,0,1,0.447,1,1
			S47.588,35.992,47.036,35.992z"/>
	</g>
	<g>
		<path fill="#545C66" d="M47.036,38.992c-0.553,0-1.005-0.447-1.005-1s0.442-1,0.994-1h0.011c0.552,0,1,0.447,1,1
			S47.588,38.992,47.036,38.992z"/>
	</g>
	<g>
		<path fill="#545C66" d="M47.036,41.99c-0.553,0-1.005-0.447-1.005-1s0.442-1,0.994-1h0.011c0.552,0,1,0.447,1,1
			S47.588,41.99,47.036,41.99z"/>
	</g>
	<g>
		<path fill="#AAB2BD" d="M52.005,34c-0.553,0-1-0.447-1-1v-8.002c0-0.553,0.447-1,1-1s1,0.447,1,1V33
			C53.005,33.553,52.558,34,52.005,34z"/>
	</g>
	<g>
		<path fill="#AAB2BD" d="M55.005,38.998c-0.553,0-1-0.447-1-1V20c0-0.553,0.447-1,1-1s1,0.447,1,1v17.998
			C56.005,38.551,55.558,38.998,55.005,38.998z"/>
	</g>
	<g>
		<path fill="#AAB2BD" d="M58.005,38.998c-0.553,0-1-0.447-1-1V20c0-0.553,0.447-1,1-1s1,0.447,1,1v17.998
			C59.005,38.551,58.558,38.998,58.005,38.998z"/>
	</g>
</g>
</svg>
