<?xml version="1.0" encoding="utf-8"?>
<!-- Generator: Adobe Illustrator 16.0.0, SVG Export Plug-In . SVG Version: 6.00 Build 0)  -->
<!DOCTYPE svg PUBLIC "-//W3C//DTD SVG 1.1//EN" "http://www.w3.org/Graphics/SVG/1.1/DTD/svg11.dtd">
<svg version="1.1" id="icons" xmlns="http://www.w3.org/2000/svg" xmlns:xlink="http://www.w3.org/1999/xlink" x="0px" y="0px"
	 width="64px" height="64px" viewBox="0 0 64 64" enable-background="new 0 0 64 64" xml:space="preserve">
<g>
	<g>
		<path fill="#EDAB37" d="M41,50.509H22.995c-0.553,0-1-0.447-1-1s0.447-1,1-1H41c0.553,0,1,0.447,1,1S41.553,50.509,41,50.509z"/>
	</g>
	<g>
		<path fill="#EDAB37" d="M26.005,49.509v0.011h-4v-5.339c0.62,0.22,1.29,0.34,1.99,0.34h2.01V49.509z"/>
	</g>
	<g>
		<path fill="#EDAB37" d="M40.015,44.521c0.7,0,1.37-0.12,2-0.34v5.339h-4.01v-0.011v-4.988H40.015z"/>
	</g>
	<g>
		<path fill="#EAC6BB" d="M26.005,40.521v4h-2.01c-0.7,0-1.37-0.12-1.99-0.34c-2.34-0.82-4.01-3.051-4.01-5.66v-18V20.51h4.01v0.011
			v8v3v7c0,1.109,0.88,1.989,1.99,2h0.01H26.005z"/>
	</g>
	<g>
		<path fill="#EDAB37" d="M24.005,31.521c0,3.359,2.06,6.229,4.99,7.42v1.58h-2.99h-2h-0.01c-1.11-0.011-1.99-0.891-1.99-2v-7l2-1
			V31.521z"/>
	</g>
	<g>
		<path fill="#EAC6BB" d="M46.015,38.521c0,2.609-1.67,4.84-4,5.66c-0.63,0.22-1.3,0.34-2,0.34h-2.01v-4h2h0.01
			c1.11-0.011,2-0.891,2-2v-7v-3v-8V20.51h4v0.011V38.521z"/>
	</g>
	<g>
		<polygon fill="#E6E9ED" points="38.005,20.51 25.995,20.51 22.005,20.51 17.995,20.51 16.995,20.51 16.995,1.5 47.005,1.5 
			47.005,20.51 46.015,20.51 42.015,20.51 		"/>
	</g>
	<g>
		<path fill="#EDAB37" d="M42.015,31.521v7c0,1.109-0.89,1.989-2,2h-0.01h-2h-3v-1.58c2.939-1.19,5.01-4.061,5.01-7.42v-1
			L42.015,31.521z"/>
	</g>
	<g>
		<path fill="#FFCE54" d="M24.005,30.521l-2,1v-3c0-3.271,1.56-6.17,3.99-8V20.51h12.01c0.76,0.57,1.439,1.25,2.01,2.011l-8,4
			L24.005,30.521z"/>
	</g>
	<g>
		<path fill="#F6BB42" d="M42.015,28.521v3l-2-1l-7.99-3.99l-0.01-0.01l8-4C41.274,24.19,42.015,26.271,42.015,28.521z"/>
	</g>
	<g>
		<path fill="#EAC6BB" d="M40.015,30.521v1c0,3.359-2.07,6.229-5.01,7.42c-0.931,0.38-1.94,0.58-3,0.58
			c-1.061,0-2.08-0.21-3.01-0.58c-2.931-1.19-4.99-4.061-4.99-7.42v-1l8.01-4l0.01,0.01L40.015,30.521z"/>
	</g>
	<g>
		<path fill="#D3B1A9" d="M35.005,38.94v1.58h-0.01c0,1.649-1.341,3-2.99,3c-1.66,0-3-1.351-3-3h-0.01v-1.58
			c0.93,0.37,1.949,0.58,3.01,0.58C33.064,39.521,34.074,39.32,35.005,38.94z"/>
	</g>
	<g>
		<polygon fill="#D3B1A9" points="38.005,50.521 38.005,55.53 26.005,55.53 26.005,50.521 26.005,50.51 38.005,50.51 		"/>
	</g>
	<g>
		<path fill="#ED5565" d="M29.005,40.521c0,1.649,1.34,3,3,3c1.649,0,2.99-1.351,2.99-3h0.01h3v4v5.989h-12v-5.989v-4h2.99H29.005z"
			/>
	</g>
	<g>
		<rect x="32.005" y="61.51" fill="#D3B1A9" width="6" height="1.99"/>
	</g>
	<g>
		<rect x="26.005" y="61.51" fill="#D3B1A9" width="6" height="1.99"/>
	</g>
	<g>
		<path fill="#E6E9ED" d="M47.003,21.508H16.997c-0.553,0-1-0.447-1-1V1.5c0-0.553,0.447-1,1-1h30.006c0.553,0,1,0.447,1,1v19.008
			C48.003,21.061,47.556,21.508,47.003,21.508z M17.997,19.508h28.006V2.5H17.997V19.508z"/>
	</g>
	<g>
		<path fill="#656D78" d="M30.003,12.502c-0.553,0-1-0.447-1-1V5.5c0-0.553,0.447-1,1-1s1,0.447,1,1v6.002
			C31.003,12.055,30.556,12.502,30.003,12.502z"/>
	</g>
	<g>
		<path fill="#656D78" d="M33.002,12.502h-2.999c-0.553,0-1-0.447-1-1s0.447-1,1-1h2.999c0.553,0,1,0.447,1,1
			S33.555,12.502,33.002,12.502z"/>
	</g>
	<g>
		<path fill="#656D78" d="M33.002,17.5c-0.553,0-1-0.447-1-1v-11c0-0.553,0.447-1,1-1s1,0.447,1,1v11
			C34.002,17.053,33.555,17.5,33.002,17.5z"/>
	</g>
	<path fill="#C4A29B" d="M32.009,60.51c-0.553,0-1,0.447-1,1v1.99h2v-1.99C33.009,60.957,32.562,60.51,32.009,60.51z"/>
	<g>
		<path fill="#CCD1D9" d="M43.002,10.498h-4.999c-0.553,0-1-0.447-1-1s0.447-1,1-1h4.999c0.553,0,1,0.447,1,1
			S43.555,10.498,43.002,10.498z"/>
	</g>
	<g>
		<path fill="#CCD1D9" d="M41.002,13.498h-0.999c-0.553,0-1-0.447-1-1s0.447-1,1-1h0.999c0.553,0,1,0.447,1,1
			S41.555,13.498,41.002,13.498z"/>
	</g>
	<g>
		<path fill="#CCD1D9" d="M25.985,10.498h-4.999c-0.553,0-1-0.447-1-1s0.447-1,1-1h4.999c0.553,0,1,0.447,1,1
			S26.538,10.498,25.985,10.498z"/>
	</g>
	<g>
		<path fill="#CCD1D9" d="M23.985,13.498h-0.999c-0.553,0-1-0.447-1-1s0.447-1,1-1h0.999c0.553,0,1,0.447,1,1
			S24.538,13.498,23.985,13.498z"/>
	</g>
	<g>
		<polygon fill="#ED5565" points="38.005,55.53 40.005,61.51 38.005,61.51 32.005,61.51 26.005,61.51 24.005,61.51 26.005,55.53 		
			"/>
	</g>
</g>
</svg>
