<?xml version="1.0" encoding="utf-8"?>
<!-- Generator: Adobe Illustrator 16.0.0, SVG Export Plug-In . SVG Version: 6.00 Build 0)  -->
<!DOCTYPE svg PUBLIC "-//W3C//DTD SVG 1.1//EN" "http://www.w3.org/Graphics/SVG/1.1/DTD/svg11.dtd">
<svg version="1.1" id="icons" xmlns="http://www.w3.org/2000/svg" xmlns:xlink="http://www.w3.org/1999/xlink" x="0px" y="0px"
	 width="64px" height="64px" viewBox="0 0 64 64" enable-background="new 0 0 64 64" xml:space="preserve">
<g>
	<g>
		<g>
			<polygon fill="#656D78" points="34,8 34,11 30,11 30,8 32,6.01 			"/>
		</g>
		<g>
			<polygon fill="#F5F7FA" points="23,1 32,6.01 30,8 23,5 22.03,3.91 			"/>
		</g>
		<g>
			<polygon fill="#E6E9ED" points="41,1 32,6.01 23,1 			"/>
		</g>
		<g>
			<polygon fill="#545C66" points="30,8 30,11 23,13 23,5 			"/>
		</g>
		<g>
			<path fill="#5D9CEC" d="M41,18c1.66,0,3,1.34,3,3s-1.34,3-3,3s-3-1.34-3-3S39.34,18,41,18z"/>
		</g>
		<g>
			<polygon fill="#F5F7FA" points="58,38.99 58,39 48.99,39 48.99,35.99 58,35.99 			"/>
		</g>
		<g>
			<polygon fill="#F5F7FA" points="32,6.01 41,1 42,4 42,4.01 41,5 34,8 			"/>
		</g>
		<g>
			<polygon fill="#545C66" points="41,5 41,13 34,11 34,8 			"/>
		</g>
		<g>
			<polygon fill="#F5F7FA" points="15,35.99 15,39 6.01,39 6,39 6,35.99 6.01,35.99 			"/>
		</g>
		<g>
			<path fill="#E6E9ED" d="M48.99,35.99V39v24H15V39v-3.01H6.01H6V12c0-4.42,3.58-8,8-8h8l0.03-0.09L23,5v8l7-2h4l7,2V5l1-0.99V4h8
				c4.42,0,8,3.58,8,8v23.99H48.99z M44,21c0-1.66-1.34-3-3-3s-3,1.34-3,3s1.34,3,3,3S44,22.66,44,21z"/>
		</g>
	</g>
	<g>
		<path fill="#CCD1D9" d="M32.028,18.998c-0.553,0-1.005-0.447-1.005-1c0-0.552,0.442-1,0.994-1h0.011c0.552,0,1,0.448,1,1
			C33.028,18.551,32.58,18.998,32.028,18.998z"/>
	</g>
	<g>
		<path fill="#CCD1D9" d="M32.028,27.99c-0.553,0-1.005-0.448-1.005-1c0-0.553,0.442-1,0.994-1h0.011c0.552,0,1,0.447,1,1
			C33.028,27.542,32.58,27.99,32.028,27.99z"/>
	</g>
	<g>
		<path fill="#CCD1D9" d="M32.028,36.98c-0.553,0-1.005-0.447-1.005-1s0.442-1,0.994-1h0.011c0.552,0,1,0.447,1,1
			S32.58,36.98,32.028,36.98z"/>
	</g>
	<g>
		<path fill="#CCD1D9" d="M32.028,45.973c-0.553,0-1.005-0.447-1.005-1s0.442-1,0.994-1h0.011c0.552,0,1,0.447,1,1
			S32.58,45.973,32.028,45.973z"/>
	</g>
	<g>
		<path fill="#CCD1D9" d="M32.028,54.965c-0.553,0-1.005-0.447-1.005-1s0.442-1,0.994-1h0.011c0.552,0,1,0.447,1,1
			S32.58,54.965,32.028,54.965z"/>
	</g>
	<path fill="#CCD1D9" d="M50.995,39V22.006c0-0.553-0.447-1-1-1s-1,0.447-1,1V39H50.995z"/>
	<rect x="48.99" y="35.99" fill="#E6E9ED" width="2.005" height="3.01"/>
	<path fill="#CCD1D9" d="M15,39V22.006c0-0.553-0.447-1-1-1s-1,0.447-1,1V39H15z"/>
	<rect x="12.995" y="35.99" fill="#E6E9ED" width="2.005" height="3.01"/>
</g>
</svg>
