<?xml version="1.0" encoding="utf-8"?>
<!-- Generator: Adobe Illustrator 16.0.0, SVG Export Plug-In . SVG Version: 6.00 Build 0)  -->
<!DOCTYPE svg PUBLIC "-//W3C//DTD SVG 1.1//EN" "http://www.w3.org/Graphics/SVG/1.1/DTD/svg11.dtd">
<svg version="1.1" id="icons" xmlns="http://www.w3.org/2000/svg" xmlns:xlink="http://www.w3.org/1999/xlink" x="0px" y="0px"
	 width="64px" height="64px" viewBox="0 0 64 64" enable-background="new 0 0 64 64" xml:space="preserve">
<g>
	<rect x="25.99" y="61" fill="#656D78" width="12.01" height="2"/>
	<path fill="#ED5565" d="M52,7.99h-1h-3H36h-8H15.98h-3H12c-3.319,0-6,2.69-6,6V26v2v15c0,11.05,8.94,20,19.99,20v-0.01
		c1.66,0,3-1.34,3-3c0-1.65-1.34-3-3-3V57c-7.07,0-12.91-5.239-13.85-12.06C12.05,44.311,12,43.66,12,43v-9c0-5.529,4.471-10,10-10
		c0,1.66,1.34,3,3,3h14c1.66,0,3-1.34,3-3c5.53,0,10,4.471,10,10v9h-0.01c0,0.66-0.04,1.3-0.13,1.931v0.01
		C50.91,51.761,45.07,57,38,57c-1.66,0-3,1.34-3,3c0,1.65,1.34,3,3,3c11.05,0,19.99-8.95,19.99-20H58V13.99
		C58,10.681,55.32,7.99,52,7.99z"/>
	<g>
		<path fill="#545C66" d="M45,2c3.32,0,6,2.681,6,5.99h-3C48,6.34,46.66,5,45,5h-9V2H45z"/>
	</g>
	<g>
		<path fill="#545C66" d="M27.98,2H28v3h-0.02h-9.01c-1.65,0-2.99,1.34-2.99,2.99h-3c0-3.31,2.68-5.99,5.99-5.99H27.98z"/>
	</g>
	<path fill="#656D78" d="M35,1h-6c-0.55,0-1,0.45-1,1v0.99c0,0.55,0,1.45,0,2v1c0,0.55,0,2.226,0,2.501h8c0-0.275,0-1.951,0-2.501
		v-1c0-0.55,0-1.45,0-2V2C36,1.45,35.55,1,35,1z"/>
	<g>
		<path fill="#DA4453" d="M52,34v9h-0.01c0,0.66-0.04,1.3-0.13,1.931C51.391,43.24,49.851,42,48,42H16
			c-1.84,0-3.399,1.25-3.859,2.94C12.05,44.311,12,43.66,12,43v-9c0-5.529,4.471-10,10-10c0,1.66,1.34,3,3,3h14c1.66,0,3-1.34,3-3
			C47.53,24,52,28.471,52,34z"/>
	</g>
	<g>
		<path fill="#E6E9ED" d="M39,14c0.55,0,1,0.45,1,1v3c0,0.55-0.45,1-1,1H25c-0.55,0-1-0.45-1-1v-3c0-0.55,0.45-1,1-1H39z"/>
	</g>
</g>
</svg>
