<?xml version="1.0" encoding="utf-8"?>
<!-- Generator: Adobe Illustrator 16.0.0, SVG Export Plug-In . SVG Version: 6.00 Build 0)  -->
<!DOCTYPE svg PUBLIC "-//W3C//DTD SVG 1.1//EN" "http://www.w3.org/Graphics/SVG/1.1/DTD/svg11.dtd">
<svg version="1.1" id="icons" xmlns="http://www.w3.org/2000/svg" xmlns:xlink="http://www.w3.org/1999/xlink" x="0px" y="0px"
	 width="64px" height="64px" viewBox="0 0 64 64" enable-background="new 0 0 64 64" xml:space="preserve">
<g>
	<g>
		<path fill="#DA4453" d="M10.5,55.502h7v5.99c0-1.93-1.57-3.5-3.5-3.5c-1.94,0-3.5,1.57-3.5,3.5V55.502z"/>
	</g>
	<g>
		<path fill="#DA4453" d="M17.5,55.502h7v5.99c0-1.93-1.57-3.5-3.5-3.5c-1.931,0-3.5,1.57-3.5,3.5V55.502z"/>
	</g>
	<rect x="16.497" y="55.502" fill="#D3374E" width="2" height="6.08"/>
	<g>
		<rect x="10.5" y="51.492" fill="#D3B1A9" width="7" height="4.01"/>
	</g>
	<g>
		<rect x="17.5" y="51.492" fill="#D3B1A9" width="7" height="4.01"/>
	</g>
	<g>
		<path fill="#545C66" d="M37.5,33.447v-5.949h0.029c1.641,0,2.971,1.33,2.971,2.969c0,1.65-1.33,2.98-2.971,2.98H37.5z"/>
	</g>
	<g>
		<path fill="#656D78" d="M37.529,23.498c3.851,0,6.971,3.119,6.971,6.969s-3.12,6.971-6.971,6.971H37.5v-3.99h0.029
			c1.641,0,2.971-1.33,2.971-2.98c0-1.639-1.33-2.969-2.971-2.969H37.5v-4H37.529z"/>
	</g>
	<g>
		<path fill="#545C66" d="M55.5,7.508v48.99h-18V37.438h0.029c3.851,0,6.971-3.121,6.971-6.971s-3.12-6.969-6.971-6.969H37.5V7.508
			c0-1.111,0.899-2,2-2h14C54.6,5.508,55.5,6.396,55.5,7.508z"/>
	</g>
	<g>
		<path fill="#656D78" d="M59.5,58.498v3c0,1.1-0.9,2-2,2h-22c-1.101,0-2-0.9-2-2v-3c0-1.102,0.899-2,2-2h2h18h2
			C58.6,56.498,59.5,57.396,59.5,58.498z"/>
	</g>
	<g>
		<rect x="5.5" y="35.502" fill="#D3374E" width="5" height="3"/>
	</g>
	<g>
		<path fill="#EAC6BB" d="M25.5,11.473v2.029c0,2.961-1.61,5.551-4,6.93c-1.171,0.682-2.54,1.07-4,1.07s-2.83-0.389-4-1.08
			c-2.4-1.369-4.011-3.959-4.011-6.92v-2.029L12.5,9.502c0,0,2,1,5,1s5-1,5-1L25.5,11.473z"/>
	</g>
	<g>
		<path fill="#D3B1A9" d="M24.5,38.502v0.99h-14v-0.99v-3h-5v-8.99v-0.01c0.01-2.219,1.79-4,4-4h3.989v-2.07l0.011-0.01
			c1.17,0.691,2.54,1.08,4,1.08s2.829-0.389,4-1.07v2.07h4c2.21,0,4,1.791,4,4v9h-5V38.502z"/>
	</g>
	<g>
		<path fill="#ED5565" d="M24.5,61.492v1h-7v-1c0-1.93,1.569-3.5,3.5-3.5C22.93,57.992,24.5,59.563,24.5,61.492z"/>
	</g>
	<g>
		<path fill="#965353" d="M25.5,8.502v2.971l-3-1.971c0,0-2,1-5,1s-5-1-5-1l-3.011,1.971V8.502c0-4.42,3.59-8,8.011-8h4v4
			C23.71,4.502,25.5,6.293,25.5,8.502z"/>
	</g>
	<g>
		<path fill="#ED5565" d="M17.5,61.492v1h-7v-1c0-1.93,1.56-3.5,3.5-3.5C15.93,57.992,17.5,59.563,17.5,61.492z"/>
	</g>
	<g>
		<polygon fill="#656D78" points="24.5,45.502 24.5,51.492 17.5,51.492 17.5,43.492 24.5,43.492 24.5,44.502 		"/>
	</g>
	<g>
		<polygon fill="#656D78" points="17.5,43.492 17.5,51.492 10.5,51.492 10.5,45.502 10.5,44.502 10.5,43.492 		"/>
	</g>
	<g>
		<rect x="24.5" y="35.502" fill="#D3374E" width="5" height="3"/>
	</g>
	<g>
		<path fill="#ED5565" d="M27.49,42.492v3.01H24.5v-1c0-1.109,0.89-2.01,2-2.01H27.49z"/>
	</g>
	<g>
		<polygon fill="#E6E9ED" points="24.5,39.492 24.5,43.492 17.5,43.492 10.5,43.492 10.5,39.492 		"/>
	</g>
	<g>
		<path fill="#DA4453" d="M30.49,39.494v4.008c0,1.1-0.891,2-2,2h-1v-3.01H26.5c-1.11,0-2,0.9-2,2.01v-1.01v-4v-0.99h5L30.49,39.494
			z"/>
	</g>
	<g>
		<path fill="#DA4453" d="M10.5,43.492v1.01c0-1.109-0.89-2.01-2-2.01H7.51v3.01h-1c-1.11,0-2-0.9-2-2v-4.008l0.99-0.992h5v0.99
			V43.492z"/>
	</g>
	<g>
		<path fill="#ED5565" d="M8.5,42.492c1.11,0,2,0.9,2,2.01v1H7.51v-3.01H8.5z"/>
	</g>
	<g>
		<path fill="#ED5565" d="M16.496,63.496h-4.998c-0.553,0-1-0.447-1-1s0.447-1,1-1h4.998c0.553,0,1,0.447,1,1
			S17.049,63.496,16.496,63.496z"/>
	</g>
	<g>
		<path fill="#ED5565" d="M23.499,63.496h-4.998c-0.553,0-1-0.447-1-1s0.447-1,1-1h4.998c0.553,0,1,0.447,1,1
			S24.052,63.496,23.499,63.496z"/>
	</g>
	<path fill="#C4A29B" d="M25.499,35.502V29.51c0-0.553-0.447-1-1-1v6.992H25.499z"/>
	<path fill="#C4A29B" d="M9.497,35.502V29.51c0-0.553,0.447-1,1-1v6.992H9.497z"/>
	<rect x="16.497" y="43.496" fill="#545C66" width="2" height="7.996"/>
	<rect x="16.497" y="51.492" fill="#C4A29B" width="2" height="4.01"/>
	<circle fill="#DA4453" cx="5.5" cy="39.492" r="1"/>
	<circle fill="#DA4453" cx="29.5" cy="39.492" r="1"/>
</g>
</svg>
