<?xml version="1.0" encoding="utf-8"?>
<!-- Generator: Adobe Illustrator 16.0.0, SVG Export Plug-In . SVG Version: 6.00 Build 0)  -->
<!DOCTYPE svg PUBLIC "-//W3C//DTD SVG 1.1//EN" "http://www.w3.org/Graphics/SVG/1.1/DTD/svg11.dtd">
<svg version="1.1" id="icons" xmlns="http://www.w3.org/2000/svg" xmlns:xlink="http://www.w3.org/1999/xlink" x="0px" y="0px"
	 width="64px" height="64px" viewBox="0 0 64 64" enable-background="new 0 0 64 64" xml:space="preserve">
<g>
	<path fill="#DA4453" d="M10.009,42.995c0,0.55,0.45,1,1,1h11.012c0.55,0,1-0.45,1-1v-15.99c0-0.55-0.45-1-1-1H11.009
		c-0.55,0-1,0.45-1,1V42.995z"/>
	<g>
		<path fill="#DA4453" d="M48.009,19.005v3h-19.99c0-3.319,2.681-6,5.99-6h11C46.669,16.005,48.009,17.355,48.009,19.005z"/>
	</g>
	<g>
		<path fill="#ED5565" d="M55.009,28.005v13.99c0,3.3-2.71,6-6,6h-23.99c-2.22,0-4-1.78-4.01-4h0.01v-17.99c0-2.22,1.79-4,4-4h3
			h19.99h1C52.299,22.005,55.009,24.705,55.009,28.005z"/>
	</g>
	<g>
		<rect x="13.009" y="39.995" fill="#ED5565" width="5" height="4"/>
	</g>
	<g>
		<rect x="13.009" y="26.005" fill="#656D78" width="5" height="13.99"/>
	</g>
	<g>
		<rect x="1.009" y="27.015" fill="#EAC6BB" width="9" height="16.061"/>
	</g>
	<g>
		<g>
			<path fill="#E6E9ED" d="M49,57.002c-0.553,0-1-0.447-1-1s0.447-1,1-1c7.168,0,13-5.832,13-13c0-0.553,0.447-1,1-1s1,0.447,1,1
				C64,50.273,57.271,57.002,49,57.002z"/>
		</g>
		<g>
			<path fill="#E6E9ED" d="M49,53.002c-0.553,0-1-0.447-1-1s0.447-1,1-1c4.963,0,9-4.037,9-9c0-0.553,0.447-1,1-1s1,0.447,1,1
				C60,48.067,55.065,53.002,49,53.002z"/>
		</g>
		<g>
			<path fill="#E6E9ED" d="M63,23.002c-0.553,0-1-0.447-1-1c0-7.168-5.832-13-13-13c-0.553,0-1-0.447-1-1s0.447-1,1-1
				c8.271,0,15,6.729,15,15C64,22.555,63.553,23.002,63,23.002z"/>
		</g>
		<g>
			<path fill="#E6E9ED" d="M59,23.002c-0.553,0-1-0.447-1-1c0-4.963-4.037-9-9-9c-0.553,0-1-0.447-1-1s0.447-1,1-1
				c6.065,0,11,4.935,11,11C60,22.555,59.553,23.002,59,23.002z"/>
		</g>
		<g>
			<path fill="#E6E9ED" d="M49,57.002H29.028c-0.553,0-1-0.447-1-1s0.447-1,1-1H49c0.553,0,1,0.447,1,1S49.553,57.002,49,57.002z"/>
		</g>
		<g>
			<path fill="#E6E9ED" d="M62.997,42.986c-0.553,0-1-0.447-1-1V21.908c0-0.553,0.447-1,1-1s1,0.447,1,1v20.078
				C63.997,42.539,63.55,42.986,62.997,42.986z"/>
		</g>
		<g>
			<path fill="#E6E9ED" d="M49,8.998H27.016c-0.553,0-1-0.447-1-1s0.447-1,1-1H49c0.553,0,1,0.447,1,1S49.553,8.998,49,8.998z"/>
		</g>
		<g>
			<path fill="#E6E9ED" d="M59,43.002c-0.553,0-1-0.447-1-1v-20c0-0.553,0.447-1,1-1s1,0.447,1,1v20
				C60,42.555,59.553,43.002,59,43.002z"/>
		</g>
		<g>
			<path fill="#E6E9ED" d="M49,13.002H14.014c-0.553,0-1-0.447-1-1s0.447-1,1-1H49c0.553,0,1,0.447,1,1S49.553,13.002,49,13.002z"/>
		</g>
		<g>
			<path fill="#E6E9ED" d="M49,53.002H10.009c-0.553,0-1-0.447-1-1s0.447-1,1-1H49c0.553,0,1,0.447,1,1S49.553,53.002,49,53.002z"/>
		</g>
		<g>
			<path fill="#E6E9ED" d="M24,18.002H5.002c-0.553,0-1-0.447-1-1s0.447-1,1-1H24c0.553,0,1,0.447,1,1S24.553,18.002,24,18.002z"/>
		</g>
		<g>
			<path fill="#E6E9ED" d="M17.994,49.031h-1.981c-0.553,0-1-0.447-1-1s0.447-1,1-1h1.981c0.553,0,1,0.447,1,1
				S18.547,49.031,17.994,49.031z"/>
		</g>
		<g>
			<path fill="#E6E9ED" d="M18,23.002H6.998c-0.553,0-1-0.447-1-1s0.447-1,1-1H18c0.553,0,1,0.447,1,1S18.553,23.002,18,23.002z"/>
		</g>
		<g>
			<path fill="#E6E9ED" d="M2.999,23.002H1.001c-0.553,0-1-0.447-1-1s0.447-1,1-1h1.998c0.553,0,1,0.447,1,1
				S3.552,23.002,2.999,23.002z"/>
		</g>
		<g>
			<path fill="#E6E9ED" d="M13.011,49.002H1c-0.553,0-1-0.447-1-1s0.447-1,1-1h12.011c0.553,0,1,0.447,1,1
				S13.563,49.002,13.011,49.002z"/>
		</g>
	</g>
</g>
</svg>
