<?xml version="1.0" encoding="utf-8"?>
<!-- Generator: Adobe Illustrator 16.0.0, SVG Export Plug-In . SVG Version: 6.00 Build 0)  -->
<!DOCTYPE svg PUBLIC "-//W3C//DTD SVG 1.1//EN" "http://www.w3.org/Graphics/SVG/1.1/DTD/svg11.dtd">
<svg version="1.1" id="icons" xmlns="http://www.w3.org/2000/svg" xmlns:xlink="http://www.w3.org/1999/xlink" x="0px" y="0px"
	 width="64px" height="64px" viewBox="0 0 64 64" enable-background="new 0 0 64 64" xml:space="preserve">
<g>
	<path fill="#CCD1D9" d="M54.5,62c0,0.55-0.45,1-1,1h-43c-0.55,0-1-0.45-1-1V5c0-0.55,0.45-1,1-1h43c0.55,0,1,0.45,1,1V62z"/>
	<path fill="#E6E9ED" d="M54.5,59c0,0.55-0.45,1-1,1h-43c-0.55,0-1-0.45-1-1V2c0-0.55,0.45-1,1-1h43c0.55,0,1,0.45,1,1V59z"/>
	<path fill="#ED5565" d="M53.5,1h-43c-0.55,0-1,0.45-1,1v15h45V2C54.5,1.45,54.05,1,53.5,1z"/>
	<g>
		<g>
			<path fill="#DA4453" d="M16.5,13.004c-0.553,0-1-0.447-1-1V6.002c0-0.553,0.447-1,1-1s1,0.447,1,1v6.002
				C17.5,12.557,17.053,13.004,16.5,13.004z"/>
		</g>
		<g>
			<path fill="#DA4453" d="M18,10.002c-0.553,0-1-0.447-1-1s0.447-1,1-1c0.275,0,0.5-0.225,0.5-0.5s-0.225-0.5-0.5-0.5
				c-0.553,0-1-0.447-1-1s0.447-1,1-1c1.379,0,2.5,1.121,2.5,2.5S19.379,10.002,18,10.002z"/>
		</g>
		<g>
			<path fill="#DA4453" d="M18,10.002h-1.5c-0.553,0-1-0.447-1-1s0.447-1,1-1H18c0.553,0,1,0.447,1,1S18.553,10.002,18,10.002z"/>
		</g>
		<g>
			<path fill="#DA4453" d="M18,7.002h-1.5c-0.553,0-1-0.447-1-1s0.447-1,1-1H18c0.553,0,1,0.447,1,1S18.553,7.002,18,7.002z"/>
		</g>
		<g>
			<path fill="#DA4453" d="M19.501,13.002c-0.323,0-0.641-0.156-0.833-0.445l-2-3c-0.307-0.46-0.183-1.08,0.277-1.387
				c0.46-0.306,1.081-0.183,1.387,0.277l2,3c0.307,0.46,0.183,1.08-0.277,1.387C19.884,12.947,19.691,13.002,19.501,13.002z"/>
		</g>
		<g>
			<path fill="#DA4453" d="M26.5,9.002c-0.553,0-1-0.447-1-1c0-0.552-0.448-1-1-1s-1,0.448-1,1c0,0.553-0.447,1-1,1s-1-0.447-1-1
				c0-1.654,1.346-3,3-3s3,1.346,3,3C27.5,8.555,27.053,9.002,26.5,9.002z"/>
		</g>
		<g>
			<path fill="#DA4453" d="M24.5,13.002c-1.654,0-3-1.346-3-3c0-0.553,0.447-1,1-1s1,0.447,1,1c0,0.552,0.448,1,1,1s1-0.448,1-1
				c0-0.553,0.447-1,1-1s1,0.447,1,1C27.5,11.656,26.154,13.002,24.5,13.002z"/>
		</g>
		<g>
			<path fill="#DA4453" d="M31.502,13.002c-1.654,0-3-1.346-3-3c0-0.553,0.447-1,1-1s1,0.447,1,1c0,0.552,0.448,1,1,1s1-0.448,1-1
				c0-0.553,0.447-1,1-1s1,0.447,1,1C34.502,11.656,33.156,13.002,31.502,13.002z"/>
		</g>
		<g>
			<path fill="#DA4453" d="M22.5,11.002c-0.553,0-1-0.447-1-1v-2c0-0.553,0.447-1,1-1s1,0.447,1,1v2
				C23.5,10.555,23.053,11.002,22.5,11.002z"/>
		</g>
		<g>
			<path fill="#DA4453" d="M26.5,11.002c-0.553,0-1-0.447-1-1v-2c0-0.553,0.447-1,1-1s1,0.447,1,1v2
				C27.5,10.555,27.053,11.002,26.5,11.002z"/>
		</g>
		<g>
			<path fill="#DA4453" d="M29.502,11.002c-0.553,0-1-0.447-1-1v-4c0-0.553,0.447-1,1-1s1,0.447,1,1v4
				C30.502,10.555,30.055,11.002,29.502,11.002z"/>
		</g>
		<g>
			<path fill="#DA4453" d="M33.502,11.002c-0.553,0-1-0.447-1-1v-4c0-0.553,0.447-1,1-1s1,0.447,1,1v4
				C34.502,10.555,34.055,11.002,33.502,11.002z"/>
		</g>
		<g>
			<path fill="#DA4453" d="M36.5,13.002c-0.553,0-1-0.447-1-1v-6c0-0.553,0.447-1,1-1s1,0.447,1,1v6
				C37.5,12.555,37.053,13.002,36.5,13.002z"/>
		</g>
		<g>
			<path fill="#DA4453" d="M40.503,13.004c-0.323,0-0.641-0.156-0.833-0.445l-4.002-6.002c-0.307-0.459-0.183-1.08,0.277-1.387
				c0.461-0.307,1.081-0.183,1.387,0.277l4.002,6.002c0.307,0.459,0.183,1.08-0.277,1.387
				C40.886,12.949,40.693,13.004,40.503,13.004z"/>
		</g>
		<g>
			<path fill="#DA4453" d="M40.502,13.004c-0.553,0-1-0.447-1-1V6.002c0-0.553,0.447-1,1-1s1,0.447,1,1v6.002
				C41.502,12.557,41.055,13.004,40.502,13.004z"/>
		</g>
		<g>
			<path fill="#DA4453" d="M43.5,13.004c-0.553,0-1-0.447-1-1V6.002c0-0.553,0.447-1,1-1s1,0.447,1,1v6.002
				C44.5,12.557,44.053,13.004,43.5,13.004z"/>
		</g>
		<g>
			<path fill="#DA4453" d="M45.502,13.002c-0.553,0-1-0.447-1-1s0.447-1,1-1c0.552,0,1-0.448,1-1c0-0.553,0.447-1,1-1s1,0.447,1,1
				C48.502,11.656,47.156,13.002,45.502,13.002z"/>
		</g>
		<g>
			<path fill="#DA4453" d="M47.502,9.002c-0.553,0-1-0.447-1-1c0-0.552-0.448-1-1-1c-0.553,0-1-0.447-1-1s0.447-1,1-1
				c1.654,0,3,1.346,3,3C48.502,8.555,48.055,9.002,47.502,9.002z"/>
		</g>
		<g>
			<path fill="#DA4453" d="M47.502,11c-0.553,0-1-0.447-1-1V8.002c0-0.553,0.447-1,1-1s1,0.447,1,1V10
				C48.502,10.553,48.055,11,47.502,11z"/>
		</g>
		<g>
			<path fill="#DA4453" d="M45.5,13.002h-2c-0.553,0-1-0.447-1-1s0.447-1,1-1h2c0.553,0,1,0.447,1,1S46.053,13.002,45.5,13.002z"/>
		</g>
		<g>
			<path fill="#DA4453" d="M45.5,7.002h-2c-0.553,0-1-0.447-1-1s0.447-1,1-1h2c0.553,0,1,0.447,1,1S46.053,7.002,45.5,7.002z"/>
		</g>
	</g>
	<g>
		<g>
			<path fill="#656D78" d="M23.488,52.004c-0.553,0-1-0.447-1-1V25.996c0-0.553,0.447-1,1-1s1,0.447,1,1v25.008
				C24.488,51.557,24.041,52.004,23.488,52.004z"/>
		</g>
		<g>
			<path fill="#656D78" d="M20.492,29.996c-0.256,0-0.512-0.098-0.707-0.292c-0.391-0.391-0.391-1.023-0.001-1.415l2.996-3
				c0.391-0.391,1.024-0.39,1.415-0.001c0.391,0.391,0.391,1.023,0.001,1.415l-2.996,3C21.005,29.898,20.748,29.996,20.492,29.996z"
				/>
		</g>
		<g>
			<path fill="#656D78" d="M26.488,52.004H20.49c-0.553,0-1-0.447-1-1s0.447-1,1-1h5.998c0.553,0,1,0.447,1,1
				S27.041,52.004,26.488,52.004z"/>
		</g>
		<g>
			<path fill="#656D78" d="M43.51,32.996c-0.553,0-1-0.447-1-1c0-2.757-2.243-5-5-5s-5,2.243-5,5c0,0.553-0.447,1-1,1s-1-0.447-1-1
				c0-3.859,3.141-7,7-7s7,3.141,7,7C44.51,32.549,44.063,32.996,43.51,32.996z"/>
		</g>
		<g>
			<path fill="#656D78" d="M37.5,52.004c-3.865,0-7.01-3.145-7.01-7.01c0-0.553,0.447-1,1-1s1,0.447,1,1
				c0,2.763,2.247,5.01,5.01,5.01s5.01-2.247,5.01-5.01c0-0.553,0.447-1,1-1s1,0.447,1,1C44.51,48.859,41.365,52.004,37.5,52.004z"
				/>
		</g>
		<g>
			<path fill="#656D78" d="M31.49,45.996c-0.553,0-1-0.447-1-1v-13c0-0.553,0.447-1,1-1s1,0.447,1,1v13
				C32.49,45.549,32.043,45.996,31.49,45.996z"/>
		</g>
		<g>
			<path fill="#656D78" d="M43.494,45.996c-0.553,0-1-0.447-1-1v-13c0-0.553,0.447-1,1-1s1,0.447,1,1v13
				C44.494,45.549,44.047,45.996,43.494,45.996z"/>
		</g>
	</g>
</g>
</svg>
