<?xml version="1.0" encoding="utf-8"?>
<!-- Generator: Adobe Illustrator 16.0.0, SVG Export Plug-In . SVG Version: 6.00 Build 0)  -->
<!DOCTYPE svg PUBLIC "-//W3C//DTD SVG 1.1//EN" "http://www.w3.org/Graphics/SVG/1.1/DTD/svg11.dtd">
<svg version="1.1" id="icons" xmlns="http://www.w3.org/2000/svg" xmlns:xlink="http://www.w3.org/1999/xlink" x="0px" y="0px"
	 width="64px" height="64px" viewBox="0 0 64 64" enable-background="new 0 0 64 64" xml:space="preserve">
<g>
	<g>
		<polygon fill="#DA4453" points="46,10.5 42,14.5 42,10.5 		"/>
	</g>
	<g>
		<polygon fill="#ED5565" points="46,6.5 46,10.5 42,10.5 32,10.5 32,2.5 46,2.5 		"/>
	</g>
	<g>
		<polygon fill="#D3374E" points="56,6.5 54,10.5 56,14.5 42,14.5 46,10.5 46,6.5 		"/>
	</g>
	<path fill="#E6E9ED" d="M32,0.5c-0.553,0-1,0.447-1,1v61.999h2V1.5C33,0.947,32.553,0.5,32,0.5z"/>
	<path fill="#434A54" d="M12.009,54.489V62.5c0,0.55,0.45,1,1,1h11.99c0.55,0,1-0.45,1-1v-8.011H12.009z"/>
	<path fill="#434A54" d="M38.001,54.489V62.5c0,0.55,0.45,1,1,1h11.99c0.55,0,1-0.45,1-1v-8.011H38.001z"/>
	<g>
		<path fill="#434A54" d="M59.501,33.5c1.38,0,2.5,1.12,2.5,2.5v8.49c0,2.771-2.24,5.01-5.01,5.01v-0.01V33.5H59.501z"/>
	</g>
	<g>
		<rect x="45.001" y="57.53" fill="#AAB2BD" width="6.99" height="2.96"/>
	</g>
	<g>
		<path fill="#545C66" d="M56.991,33.5v15.99v0.01c-0.01,2.75-2.25,4.99-5,4.99h-6.99h-7c-2.75,0-5-2.25-5-5V31.5
			c0,4.41,3.58,7.99,8,7.99h7c4.97,0,8.99-4.02,8.99-8.99V33.5z"/>
	</g>
	<g>
		<path fill="#656D78" d="M56.991,30.5c0,4.971-4.021,8.99-8.99,8.99h-7c-4.42,0-8-3.58-8-7.99v-1c0-2.75,2.25-5,5-5h14.99
			C55.741,25.5,56.991,27.75,56.991,30.5z"/>
	</g>
	<g>
		<path fill="#434A54" d="M7.009,33.5v15.99v0.01c-2.77,0-5.01-2.239-5.01-5.01V36c0-1.38,1.12-2.5,2.5-2.5H7.009z"/>
	</g>
	<g>
		<path fill="#545C66" d="M18.999,54.49h-6.99c-2.75,0-4.99-2.24-5-4.99v-0.01V33.5v-3c0,4.971,3.021,8.99,7.99,8.99h8
			c4.42,0,8-3.57,8-7.99v17.99c0,2.75-2.25,5-5,5H18.999z"/>
	</g>
	<g>
		<rect x="12.009" y="57.53" fill="#AAB2BD" width="6.99" height="2.96"/>
	</g>
	<g>
		<path fill="#656D78" d="M30.999,30.5v1c0,4.42-3.58,7.99-8,7.99h-8c-4.97,0-7.99-4.02-7.99-8.99c0-2.75,1.25-5,4-5h14.99
			C28.749,25.5,30.999,27.75,30.999,30.5z"/>
	</g>
	<path fill="#656D78" d="M19,46.5c-0.553,0-1,0.447-1,1v6.998h2V47.5C20,46.947,19.553,46.5,19,46.5z"/>
	<path fill="#656D78" d="M45,46.5c-0.553,0-1,0.447-1,1v6.998h2V47.5C46,46.947,45.553,46.5,45,46.5z"/>
</g>
</svg>
