<?xml version="1.0" encoding="utf-8"?>
<!-- Generator: Adobe Illustrator 16.0.0, SVG Export Plug-In . SVG Version: 6.00 Build 0)  -->
<!DOCTYPE svg PUBLIC "-//W3C//DTD SVG 1.1//EN" "http://www.w3.org/Graphics/SVG/1.1/DTD/svg11.dtd">
<svg version="1.1" id="icons" xmlns="http://www.w3.org/2000/svg" xmlns:xlink="http://www.w3.org/1999/xlink" x="0px" y="0px"
	 width="64px" height="64px" viewBox="0 0 64 64" enable-background="new 0 0 64 64" xml:space="preserve">
<g>
	<g>
		<g>
			<polygon fill="#A0D468" points="60.33,50.494 57.668,46.494 52.998,39.494 10.998,39.5 8.328,43.502 1,54.502 9.85,54.5 
				54.15,54.494 63,54.492 			"/>
		</g>
		<g>
			<path fill="#545C66" d="M29.904,44.498c-1.199-1.221-2.801-2.939-4.471-5C21.402,34.51,17.002,27.459,17,20.5
				c0-8.281,6.709-15.002,14.998-15.002C40.289,5.496,47,12.215,47,20.496c0.002,6.959-4.398,14.01-8.426,19
				c-1.67,2.061-3.27,3.781-4.471,5.002h-0.01c-1.26,1.27-2.09,2-2.09,2S31.174,45.768,29.904,44.498z"/>
		</g>
		<g>
			<polygon fill="#8CC152" points="60.33,50.494 54.34,50.494 54.33,50.494 50.328,46.494 57.668,46.494 			"/>
		</g>
		<g>
			<polygon fill="#8CC152" points="38.098,48.496 42.428,44.496 47.869,53.496 24.129,53.498 20.129,49.5 			"/>
		</g>
		<g>
			<polygon fill="#E6E9ED" points="60.33,50.494 63,54.492 54.15,54.494 52.24,50.494 			"/>
		</g>
		<g>
			<path fill="#E6E9ED" d="M31.998,46.498c0,0,0.83-0.73,2.09-2h0.01l8.33-0.002l1.441,5L20.129,49.5l1.439-5l8.33-0.002
				C31.168,45.768,31.998,46.498,31.998,46.498z"/>
		</g>
		<g>
			<polygon fill="#E6E9ED" points="15.088,43.5 9.85,54.5 1,54.502 8.328,43.502 			"/>
		</g>
		<g>
			<polygon fill="#8CC152" points="19.088,47.5 15.754,54.5 9.85,54.5 15.088,43.5 			"/>
		</g>
		<g>
			<polygon fill="#81B53E" points="63,54.492 63,58.492 1,58.502 1,54.502 9.85,54.5 54.15,54.494 			"/>
		</g>
		<g>
			<polygon fill="#E6E9ED" points="57.668,46.494 50.338,46.494 50.328,46.494 46.998,39.496 52.998,39.494 			"/>
		</g>
	</g>
	<g>
		<path fill="#3679CE" d="M40,19.002v4.5c0,1.66-1.34,3-3,3v-9h1.5C39.33,17.502,40,18.172,40,19.002z"/>
	</g>
	<g>
		<path fill="#3679CE" d="M34,26.5c0.55,0,1,0.45,1,1v3.002c0,0.55-0.45,1-1,1h-5c-0.55,0-1-0.45-1-1V27.5c0-0.55,0.45-1,1-1H34z"/>
	</g>
	<g>
		<path fill="#5D9CEC" d="M37,17.492v0.01c-0.01,1.66-1.34,2.99-3,2.99h-5c-1.66,0-3-1.34-3-3v-0.99c0-1.1,0.9-2,2-2h7
			c1.1,0,2,0.9,2,2V17.492z"/>
	</g>
	<g>
		<path fill="#4A89DC" d="M37,17.502v9c0,1.101-0.9,2-2,2h-7c-1.1,0-2-0.899-2-2v-9.01c0,1.66,1.34,3,3,3h5
			C35.66,20.492,36.99,19.162,37,17.502z"/>
	</g>
</g>
</svg>
