<?xml version="1.0" encoding="utf-8"?>
<!-- Generator: Adobe Illustrator 16.0.0, SVG Export Plug-In . SVG Version: 6.00 Build 0)  -->
<!DOCTYPE svg PUBLIC "-//W3C//DTD SVG 1.1//EN" "http://www.w3.org/Graphics/SVG/1.1/DTD/svg11.dtd">
<svg version="1.1" id="icons" xmlns="http://www.w3.org/2000/svg" xmlns:xlink="http://www.w3.org/1999/xlink" x="0px" y="0px"
	 width="64px" height="64px" viewBox="0 0 64 64" enable-background="new 0 0 64 64" xml:space="preserve">
<g>
	<g>
		<path fill="#656D78" d="M31.996,28.009c-0.553,0-1-0.447-1-1v-1.997c0-0.553,0.447-1,1-1s1,0.447,1,1v1.997
			C32.996,27.562,32.549,28.009,31.996,28.009z"/>
	</g>
	<g>
		<polygon fill="#E6E9ED" points="3.005,30.999 3.005,31.009 3.005,55.999 26.995,55.999 26.995,46.009 31.995,46.009 
			37.005,46.009 37.005,55.999 60.995,55.999 60.995,31.009 60.995,30.999 		"/>
		<polygon fill="#ED5565" points="31.995,26.999 60.995,26.999 62.995,30.999 60.995,30.999 3.005,30.999 1.005,30.999 
			2.995,26.999 		"/>
		<rect x="53.005" y="46.009" fill="#5D9CEC" width="4" height="5"/>
		<rect x="52.995" y="35.999" fill="#5D9CEC" width="4" height="5"/>
		<rect x="43.995" y="46.009" fill="#5D9CEC" width="4" height="5"/>
		<rect x="43.995" y="35.999" fill="#5D9CEC" width="4" height="5"/>
		<rect x="35.015" y="35.999" fill="#5D9CEC" width="4" height="5"/>
		<rect x="31.995" y="46.009" fill="#545C66" width="5.01" height="9.99"/>
		<rect x="26.995" y="46.009" fill="#545C66" width="5" height="9.99"/>
		<rect x="25.005" y="35.999" fill="#5D9CEC" width="4" height="5"/>
		<rect x="16.005" y="46.009" fill="#5D9CEC" width="4" height="5"/>
		<rect x="16.005" y="35.999" fill="#5D9CEC" width="4" height="5"/>
		<rect x="7.005" y="35.999" fill="#5D9CEC" width="4" height="5"/>
		<rect x="7.005" y="46.009" fill="#5D9CEC" width="4" height="5"/>
		<path fill="#ED5565" d="M1,32.003c-0.15,0-0.303-0.035-0.446-0.105c-0.494-0.248-0.694-0.848-0.447-1.342l1.999-4
			c0.246-0.494,0.848-0.693,1.342-0.447s0.694,0.848,0.447,1.342l-1.999,4C1.721,31.8,1.367,32.003,1,32.003z"/>
		<path fill="#ED5565" d="M63,32.003c-0.367,0-0.721-0.203-0.896-0.553l-1.999-4c-0.247-0.494-0.047-1.096,0.447-1.342
			c0.493-0.246,1.096-0.047,1.342,0.447l1.999,4c0.247,0.494,0.047,1.094-0.447,1.342C63.303,31.968,63.15,32.003,63,32.003z"/>
		<path fill="#ED5565" d="M62.999,32.003H1.001c-0.553,0-1-0.447-1-1s0.447-1,1-1h61.998c0.553,0,1,0.447,1,1
			S63.552,32.003,62.999,32.003z"/>
		<g>
			<path fill="#FFFFFF" d="M11.008,41.497h-4c-0.276,0-0.5-0.223-0.5-0.5v-5c0-0.275,0.224-0.5,0.5-0.5h4c0.276,0,0.5,0.225,0.5,0.5
				v5C11.508,41.274,11.284,41.497,11.008,41.497z M7.508,40.497h3v-4h-3V40.497z"/>
		</g>
		<g>
			<path fill="#FFFFFF" d="M20.009,41.497h-4c-0.276,0-0.5-0.223-0.5-0.5v-5c0-0.275,0.224-0.5,0.5-0.5h4c0.276,0,0.5,0.225,0.5,0.5
				v5C20.509,41.274,20.285,41.497,20.009,41.497z M16.509,40.497h3v-4h-3V40.497z"/>
		</g>
		<g>
			<path fill="#FFFFFF" d="M29.01,41.497h-4c-0.276,0-0.5-0.223-0.5-0.5v-5c0-0.275,0.224-0.5,0.5-0.5h4c0.276,0,0.5,0.225,0.5,0.5
				v5C29.51,41.274,29.286,41.497,29.01,41.497z M25.51,40.497h3v-4h-3V40.497z"/>
		</g>
		<g>
			<path fill="#FFFFFF" d="M39.018,41.497h-4c-0.276,0-0.5-0.223-0.5-0.5v-5c0-0.275,0.224-0.5,0.5-0.5h4c0.276,0,0.5,0.225,0.5,0.5
				v5C39.518,41.274,39.294,41.497,39.018,41.497z M35.518,40.497h3v-4h-3V40.497z"/>
		</g>
		<g>
			<path fill="#FFFFFF" d="M48.003,41.497h-4c-0.276,0-0.5-0.223-0.5-0.5v-5c0-0.275,0.224-0.5,0.5-0.5h4c0.276,0,0.5,0.225,0.5,0.5
				v5C48.503,41.274,48.279,41.497,48.003,41.497z M44.503,40.497h3v-4h-3V40.497z"/>
		</g>
		<g>
			<path fill="#FFFFFF" d="M57.004,41.497h-4c-0.276,0-0.5-0.223-0.5-0.5v-5c0-0.275,0.224-0.5,0.5-0.5h4c0.276,0,0.5,0.225,0.5,0.5
				v5C57.504,41.274,57.28,41.497,57.004,41.497z M53.504,40.497h3v-4h-3V40.497z"/>
		</g>
		<g>
			<path fill="#FFFFFF" d="M11.007,51.507h-4c-0.276,0-0.5-0.223-0.5-0.5v-5c0-0.275,0.224-0.5,0.5-0.5h4c0.276,0,0.5,0.225,0.5,0.5
				v5C11.507,51.284,11.283,51.507,11.007,51.507z M7.507,50.507h3v-4h-3V50.507z"/>
		</g>
		<g>
			<path fill="#FFFFFF" d="M20.008,51.507h-4c-0.276,0-0.5-0.223-0.5-0.5v-5c0-0.275,0.224-0.5,0.5-0.5h4c0.276,0,0.5,0.225,0.5,0.5
				v5C20.508,51.284,20.284,51.507,20.008,51.507z M16.508,50.507h3v-4h-3V50.507z"/>
		</g>
		<g>
			<path fill="#545C66" d="M37.009,56.499H27.003c-0.276,0-0.5-0.225-0.5-0.5v-9.988c0-0.275,0.224-0.5,0.5-0.5h10.006
				c0.276,0,0.5,0.225,0.5,0.5v9.988C37.509,56.274,37.285,56.499,37.009,56.499z M27.503,55.499h9.006v-8.988h-9.006V55.499z"/>
		</g>
		<g>
			<path fill="#FFFFFF" d="M48.004,51.507h-4c-0.276,0-0.5-0.223-0.5-0.5v-5c0-0.275,0.224-0.5,0.5-0.5h4c0.276,0,0.5,0.225,0.5,0.5
				v5C48.504,51.284,48.28,51.507,48.004,51.507z M44.504,50.507h3v-4h-3V50.507z"/>
		</g>
		<g>
			<path fill="#FFFFFF" d="M57.005,51.507h-4c-0.276,0-0.5-0.223-0.5-0.5v-5c0-0.275,0.224-0.5,0.5-0.5h4c0.276,0,0.5,0.225,0.5,0.5
				v5C57.505,51.284,57.281,51.507,57.005,51.507z M53.505,50.507h3v-4h-3V50.507z"/>
		</g>
		<path fill="#434A54" d="M31.504,45.511v10.484c0,0.275,0.224,0.5,0.5,0.5s0.5-0.225,0.5-0.5V45.511H31.504z"/>
		<path fill="#656D78" d="M63,56.995H1c-0.553,0-1-0.447-1-1s0.447-1,1-1h62c0.553,0,1,0.447,1,1S63.553,56.995,63,56.995z"/>
	</g>
	<g>
		<path fill="#ED5565" d="M61,28.003H3c-0.553,0-1-0.447-1-1s0.447-1,1-1h58c0.553,0,1,0.447,1,1S61.553,28.003,61,28.003z"/>
	</g>
	<g>
		<path fill="#ED5565" d="M38,10.005c-0.01,1.66-1.34,2.99-3,2.99h-6c-1.66,0-3-1.34-3-3v-0.99c0-1.1,0.9-2,2-2h8c1.1,0,2,0.9,2,2
			v0.99V10.005z"/>
	</g>
	<g>
		<path fill="#D3374E" d="M41,11.505v5.5c0,1.66-1.34,3-3,3v-10h1.5C40.33,10.005,41,10.675,41,11.505z"/>
	</g>
	<g>
		<path fill="#D3374E" d="M35,21.004c0.55,0,1,0.45,1,1v2.001c0,0.55-0.45,1-1,1h-6c-0.55,0-1-0.45-1-1v-2.001c0-0.55,0.45-1,1-1H35
			z"/>
	</g>
	<g>
		<path fill="#DA4453" d="M38,10.005v10c0,1.101-0.9,2-2,2h-8c-1.1,0-2-0.899-2-2V9.995c0,1.66,1.34,3,3,3h6
			C36.66,12.995,37.99,11.665,38,10.005z"/>
	</g>
</g>
</svg>
