<?xml version="1.0" encoding="utf-8"?>
<!-- Generator: Adobe Illustrator 16.0.0, SVG Export Plug-In . SVG Version: 6.00 Build 0)  -->
<!DOCTYPE svg PUBLIC "-//W3C//DTD SVG 1.1//EN" "http://www.w3.org/Graphics/SVG/1.1/DTD/svg11.dtd">
<svg version="1.1" id="icons" xmlns="http://www.w3.org/2000/svg" xmlns:xlink="http://www.w3.org/1999/xlink" x="0px" y="0px"
	 width="64px" height="64px" viewBox="0 0 64 64" enable-background="new 0 0 64 64" xml:space="preserve">
<g>
	<g>
		<g>
			<g>
				<g>
					<polygon fill="#CCD1D9" points="42.521,49.971 42.521,52.99 42.502,52.99 0.49,52.99 0.49,49.971 42.502,49.971 					"/>
				</g>
				<g>
					<polygon fill="#CCD1D9" points="42.502,55.99 0.49,56.011 0.49,52.99 42.502,52.99 42.521,52.99 42.521,55.99 					"/>
				</g>
				<g>
					<rect x="0.49" y="50.972" fill="#E6E9ED" width="42.031" height="1"/>
				</g>
				<g>
					<rect x="0.49" y="52.99" fill="#E6E9ED" width="42.031" height="1"/>
				</g>
				<g>
					<rect x="0.49" y="55.009" fill="#E6E9ED" width="42.031" height="1"/>
				</g>
			</g>
			<g>
				<path fill="#ED5565" d="M48.49,7.98v6h-48v-6c0-1.111,0.9-2,2-2h4v2.5c0,0.83,0.67,1.5,1.5,1.5s1.5-0.67,1.5-1.5v-2.5h8v2.5
					c0,0.83,0.67,1.5,1.5,1.5s1.5-0.67,1.5-1.5v-2.5h8v2.5c0,0.83,0.67,1.5,1.5,1.5s1.5-0.67,1.5-1.5v-2.5h8v2.5
					c0,0.83,0.67,1.5,1.5,1.5s1.5-0.67,1.5-1.5v-2.5h4C47.6,5.98,48.49,6.869,48.49,7.98z"/>
			</g>
			<g>
				<rect x="4.49" y="41.98" fill="#FFFFFF" width="4" height="4"/>
			</g>
			<g>
				<rect x="22.49" y="41.98" fill="#FFFFFF" width="4" height="4"/>
			</g>
			<g>
				<path fill="#FFFFFF" d="M31.51,41.98H35.4c-0.49,1.25-0.791,2.6-0.891,4h-3V41.98z"/>
			</g>
			<g>
				<rect x="22.49" y="33.98" fill="#FFFFFF" width="4" height="4"/>
			</g>
			<g>
				<rect x="13.49" y="41.98" fill="#FFFFFF" width="4" height="4"/>
			</g>
			<g>
				<rect x="4.49" y="25.98" fill="#FFFFFF" width="4" height="4"/>
			</g>
			<g>
				<rect x="4.49" y="33.98" fill="#FFFFFF" width="4" height="4"/>
			</g>
			<g>
				<rect x="13.49" y="33.98" fill="#FFFFFF" width="4" height="4"/>
			</g>
			<g>
				<rect x="31.49" y="25.98" fill="#FFFFFF" width="4" height="4"/>
			</g>
			<g>
				<rect x="31.51" y="33.98" fill="#FFFFFF" width="4" height="4"/>
			</g>
			<g>
				<rect x="13.49" y="17.98" fill="#FFFFFF" width="4" height="4"/>
			</g>
			<g>
				<rect x="13.49" y="25.98" fill="#FFFFFF" width="4" height="4"/>
			</g>
			<g>
				<rect x="31.49" y="17.98" fill="#FFFFFF" width="4" height="4"/>
			</g>
			<g>
				<rect x="22.49" y="25.98" fill="#FFFFFF" width="4" height="4"/>
			</g>
			<g>
				<rect x="40.49" y="25.98" fill="#FFFFFF" width="4" height="4"/>
			</g>
			<g>
				<rect x="22.49" y="17.98" fill="#FFFFFF" width="4" height="4"/>
			</g>
			<g>
				<rect x="40.49" y="17.98" fill="#FFFFFF" width="4" height="4"/>
			</g>
			<g>
				<path fill="#E6E9ED" d="M35.51,37.98v-4h-4v4H35.51z M48.49,32.98c-5.971,0-11.07,3.738-13.09,9H31.51v4h3
					c-0.029,0.33-0.039,0.68-0.039,1.02c0,1.02,0.109,2.02,0.32,2.98H0.49v-36h48l0.02,19C48.5,32.98,48.5,32.98,48.49,32.98z
					 M44.49,29.98v-4h-4v4H44.49z M44.49,21.98v-4h-4v4H44.49z M35.49,29.98v-4h-4v4H35.49z M35.49,21.98v-4h-4v4H35.49z
					 M26.49,45.98v-4h-4v4H26.49z M26.49,37.98v-4h-4v4H26.49z M26.49,29.98v-4h-4v4H26.49z M26.49,21.98v-4h-4v4H26.49z
					 M17.49,45.98v-4h-4v4H17.49z M17.49,37.98v-4h-4v4H17.49z M17.49,29.98v-4h-4v4H17.49z M17.49,21.98v-4h-4v4H17.49z
					 M8.49,45.98v-4h-4v4H8.49z M8.49,37.98v-4h-4v4H8.49z M8.49,29.98v-4h-4v4H8.49z M8.49,21.98v-4h-4v4H8.49z"/>
			</g>
			<g>
				<rect x="4.49" y="17.98" fill="#FFFFFF" width="4" height="4"/>
			</g>
			<g>
				<path fill="#FFFFFF" d="M8.492,22.98h-4c-0.553,0-1-0.447-1-1v-4c0-0.553,0.447-1,1-1h4c0.553,0,1,0.447,1,1v4
					C9.492,22.533,9.045,22.98,8.492,22.98z M5.492,20.98h2v-2h-2V20.98z"/>
			</g>
			<g>
				<path fill="#FFFFFF" d="M17.492,22.98h-4c-0.553,0-1-0.447-1-1v-4c0-0.553,0.447-1,1-1h4c0.553,0,1,0.447,1,1v4
					C18.492,22.533,18.045,22.98,17.492,22.98z M14.492,20.98h2v-2h-2V20.98z"/>
			</g>
			<g>
				<path fill="#FFFFFF" d="M26.492,22.98h-4c-0.553,0-1-0.447-1-1v-4c0-0.553,0.447-1,1-1h4c0.553,0,1,0.447,1,1v4
					C27.492,22.533,27.045,22.98,26.492,22.98z M23.492,20.98h2v-2h-2V20.98z"/>
			</g>
			<g>
				<path fill="#FFFFFF" d="M35.492,22.98h-4c-0.553,0-1-0.447-1-1v-4c0-0.553,0.447-1,1-1h4c0.553,0,1,0.447,1,1v4
					C36.492,22.533,36.045,22.98,35.492,22.98z M32.492,20.98h2v-2h-2V20.98z"/>
			</g>
			<g>
				<path fill="#FFFFFF" d="M8.492,30.98h-4c-0.553,0-1-0.447-1-1v-4c0-0.553,0.447-1,1-1h4c0.553,0,1,0.447,1,1v4
					C9.492,30.533,9.045,30.98,8.492,30.98z M5.492,28.98h2v-2h-2V28.98z"/>
			</g>
			<g>
				<path fill="#FFFFFF" d="M17.492,30.98h-4c-0.553,0-1-0.447-1-1v-4c0-0.553,0.447-1,1-1h4c0.553,0,1,0.447,1,1v4
					C18.492,30.533,18.045,30.98,17.492,30.98z M14.492,28.98h2v-2h-2V28.98z"/>
			</g>
			<g>
				<path fill="#FFFFFF" d="M26.492,30.98h-4c-0.553,0-1-0.447-1-1v-4c0-0.553,0.447-1,1-1h4c0.553,0,1,0.447,1,1v4
					C27.492,30.533,27.045,30.98,26.492,30.98z M23.492,28.98h2v-2h-2V28.98z"/>
			</g>
			<g>
				<path fill="#FFFFFF" d="M8.492,38.98h-4c-0.553,0-1-0.447-1-1v-4c0-0.553,0.447-1,1-1h4c0.553,0,1,0.447,1,1v4
					C9.492,38.533,9.045,38.98,8.492,38.98z M5.492,36.98h2v-2h-2V36.98z"/>
			</g>
			<g>
				<path fill="#FFFFFF" d="M17.492,38.98h-4c-0.553,0-1-0.447-1-1v-4c0-0.553,0.447-1,1-1h4c0.553,0,1,0.447,1,1v4
					C18.492,38.533,18.045,38.98,17.492,38.98z M14.492,36.98h2v-2h-2V36.98z"/>
			</g>
			<g>
				<path fill="#FFFFFF" d="M26.492,38.98h-4c-0.553,0-1-0.447-1-1v-4c0-0.553,0.447-1,1-1h4c0.553,0,1,0.447,1,1v4
					C27.492,38.533,27.045,38.98,26.492,38.98z M23.492,36.98h2v-2h-2V36.98z"/>
			</g>
			<g>
				<path fill="#FFFFFF" d="M35.51,38.98h-4c-0.553,0-1-0.447-1-1v-4c0-0.553,0.447-1,1-1h4c0.553,0,1,0.447,1,1v4
					C36.51,38.533,36.063,38.98,35.51,38.98z M32.51,36.98h2v-2h-2V36.98z"/>
			</g>
			<g>
				<rect x="40.52" y="33.98" fill="#FFFFFF" width="4" height="4"/>
			</g>
			<g>
				<path fill="#FFFFFF" d="M44.518,38.98h-4c-0.553,0-1-0.447-1-1v-4c0-0.553,0.447-1,1-1h4c0.553,0,1,0.447,1,1v4
					C45.518,38.533,45.07,38.98,44.518,38.98z M41.518,36.98h2v-2h-2V36.98z"/>
			</g>
			<g>
				<path fill="#FFFFFF" d="M34.508,46.98H31.51c-0.553,0-1-0.447-1-1v-4c0-0.553,0.447-1,1-1H35.4c0.553,0,1,0.447,1,1
					s-0.447,1-1,1H32.51v2h1.998c0.553,0,1,0.447,1,1S35.061,46.98,34.508,46.98z"/>
			</g>
			<g>
				<path fill="#FFFFFF" d="M8.492,46.98h-4c-0.553,0-1-0.447-1-1v-4c0-0.553,0.447-1,1-1h4c0.553,0,1,0.447,1,1v4
					C9.492,46.533,9.045,46.98,8.492,46.98z M5.492,44.98h2v-2h-2V44.98z"/>
			</g>
			<g>
				<path fill="#FFFFFF" d="M17.492,46.98h-4c-0.553,0-1-0.447-1-1v-4c0-0.553,0.447-1,1-1h4c0.553,0,1,0.447,1,1v4
					C18.492,46.533,18.045,46.98,17.492,46.98z M14.492,44.98h2v-2h-2V44.98z"/>
			</g>
			<g>
				<path fill="#FFFFFF" d="M26.492,46.98h-4c-0.553,0-1-0.447-1-1v-4c0-0.553,0.447-1,1-1h4c0.553,0,1,0.447,1,1v4
					C27.492,46.533,27.045,46.98,26.492,46.98z M23.492,44.98h2v-2h-2V44.98z"/>
			</g>
			<g>
				<path fill="#FFFFFF" d="M35.492,30.98h-4c-0.553,0-1-0.447-1-1v-4c0-0.553,0.447-1,1-1h4c0.553,0,1,0.447,1,1v4
					C36.492,30.533,36.045,30.98,35.492,30.98z M32.492,28.98h2v-2h-2V28.98z"/>
			</g>
			<g>
				<path fill="#FFFFFF" d="M44.492,30.98h-4c-0.553,0-1-0.447-1-1v-4c0-0.553,0.447-1,1-1h4c0.553,0,1,0.447,1,1v4
					C45.492,30.533,45.045,30.98,44.492,30.98z M41.492,28.98h2v-2h-2V28.98z"/>
			</g>
			<g>
				<path fill="#FFFFFF" d="M44.492,22.98h-4c-0.553,0-1-0.447-1-1v-4c0-0.553,0.447-1,1-1h4c0.553,0,1,0.447,1,1v4
					C45.492,22.533,45.045,22.98,44.492,22.98z M41.492,20.98h2v-2h-2V20.98z"/>
			</g>
			<g>
				<path fill="#545C66" d="M48.492,62.02c-8.281,0-15.018-6.737-15.018-15.018s6.736-15.018,15.018-15.018
					c8.279,0,15.018,6.737,15.018,15.018S56.771,62.02,48.492,62.02z M48.492,33.984c-7.178,0-13.018,5.84-13.018,13.018
					s5.84,13.018,13.018,13.018S61.51,54.18,61.51,47.002S55.67,33.984,48.492,33.984z"/>
			</g>
			<g>
				<g>
					<circle fill="#DA4453" cx="7.984" cy="9.481" r="2.5"/>
				</g>
				<g>
					<circle fill="#DA4453" cx="18.987" cy="9.481" r="2.501"/>
				</g>
				<g>
					<circle fill="#DA4453" cx="29.99" cy="9.481" r="2.5"/>
				</g>
				<g>
					<circle fill="#DA4453" cx="40.992" cy="9.481" r="2.5"/>
				</g>
			</g>
			<g>
				<g>
					<path fill="#E6E9ED" d="M9.49,5.98v3.501c0,0.83-0.67,1.5-1.5,1.5s-1.5-0.67-1.5-1.5V5.98v-2.5c0-0.83,0.67-1.5,1.5-1.5
						s1.5,0.67,1.5,1.5V5.98z"/>
				</g>
				<g>
					<path fill="#E6E9ED" d="M31.49,5.98v3.501c0,0.83-0.67,1.5-1.5,1.5s-1.5-0.67-1.5-1.5V5.98v-2.5c0-0.83,0.67-1.5,1.5-1.5
						s1.5,0.67,1.5,1.5V5.98z"/>
				</g>
				<g>
					<path fill="#E6E9ED" d="M20.49,5.98v3.501c0,0.83-0.67,1.5-1.5,1.5s-1.5-0.67-1.5-1.5V5.98v-2.5c0-0.83,0.67-1.5,1.5-1.5
						s1.5,0.67,1.5,1.5V5.98z"/>
				</g>
				<g>
					<path fill="#E6E9ED" d="M42.49,5.98v3.501c0,0.83-0.67,1.5-1.5,1.5s-1.5-0.67-1.5-1.5V5.98v-2.5c0-0.83,0.67-1.5,1.5-1.5
						s1.5,0.67,1.5,1.5V5.98z"/>
				</g>
			</g>
			<path fill="#545C66" d="M48.51,32.98c-0.01,0-0.01,0-0.02,0c-5.971,0-11.07,3.738-13.09,9c-0.49,1.25-0.791,2.6-0.891,4
				c-0.029,0.33-0.039,0.68-0.039,1.02c0,1.02,0.109,2.02,0.32,2.98c0.229,1.059,0.568,2.059,1.02,3.01
				c0.52,1.08,1.16,2.09,1.93,2.99c2.561,3.08,6.43,5.039,10.75,5.039c7.74,0,14.02-6.279,14.02-14.02
				C62.51,39.27,56.24,32.99,48.51,32.98z"/>
		</g>
	</g>
	<g>
		<g>
			<path fill="#3679CE" d="M56.519,43.52v3.5c0,1.66-1.34,3-3,3v-8h1.5C55.849,42.02,56.519,42.689,56.519,43.52z"/>
		</g>
		<g>
			<path fill="#5D9CEC" d="M53.519,41.02v1c0,1.66-1.34,3-3,3h-4c-1.66,0-3-1.34-3-3v-1c0-1.1,0.9-2,2-2h6
				C52.618,39.02,53.519,39.92,53.519,41.02z"/>
		</g>
		<g>
			<path fill="#3679CE" d="M50.519,51.019c0.55,0,1,0.45,1,1v2.001c0,0.55-0.45,1-1,1h-4c-0.55,0-1-0.45-1-1v-2.001
				c0-0.55,0.45-1,1-1H50.519z"/>
		</g>
		<g>
			<path fill="#4A89DC" d="M46.519,45.02h4c1.66,0,3-1.34,3-3v8c0,1.1-0.9,2-2,2h-6c-1.1,0-2-0.9-2-2v-8
				C43.519,43.68,44.858,45.02,46.519,45.02z"/>
		</g>
	</g>
</g>
</svg>
