<?xml version="1.0" encoding="utf-8"?>
<!-- Generator: Adobe Illustrator 16.0.0, SVG Export Plug-In . SVG Version: 6.00 Build 0)  -->
<!DOCTYPE svg PUBLIC "-//W3C//DTD SVG 1.1//EN" "http://www.w3.org/Graphics/SVG/1.1/DTD/svg11.dtd">
<svg version="1.1" id="icons" xmlns="http://www.w3.org/2000/svg" xmlns:xlink="http://www.w3.org/1999/xlink" x="0px" y="0px"
	 width="64px" height="64px" viewBox="0 0 64 64" enable-background="new 0 0 64 64" xml:space="preserve">
<g>
	<g>
		<path fill="#5D9CEC" d="M39.849,10.153c-8.199-8.209-21.5-8.209-29.699,0.001c-8.2,8.2-8.2,21.5,0,29.69
			c8.2,8.199,21.5,8.198,29.698,0C48.049,31.645,48.049,18.354,39.849,10.153z"/>
	</g>
	<path fill="#434A54" d="M18.999,33.992v5.012c0,0.55,0.45,1,1,1l8.99-0.001c0.55,0.001,1-0.449,0.999-0.999v-5.011L18.999,33.992z"
		/>
	<g>
		<path fill="#E6E9ED" d="M8.029,8.034c9.369-9.38,24.569-9.38,33.939,0c8.89,8.89,9.351,23.029,1.351,32.46
			c-0.42,0.51-0.87,1-1.351,1.48c-0.47,0.47-0.96,0.93-1.47,1.35c-9.42,7.999-23.571,7.55-32.47-1.35
			C-1.342,32.595-1.341,17.403,8.029,8.034z M39.848,39.845c8.201-8.2,8.201-21.491,0.001-29.691
			c-8.199-8.209-21.5-8.209-29.699,0.001c-8.2,8.2-8.2,21.5,0,29.69C18.35,48.044,31.649,48.043,39.848,39.845z"/>
	</g>
	<g>
		<path fill="#CCD1D9" d="M47.828,45.004l-2.818,2.83l-4.511-4.51c0.51-0.42,1-0.88,1.47-1.35c0.48-0.48,0.931-0.971,1.351-1.48
			L47.828,45.004z"/>
	</g>
	<g>
		<path fill="#656D78" d="M45.01,47.834l2.818-2.83l1.421-1.41l12.579,12.58c1.561,1.561,1.561,4.091,0.001,5.65
			c-1.561,1.57-4.1,1.569-5.66-0.001l-12.58-12.58L45.01,47.834z"/>
	</g>
	<g>
		<path fill="#434A54" d="M35.988,18.004c1.102,0,2.001,0.901,2.001,2v5h-0.01c0,2.209-1.78,3.989-3.99,3.99v-10.99H35.988z"/>
	</g>
	<g>
		<path fill="#656D78" d="M33.989,16.004c0,4.419-3.581,8-8,8h-2.99c-4.289,0-7.79-3.359-8-7.59v-0.41c0-2.199,1.789-4,4.001-4
			h10.988C32.189,12.004,33.99,13.805,33.989,16.004z"/>
	</g>
	<path fill="#E6E9ED" d="M22.999,40.003h5.99c0.55,0.001,1-0.449,0.999-0.999v-2h-6.989V40.003z"/>
	<g>
		<path fill="#545C66" d="M25.989,24.004c4.419,0,8-3.581,8-8v2v10.99v1c0,2.2-1.8,3.999-4,3.999l-5.5,0.001l-5.49-0.001
			c-2.21,0-4-1.799-4-3.999v-13.58c0.21,4.23,3.711,7.59,8,7.59H25.989z"/>
	</g>
	<g>
		<g>
			<path fill="#656D78" d="M44.299,49.541c-0.255,0-0.511-0.098-0.707-0.293c-0.391-0.391-0.39-1.024,0-1.414l4.242-4.242
				c0.39-0.391,1.023-0.392,1.414,0c0.39,0.39,0.389,1.022-0.001,1.413l-4.24,4.243C44.811,49.443,44.555,49.541,44.299,49.541z"/>
		</g>
		<path fill="#656D78" d="M24.492,27.003c-0.553,0-1,0.448-1,1v5.994h2v-5.993C25.492,27.451,25.045,27.004,24.492,27.003z"/>
	</g>
</g>
</svg>
