<?xml version="1.0" encoding="utf-8"?>
<!-- Generator: Adobe Illustrator 16.0.0, SVG Export Plug-In . SVG Version: 6.00 Build 0)  -->
<!DOCTYPE svg PUBLIC "-//W3C//DTD SVG 1.1//EN" "http://www.w3.org/Graphics/SVG/1.1/DTD/svg11.dtd">
<svg version="1.1" id="icons" xmlns="http://www.w3.org/2000/svg" xmlns:xlink="http://www.w3.org/1999/xlink" x="0px" y="0px"
	 width="64px" height="64px" viewBox="0 0 64 64" enable-background="new 0 0 64 64" xml:space="preserve">
<g>
	<path fill="#D3374E" d="M40,55.989V62c0,0.55,0.45,1,1,1h10c0.55,0,1-0.45,1-1v-6.011H40z"/>
	<g>
		<path fill="#FFFFFF" d="M37.12,15c1.2,2.061,1.88,4.45,1.88,7h-8c0-3.31-2.68-6-6-6c-3.31,0-6,2.69-6,6h-8
			c0-2.55,0.68-4.939,1.88-7c1.22-2.13,2.99-3.899,5.12-5.12C20.06,8.681,22.45,8,25,8s4.94,0.681,7,1.88
			C34.13,11.101,35.9,12.87,37.12,15z"/>
	</g>
	<g>
		<path fill="#545C66" d="M25.004,18.003c-0.553,0-1-0.447-1-1v-2c0-0.553,0.447-1,1-1s1,0.447,1,1v2
			C26.004,17.556,25.557,18.003,25.004,18.003z"/>
	</g>
	<g>
		<path fill="#CCD1D9" d="M36.264,16.502c-0.346,0-0.682-0.179-0.867-0.5c-0.276-0.478-0.112-1.09,0.366-1.366l0.865-0.5
			c0.477-0.276,1.089-0.113,1.366,0.366c0.276,0.478,0.112,1.09-0.366,1.366l-0.865,0.5C36.605,16.459,36.434,16.502,36.264,16.502z
			"/>
	</g>
	<g>
		<path fill="#CCD1D9" d="M31.504,11.744c-0.169,0-0.341-0.043-0.498-0.133c-0.479-0.276-0.644-0.888-0.368-1.366l0.499-0.867
			c0.276-0.479,0.887-0.642,1.366-0.368c0.479,0.276,0.644,0.888,0.368,1.366l-0.499,0.867
			C32.187,11.564,31.85,11.744,31.504,11.744z"/>
	</g>
	<g>
		<path fill="#CCD1D9" d="M25.005,10.002c-0.552,0-0.999-0.446-1-0.998l-0.002-1c-0.001-0.553,0.445-1.001,0.998-1.002
			c0,0,0.001,0,0.002,0c0.552,0,0.999,0.446,1,0.998l0.002,1c0.001,0.553-0.445,1.001-0.998,1.002
			C25.006,10.002,25.006,10.002,25.005,10.002z"/>
	</g>
	<g>
		<path fill="#CCD1D9" d="M18.506,11.742c-0.345,0-0.68-0.178-0.865-0.497l-0.502-0.863c-0.278-0.478-0.116-1.09,0.361-1.367
			c0.477-0.278,1.09-0.116,1.367,0.361l0.502,0.863c0.278,0.478,0.116,1.09-0.361,1.367C18.85,11.698,18.677,11.742,18.506,11.742z"
			/>
	</g>
	<g>
		<path fill="#CCD1D9" d="M13.744,16.5c-0.169,0-0.341-0.043-0.497-0.133l-0.866-0.498c-0.479-0.275-0.645-0.887-0.369-1.365
			c0.275-0.479,0.887-0.645,1.365-0.369l0.866,0.498c0.479,0.275,0.645,0.887,0.369,1.365C14.427,16.32,14.091,16.5,13.744,16.5z"/>
	</g>
	<g>
		<path fill="#656D78" d="M31,22H19c0-3.31,2.69-6,6-6C28.32,16,31,18.69,31,22z"/>
	</g>
	<g>
		<path fill="#E6E9ED" d="M37.12,15c-1.22-2.13-2.99-3.899-5.12-5.12C29.94,8.681,27.55,8,25,8s-4.94,0.681-7,1.88
			c-2.13,1.221-3.9,2.99-5.12,5.12c-1.2,2.061-1.88,4.45-1.88,7h8h12h8C39,19.45,38.32,17.061,37.12,15z M36,36v1v14.99H6
			c-1.1,0-2-0.899-2-2V9V3c0-1.1,0.9-2,2-2h38c1.1,0,2,0.9,2,2v29h-6C37.8,32,36,33.801,36,36z"/>
	</g>
	<g>
		<path fill="#CCD1D9" d="M6,51.99h30c0,2.2,1.8,4,4,4H6c-1.1,0-2-0.899-2-2v-4C4,51.091,4.9,51.99,6,51.99z"/>
	</g>
	<g>
		<path fill="#D3374E" d="M58,38c1.1,0,2,0.891,2,2v7h-0.01c0,2.2-1.79,3.99-3.99,3.99V38H58z"/>
	</g>
	<g>
		<path fill="#DA4453" d="M56,38v12.99v1c0,2.2-1.8,4-4,4h-6h-6c-2.2,0-4-1.8-4-4V37c0,4.42,3.58,8,8,8h4c4.42,0,8-3.58,8-8V38z"/>
	</g>
	<path fill="#656D78" d="M44,63h7c0.55,0,1-0.45,1-1v-3h-8V63z"/>
	<g>
		<path fill="#ED5565" d="M56,36v1c0,4.42-3.58,8-8,8h-4c-4.42,0-8-3.58-8-8v-1c0-2.199,1.8-4,4-4h6h6C54.2,32,56,33.801,56,36z"/>
	</g>
	<g>
		<path fill="#CCD1D9" d="M33,37.016H17.008c-0.553,0-1-0.447-1-1s0.447-1,1-1H33c0.553,0,1,0.447,1,1S33.553,37.016,33,37.016z"/>
	</g>
	<g>
		<path fill="#CCD1D9" d="M33,40H17.008c-0.553,0-1-0.447-1-1s0.447-1,1-1H33c0.553,0,1,0.447,1,1S33.553,40,33,40z"/>
	</g>
	<g>
		<path fill="#CCD1D9" d="M33,42.984H17.008c-0.553,0-1-0.447-1-1s0.447-1,1-1H33c0.553,0,1,0.447,1,1S33.553,42.984,33,42.984z"/>
	</g>
	<path fill="#ED5565" d="M46.004,49c-0.553,0-1,0.447-1,1v5.99h2V50C47.004,49.447,46.557,49,46.004,49z"/>
</g>
</svg>
