<?xml version="1.0" encoding="utf-8"?>
<!-- Generator: Adobe Illustrator 16.0.0, SVG Export Plug-In . SVG Version: 6.00 Build 0)  -->
<!DOCTYPE svg PUBLIC "-//W3C//DTD SVG 1.1//EN" "http://www.w3.org/Graphics/SVG/1.1/DTD/svg11.dtd">
<svg version="1.1" id="icons" xmlns="http://www.w3.org/2000/svg" xmlns:xlink="http://www.w3.org/1999/xlink" x="0px" y="0px"
	 width="64px" height="64px" viewBox="0 0 64 64" enable-background="new 0 0 64 64" xml:space="preserve">
<g>
	<g>
		<path fill="#3679CE" d="M47,42.6c0,0.55,0,1.45,0,2v12.01c0,0.55,0,1.426,0,1.945S46.55,59.5,46,59.5H34.988c-0.55,0-1-0.45-1-1
			v-2c0-0.55,0-1.45,0-2v-12c0-0.55,0.45-1,1-1H46c0.55,0,1,0.45,1,1V42.6z"/>
	</g>
	<g>
		<path fill="#DA4453" d="M30.012,5.595c0,0.55,0,1.45,0,2v12.01c0,0.55,0,1.426,0,1.945s-0.45,0.945-1,0.945H18c-0.55,0-1-0.45-1-1
			v-2c0-0.55,0-1.45,0-2v-12c0-0.55,0.45-1,1-1h11.012c0.55,0,1,0.45,1,1V5.595z"/>
	</g>
	<g>
		<rect x="47" y="43.6" fill="#EAC6BB" width="16" height="14.01"/>
	</g>
	<g>
		<rect x="1" y="6.52" fill="#EAC6BB" width="16" height="14"/>
	</g>
	<g>
		<rect x="39" y="55.5" fill="#4A89DC" width="5" height="4"/>
	</g>
	<g>
		<path fill="#ED5565" d="M63,6.5l-0.01,13.99c0,3.3-2.7,6-6,6H56H35.01H32c-2.21,0-3.99-1.79-3.99-4V4.5h-0.02
			c0.01-2.21,1.8-4,4.02-4H57C60.29,0.5,63,3.2,63,6.5z"/>
	</g>
	<g>
		<rect x="39" y="41.5" fill="#656D78" width="5" height="14"/>
	</g>
	<g>
		<path fill="#DA4453" d="M56,26.5v2.99c0,1.65-1.34,2.99-3,3H41c-3.31-0.01-5.99-2.68-5.99-6H56V26.5z"/>
	</g>
	<g>
		<rect x="20" y="9.5" fill="#656D78" width="5" height="12.99"/>
	</g>
	<g>
		<path fill="#4A89DC" d="M8,37.5h20.99h3c2.21,0,4,1.79,4,4v5.99H27c-1.66,0-3,1.35-3,3.01c0,1.65,1.34,3,3,3h8.99v6H36
			c-0.01,2.221-1.79,4-4.01,4H7c6.08,0,11-4.92,11-11v-4c0-6.08-4.92-11-11-11H8z"/>
	</g>
	<g>
		<path fill="#5D9CEC" d="M35.99,50.5v3H27c-1.66,0-3-1.35-3-3c0-1.66,1.34-3.01,3-3.01h8.99V50.5z"/>
	</g>
	<g>
		<path fill="#3679CE" d="M28.99,37.49v0.01H8v-3c0-1.66,1.34-3,3-3h12C26.31,31.5,28.99,34.18,28.99,37.49z"/>
	</g>
	<g>
		<path fill="#5D9CEC" d="M18,48.5v4c0,6.08-4.92,11-11,11c-3.3,0-6-2.7-6-6v-14c0-3.3,2.7-6,6-6C13.08,37.5,18,42.42,18,48.5z"/>
	</g>
	<path fill="#4A89DC" d="M27.001,49.496c-0.553,0-1,0.447-1,1s0.447,1,1,1h8.988v-2H27.001z"/>
</g>
</svg>
