<?xml version="1.0" encoding="utf-8"?>
<!-- Generator: Adobe Illustrator 16.0.0, SVG Export Plug-In . SVG Version: 6.00 Build 0)  -->
<!DOCTYPE svg PUBLIC "-//W3C//DTD SVG 1.1//EN" "http://www.w3.org/Graphics/SVG/1.1/DTD/svg11.dtd">
<svg version="1.1" id="icons" xmlns="http://www.w3.org/2000/svg" xmlns:xlink="http://www.w3.org/1999/xlink" x="0px" y="0px"
	 width="64px" height="64px" viewBox="0 0 64 64" enable-background="new 0 0 64 64" xml:space="preserve">
<g>
	<path fill="#E6E9ED" d="M63,15.007c0,0.55-0.45,1-1,1H38c-0.55,0-1-0.45-1-1v-2c0-0.55,0.45-1,1-1h24c0.55,0,1,0.45,1,1V15.007z"/>
	<path fill="#E6E9ED" d="M63,20.996c0,0.55-0.45,1-1,1H38c-0.55,0-1-0.45-1-1v-2c0-0.55,0.45-1,1-1h24c0.55,0,1,0.45,1,1V20.996z"/>
	<path fill="#E6E9ED" d="M63,26.985c0,0.55-0.45,1-1,1H38c-0.55,0-1-0.45-1-1v-2c0-0.55,0.45-1,1-1h24c0.55,0,1,0.45,1,1V26.985z"/>
	<path fill="#D3374E" d="M45.01,51.994v5.011c0,0.55,0.45,1,1,1H54c0.55,0,1-0.45,1-1v-5.011H45.01z"/>
	<path fill="#5D9CEC" d="M38,27.985h15.98L50,24.005H37.904C37.4,24.056,37,24.47,37,24.985v2C37,27.535,37.45,27.985,38,27.985z"/>
	<path fill="#5D9CEC" d="M38,21.996h8.99L43,18.006h-5.048C37.426,18.032,37,18.463,37,18.996v2C37,21.546,37.45,21.996,38,21.996z"
		/>
	<path fill="#5D9CEC" d="M38,12.007c-0.55,0-1,0.45-1,1v2c0,0.55,0.45,1,1,1h19.01l-4-4H38z"/>
	<g>
		<path fill="#D3374E" d="M60,37.016c1.1,0,2,0.89,2,2v3.989h-0.01c0,2.21-1.78,3.99-3.99,3.99h-0.06v-9.979H60z"/>
	</g>
	<g>
		<path fill="#ED5565" d="M42.01,36.005H42v-2.01c0-1.1,0.9-2,2-2h11.94c1.1,0,2,0.9,2,2v2.82c-0.391,2.93-2.9,5.18-5.931,5.18H48
			C44.69,41.995,42.01,39.315,42.01,36.005z"/>
	</g>
	<g>
		<path fill="#DA4453" d="M57.94,37.016v9.979v3c0,1.101-0.9,2-2,2H55h-4.99h-5H44c-1.1,0-2-0.899-2-2v-13.99h0.01
			c0,3.311,2.681,5.99,5.99,5.99h4.01c3.03,0,5.54-2.25,5.931-5.18V37.016z"/>
	</g>
	<path fill="#656D78" d="M49.01,58.005H54c0.55,0,1-0.45,1-1v-2h-5.99V58.005z"/>
	<g>
		<path fill="#965353" d="M33,16.995v6l-4-4c0,0-4.57,2-10,2s-10-2-10-2l-4,3.99v-4.99c0-6.63,5.37-12,12-12h10v5
			C30.32,10.995,33,13.686,33,16.995z"/>
	</g>
	<g>
		<path fill="#965353" d="M33,16.995v6l-4-4c0,0-4.57,2-10,2s-10-2-10-2l-4,3.99v-4.99c0-6.63,5.37-12,12-12h10v5
			C30.32,10.995,33,13.686,33,16.995z"/>
	</g>
	<g>
		<path fill="#844747" d="M33,22.995v-6c0-3.31-2.68-6-6-6v-5h-4v5c0,2.209,1.791,4,4,4c1.103,0,2,0.897,2,2v2L33,22.995z"/>
	</g>
	<g>
		<path fill="#EAC6BB" d="M30,58.005H8H1v-6c0-3.87,3.13-7,7-7h5v-4.35c1.82,0.87,3.86,1.35,6,1.35s4.18-0.479,6-1.35v4.35h5
			c3.87,0,7,3.13,7,7v6H30z"/>
	</g>
	<g>
		<g>
			<path fill="#D3B1A9" d="M30,45.005h-4.004c3.87,0,7,3.13,7,7v6H37v-6C37,48.135,33.87,45.005,30,45.005z"/>
		</g>
	</g>
	<g>
		<path fill="#EAC6BB" d="M33,22.995v5c0,5.59-3.27,10.41-8,12.66c-1.82,0.87-3.86,1.35-6,1.35s-4.18-0.479-6-1.35
			c-4.73-2.25-8-7.07-8-12.66v-0.02v-4.99l4-3.99c0,0,4.57,2,10,2s10-2,10-2L33,22.995z"/>
	</g>
	<g>
		<path fill="#D3B1A9" d="M29,18.995l-0.004,0.002v8.998c0,5.59-3.27,10.41-8,12.66c-1.241,0.594-2.59,0.988-3.998,1.19
			c0.656,0.094,1.321,0.159,2.002,0.159c2.14,0,4.18-0.479,6-1.35c4.73-2.25,8-7.07,8-12.66v-5L29,18.995z"/>
	</g>
	<g>
		<path fill="#D3B1A9" d="M8.002,52.082c-0.553,0-1,0.447-1,1V58h2v-4.918C9.002,52.529,8.555,52.082,8.002,52.082z"/>
		<path fill="#D3B1A9" d="M30.002,52.082c-0.553,0-1,0.447-1,1V58h2v-4.918C31.002,52.529,30.555,52.082,30.002,52.082z"/>
	</g>
	<path fill="#ED5565" d="M50.009,47.013c-0.553,0-1,0.447-1,1v3.992h2v-3.992C51.009,47.46,50.562,47.013,50.009,47.013z"/>
</g>
</svg>
