<?xml version="1.0" encoding="utf-8"?>
<!-- Generator: Adobe Illustrator 16.0.0, SVG Export Plug-In . SVG Version: 6.00 Build 0)  -->
<!DOCTYPE svg PUBLIC "-//W3C//DTD SVG 1.1//EN" "http://www.w3.org/Graphics/SVG/1.1/DTD/svg11.dtd">
<svg version="1.1" id="icons" xmlns="http://www.w3.org/2000/svg" xmlns:xlink="http://www.w3.org/1999/xlink" x="0px" y="0px"
	 width="64px" height="64px" viewBox="0 0 64 64" enable-background="new 0 0 64 64" xml:space="preserve">
<g>
	<path fill="#3679CE" d="M2,26.018c-0.55,0-1,0.45-1,1v10c0,0.55,0.45,1,1,1h6.011v-12H2z"/>
	<g>
		<path fill="#D3374E" d="M50.99,22.018H38v-0.05v-1.95c0-1.1,0.9-2,2-2h7v0.01C49.21,18.027,50.99,19.817,50.99,22.018z"/>
	</g>
	<g>
		<path fill="#3679CE" d="M26,21.968v0.05H13.01c0-2.2,1.78-3.99,3.99-3.99v-0.01h7c1.1,0,2,0.9,2,2V21.968z"/>
	</g>
	<g>
		<path fill="#DA4453" d="M55.99,32.018v6c0,2.2-1.8,4-4,4H37c4.42,0,8-3.58,8-8v-4c0-4.42-3.58-8-8-8h1h12.99h1c2.2,0,4,1.8,4,4
			V32.018z"/>
	</g>
	<path fill="#656D78" d="M5,26.018H2c-0.55,0-1,0.45-1,1v7h4V26.018z"/>
	<path fill="#D3374E" d="M62,26.018c0.55,0,1,0.45,1,1v10c0,0.55-0.45,1-1,1h-6.011v-12H62z"/>
	<path fill="#656D78" d="M59,26.018h3c0.55,0,1,0.45,1,1v7h-4V26.018z"/>
	<g>
		<path fill="#ED5565" d="M45,30.018v4c0,4.42-3.58,8-8,8h-1c-2.2,0-4-1.8-4-4v-12c0-2.2,1.8-4,4-4h1
			C41.42,22.018,45,25.598,45,30.018z"/>
	</g>
	<g>
		<path fill="#4A89DC" d="M26,22.018h1c-4.42,0-8,3.58-8,8v4c0,4.42,3.58,8,8,8H12.01c-2.2,0-4-1.8-4-4v-6v-6c0-2.2,1.8-4,4-4h1H26z
			"/>
	</g>
	<g>
		<path fill="#5D9CEC" d="M28,22.018c2.2,0,4,1.8,4,4v12c0,2.2-1.8,4-4,4h-1c-4.42,0-8-3.58-8-8v-4c0-4.42,3.58-8,8-8H28z"/>
	</g>
	<g>
		<path fill="#5D9CEC" d="M14.001,31.017H8.008v2h5.993c0.553,0,1-0.448,1-1S14.554,31.017,14.001,31.017z"/>
		<path fill="#ED5565" d="M49.999,31.017c-0.553,0-1,0.448-1,1s0.447,1,1,1h5.993v-2H49.999z"/>
		<g>
			<path fill="#FFCE54" d="M32.001,57.01c-0.553,0-1-0.447-1-1v-9.995c0-0.553,0.447-1,1-1s1,0.447,1,1v9.995
				C33.001,56.563,32.554,57.01,32.001,57.01z"/>
		</g>
		<g>
			<path fill="#FFCE54" d="M45.002,55.017c-0.323,0-0.641-0.156-0.833-0.445l-6-9c-0.307-0.46-0.183-1.08,0.277-1.387
				c0.461-0.306,1.081-0.183,1.387,0.277l6,9c0.307,0.46,0.183,1.08-0.277,1.387C45.385,54.962,45.192,55.017,45.002,55.017z"/>
		</g>
		<g>
			<path fill="#FFCE54" d="M32.005,57.008c-0.552,0-1-0.447-1-1l-0.001-9.995c0-0.552,0.447-1,1-1c0.552,0,1,0.447,1,1l0.001,9.995
				C33.005,56.56,32.558,57.008,32.005,57.008z"/>
		</g>
		<g>
			<path fill="#FFCE54" d="M32.001,57.01c-0.553,0-1-0.447-1-1v-9.995c0-0.553,0.447-1,1-1s1,0.447,1,1v9.995
				C33.001,56.563,32.554,57.01,32.001,57.01z"/>
		</g>
		<g>
			<path fill="#FFCE54" d="M19,55.017c-0.19,0-0.383-0.055-0.554-0.168c-0.46-0.307-0.584-0.927-0.277-1.387l6-9
				c0.306-0.46,0.926-0.583,1.387-0.277c0.46,0.307,0.584,0.927,0.277,1.387l-6,9C19.641,54.86,19.323,55.017,19,55.017z"/>
		</g>
		<g>
			<path fill="#FFCE54" d="M32.001,18.98c-0.553,0-1-0.448-1-1V7.99c0-0.553,0.447-1,1-1s1,0.447,1,1v9.99
				C33.001,18.532,32.554,18.98,32.001,18.98z"/>
		</g>
		<g>
			<path fill="#FFCE54" d="M23.026,17.016c-0.323,0-0.641-0.156-0.833-0.445l-4.024-6.033c-0.307-0.459-0.183-1.08,0.277-1.387
				c0.458-0.309,1.081-0.184,1.387,0.277l4.024,6.033c0.307,0.459,0.183,1.08-0.277,1.387C23.41,16.961,23.217,17.016,23.026,17.016
				z"/>
		</g>
		<g>
			<path fill="#FFCE54" d="M31.998,18.982c-0.552,0-1-0.448-1-1l-0.001-9.99c0-0.553,0.447-1,1-1c0.552,0,1,0.447,1,1l0.001,9.99
				C32.998,18.534,32.551,18.982,31.998,18.982z"/>
		</g>
		<g>
			<path fill="#FFCE54" d="M32.001,18.98c-0.553,0-1-0.448-1-1V7.99c0-0.553,0.447-1,1-1s1,0.447,1,1v9.99
				C33.001,18.532,32.554,18.98,32.001,18.98z"/>
		</g>
		<g>
			<path fill="#FFCE54" d="M40.992,16.99c-0.19,0-0.384-0.054-0.554-0.168c-0.46-0.307-0.584-0.927-0.277-1.387l4.008-6.008
				c0.306-0.461,0.927-0.586,1.387-0.277c0.46,0.307,0.584,0.927,0.277,1.387l-4.008,6.008C41.633,16.834,41.315,16.99,40.992,16.99
				z"/>
		</g>
	</g>
</g>
</svg>
