<?xml version="1.0" encoding="utf-8"?>
<!-- Generator: Adobe Illustrator 16.0.0, SVG Export Plug-In . SVG Version: 6.00 Build 0)  -->
<!DOCTYPE svg PUBLIC "-//W3C//DTD SVG 1.1//EN" "http://www.w3.org/Graphics/SVG/1.1/DTD/svg11.dtd">
<svg version="1.1" id="icons" xmlns="http://www.w3.org/2000/svg" xmlns:xlink="http://www.w3.org/1999/xlink" x="0px" y="0px"
	 width="64px" height="64px" viewBox="0 0 64 64" enable-background="new 0 0 64 64" xml:space="preserve">
<g>
	<g>
		<path fill="#545C66" d="M25.573,21.731c-0.116,0-0.234-0.02-0.35-0.063c-0.518-0.193-0.78-0.77-0.587-1.287l5.991-16.043
			c0.192-0.518,0.769-0.78,1.286-0.588c0.518,0.193,0.78,0.77,0.587,1.287L26.51,21.081C26.36,21.483,25.979,21.731,25.573,21.731z"
			/>
	</g>
	<g>
		<path fill="#545C66" d="M38.474,21.731c-0.404,0-0.785-0.247-0.936-0.648L31.5,5.036c-0.195-0.518,0.066-1.094,0.583-1.289
			c0.518-0.193,1.094,0.067,1.288,0.584l6.038,16.049c0.195,0.516-0.066,1.093-0.583,1.287
			C38.71,21.711,38.591,21.731,38.474,21.731z"/>
	</g>
	<path fill="#D3374E" d="M52.493,30.665c0,0.551-0.45,1-1,1H37.472c-0.55,0-1-0.449-1-1v-8.95c0-0.55,0.45-1,1-1h14.021
		c0.55,0,1,0.45,1,1V30.665z"/>
	<g>
		<rect x="44.982" y="20.177" transform="matrix(-0.0029 -1 1 -0.0029 21.4478 72.7298)" fill="#656D78" width="4" height="10.99"/>
	</g>
	<path fill="#D3374E" d="M11.554,30.665c0,0.551,0.45,1,1,1h14.021c0.55,0,1-0.449,1-1v-8.95c0-0.55-0.45-1-1-1H12.554
		c-0.55,0-1,0.45-1,1V30.665z"/>
	<g>
		<circle fill="#656D78" cx="32" cy="3.728" r="2.5"/>
	</g>
	<g>
		<path fill="#DA4453" d="M56.533,37.802l-0.053,16.69c-0.161-2.611-2.325-4.678-4.985-4.686l-14-0.044
			c-2.65-0.009-4.826,2.045-5.004,4.655l0.061-19.691c0.007-2.219,1.793-3.993,4.013-3.997v0.01l7.99,0.025l8,0.025
			c2.21,0.006,3.994,1.803,3.987,4.012L56.533,37.802z"/>
	</g>
	<g>
		<rect x="15.064" y="20.177" transform="matrix(0.0029 -1 1 0.0029 -8.6578 42.6615)" fill="#656D78" width="4" height="10.99"/>
	</g>
	<g>
		<path fill="#DA4453" d="M19.554,30.69l7.99,0.024v-0.01c2.22,0.017,3.994,1.803,3.987,4.021l-0.061,19.691
			c-0.162-2.612-2.326-4.679-4.977-4.687l-14-0.044c-2.709-0.008-4.926,2.136-5.015,4.825l0.053-16.861l0.009-3
			c0.008-2.209,1.803-3.994,4.013-3.986L19.554,30.69z"/>
	</g>
	<g>
		<path fill="#D3374E" d="M7.479,54.513l-0.003,1.129h-0.01l-2.99-0.009c-1.65-0.005-2.986-1.35-2.981-3.01l0.028-9
			c0.01-3.31,2.699-5.981,6.009-5.972L7.479,54.513z"/>
	</g>
	<g>
		<path fill="#ED5565" d="M56.477,55.791l-0.003,1c-0.01,3.301-2.719,5.992-6.019,5.981l-11.99-0.037
			c-3.3-0.01-5.991-2.718-5.981-6.019l0.006-1.959l0.002-0.34c0.178-2.61,2.354-4.664,5.004-4.655l14,0.044
			c2.66,0.008,4.824,2.074,4.985,4.686L56.477,55.791z"/>
	</g>
	<g>
		<path fill="#D3374E" d="M59.477,55.801l-3-0.01l0.004-1.299l0.053-16.69c3.31,0.01,5.981,2.699,5.972,6.009l-0.028,9
			C62.472,54.471,61.127,55.806,59.477,55.801z"/>
	</g>
	<g>
		<path fill="#ED5565" d="M31.469,54.758l-0.006,1.959c-0.01,3.301-2.719,5.991-6.019,5.981l-11.99-0.038
			c-3.3-0.01-5.991-2.718-5.981-6.019l0.004-1l0.003-1.129c0.089-2.689,2.306-4.833,5.015-4.825l14,0.044
			c2.65,0.008,4.814,2.074,4.977,4.687L31.469,54.758z"/>
	</g>
	<path fill="#ED5565" d="M18.52,38.724c0,0.553,0.447,1,1,1s1-0.447,1-1v-7.988h-2V38.724z"/>
	<path fill="#ED5565" d="M43.555,30.769l-0.024,7.989c-0.002,0.553,0.443,1.002,0.996,1.003c0.553,0.002,1.002-0.444,1.004-0.997
		l0.024-7.988L43.555,30.769z"/>
</g>
</svg>
