<?xml version="1.0" encoding="utf-8"?>
<!-- Generator: Adobe Illustrator 16.0.0, SVG Export Plug-In . SVG Version: 6.00 Build 0)  -->
<!DOCTYPE svg PUBLIC "-//W3C//DTD SVG 1.1//EN" "http://www.w3.org/Graphics/SVG/1.1/DTD/svg11.dtd">
<svg version="1.1" id="icons" xmlns="http://www.w3.org/2000/svg" xmlns:xlink="http://www.w3.org/1999/xlink" x="0px" y="0px"
	 width="64px" height="64px" viewBox="0 0 64 64" enable-background="new 0 0 64 64" xml:space="preserve">
<g>
	<g>
		<path fill="#4A89DC" d="M5.001,18.002H1c-0.553,0-1-0.448-1-1c0-0.553,0.447-1,1-1h4.001c0.553,0,1,0.447,1,1
			C6.001,17.554,5.554,18.002,5.001,18.002z"/>
	</g>
	<g>
		<path fill="#4A89DC" d="M5.001,24.002H1c-0.553,0-1-0.448-1-1c0-0.553,0.447-1,1-1h4.001c0.553,0,1,0.447,1,1
			C6.001,23.554,5.554,24.002,5.001,24.002z"/>
	</g>
	<g>
		<path fill="#4A89DC" d="M5.001,30H1c-0.553,0-1-0.447-1-1c0-0.552,0.447-1,1-1h4.001c0.553,0,1,0.448,1,1
			C6.001,29.553,5.554,30,5.001,30z"/>
	</g>
	<g>
		<path fill="#DA4453" d="M62.999,18.002h-4.001c-0.553,0-1-0.448-1-1c0-0.553,0.447-1,1-1h4.001c0.553,0,1,0.447,1,1
			C63.999,17.554,63.552,18.002,62.999,18.002z"/>
	</g>
	<g>
		<path fill="#DA4453" d="M62.999,24.002h-4.001c-0.553,0-1-0.448-1-1c0-0.553,0.447-1,1-1h4.001c0.553,0,1,0.447,1,1
			C63.999,23.554,63.552,24.002,62.999,24.002z"/>
	</g>
	<g>
		<path fill="#DA4453" d="M62.999,30h-4.001c-0.553,0-1-0.447-1-1c0-0.552,0.447-1,1-1h4.001c0.553,0,1,0.448,1,1
			C63.999,29.553,63.552,30,62.999,30z"/>
	</g>
	<g>
		<path fill="#E6E9ED" d="M55.999,18.002H8.001c-0.553,0-1-0.448-1-1c0-0.553,0.447-1,1-1h47.998c0.553,0,1,0.447,1,1
			C56.999,17.554,56.552,18.002,55.999,18.002z"/>
	</g>
	<g>
		<path fill="#E6E9ED" d="M55.999,24.002H8.001c-0.553,0-1-0.448-1-1c0-0.553,0.447-1,1-1h47.998c0.553,0,1,0.447,1,1
			C56.999,23.554,56.552,24.002,55.999,24.002z"/>
	</g>
	<g>
		<path fill="#E6E9ED" d="M55.999,30H8.001c-0.553,0-1-0.447-1-1c0-0.552,0.447-1,1-1h47.998c0.553,0,1,0.448,1,1
			C56.999,29.553,56.552,30,55.999,30z"/>
	</g>
	<g>
		<g>
			<path fill="#FFCE54" d="M32,40c1.66,0,3,1.35,3,3c0,1.66-1.34,3-3,3s-3-1.34-3-3C29,41.35,30.34,40,32,40z"/>
		</g>
		<g>
			<polygon fill="#ED5565" points="59,29 59,35 56,35 56,29 56,23 56,17 56,13 59,13 59,17 59,23 			"/>
		</g>
		<g>
			<polygon fill="#5D9CEC" points="8,29 8,35 5,35 5,29 5,23 5,17 5,13 8,13 8,17 8,23 			"/>
		</g>
		<g>
			<path fill="#656D78" d="M63,35v16H1V35h4h3h48h3H63z M35,43c0-1.65-1.34-3-3-3s-3,1.35-3,3c0,1.66,1.34,3,3,3S35,44.66,35,43z"/>
		</g>
	</g>
	<g>
		<path fill="#E6E9ED" d="M1,52.002c-0.553,0-1-0.447-1-1V12.998c0-0.553,0.447-1,1-1s1,0.447,1,1v38.004
			C2,51.555,1.553,52.002,1,52.002z"/>
	</g>
	<g>
		<path fill="#E6E9ED" d="M63,52.002c-0.553,0-1-0.447-1-1V12.998c0-0.553,0.447-1,1-1s1,0.447,1,1v38.004
			C64,51.555,63.553,52.002,63,52.002z"/>
	</g>
	<g>
		<path fill="#5D9CEC" d="M8.001,36h-3c-0.553,0-1-0.447-1-1V13c0-0.553,0.447-1,1-1h3c0.553,0,1,0.447,1,1v22
			C9.001,35.553,8.554,36,8.001,36z M6.001,34h1V14h-1V34z"/>
	</g>
	<g>
		<path fill="#ED5565" d="M58.999,36h-3c-0.553,0-1-0.447-1-1V13c0-0.553,0.447-1,1-1h3c0.553,0,1,0.447,1,1v22
			C59.999,35.553,59.552,36,58.999,36z M56.999,34h1V14h-1V34z"/>
	</g>
	<g>
		<path fill="#656D78" d="M22.002,31.002c-0.553,0-1-0.448-1-1v-14c0-0.553,0.447-1,1-1s1,0.447,1,1v14
			C23.002,30.554,22.555,31.002,22.002,31.002z"/>
	</g>
	<g>
		<path fill="#656D78" d="M41.998,31.002c-0.553,0-1-0.448-1-1v-14c0-0.553,0.447-1,1-1s1,0.447,1,1v14
			C42.998,30.554,42.551,31.002,41.998,31.002z"/>
	</g>
	<g>
		<path fill="#545C66" d="M55.996,42.002H41.001c-0.553,0-1-0.447-1-1s0.447-1,1-1h14.995c0.553,0,1,0.447,1,1
			S56.549,42.002,55.996,42.002z"/>
	</g>
	<g>
		<path fill="#545C66" d="M52,45.002h-7.003c-0.553,0-1-0.447-1-1s0.447-1,1-1H52c0.553,0,1,0.447,1,1S52.553,45.002,52,45.002z"/>
	</g>
	<g>
		<path fill="#545C66" d="M22.995,42.002H8c-0.553,0-1-0.447-1-1s0.447-1,1-1h14.995c0.553,0,1,0.447,1,1
			S23.548,42.002,22.995,42.002z"/>
	</g>
	<g>
		<path fill="#545C66" d="M18.999,45.002h-7.003c-0.553,0-1-0.447-1-1s0.447-1,1-1h7.003c0.553,0,1,0.447,1,1
			S19.552,45.002,18.999,45.002z"/>
	</g>
	<g>
		<path fill="#656D78" d="M63,52.002H1c-0.553,0-1-0.447-1-1V35c0-0.553,0.447-1,1-1h62c0.553,0,1,0.447,1,1v16.002
			C64,51.555,63.553,52.002,63,52.002z M2,50.002h60V36H2V50.002z"/>
	</g>
</g>
</svg>
