<?xml version="1.0" encoding="utf-8"?>
<!-- Generator: Adobe Illustrator 16.0.0, SVG Export Plug-In . SVG Version: 6.00 Build 0)  -->
<!DOCTYPE svg PUBLIC "-//W3C//DTD SVG 1.1//EN" "http://www.w3.org/Graphics/SVG/1.1/DTD/svg11.dtd">
<svg version="1.1" id="icons" xmlns="http://www.w3.org/2000/svg" xmlns:xlink="http://www.w3.org/1999/xlink" x="0px" y="0px"
	 width="64px" height="64px" viewBox="0 0 64 64" enable-background="new 0 0 64 64" xml:space="preserve">
<g>
	<g>
		<path fill="#CCD1D9" d="M32,17.499c-0.553,0-1-0.448-1-1V3.498c0-0.552,0.447-1,1-1s1,0.448,1,1v13.001
			C33,17.051,32.553,17.499,32,17.499z"/>
	</g>
	<g>
		<g>
			<polygon fill="#E6E9ED" points="58.16,30.001 53.3,27.501 32,16.501 10.7,27.501 5.84,30.001 1,32.501 32,48.501 63,32.501 			
				"/>
		</g>
		<g>
			<polygon fill="#545C66" points="63,32.501 63,44.501 32,60.501 32,48.501 			"/>
		</g>
		<g>
			<polygon fill="#656D78" points="32,48.501 32,60.501 1,44.501 1,32.501 			"/>
		</g>
	</g>
	<g>
		<path fill="#E6E9ED" d="M32,49.5c-0.157,0-0.314-0.037-0.459-0.111l-31-16C0.209,33.217,0,32.874,0,32.5s0.209-0.717,0.541-0.889
			l31-16.001c0.289-0.148,0.629-0.148,0.918,0l31,16.001C63.791,31.783,64,32.126,64,32.5s-0.209,0.717-0.541,0.889l-31,16
			C32.314,49.463,32.157,49.5,32,49.5z M3.181,32.5L32,47.375L60.819,32.5L32,17.625L3.181,32.5z"/>
	</g>
	<g>
		<path fill="#545C66" d="M32,44.495c-0.157,0-0.314-0.037-0.459-0.111l-31-15.999C0.209,28.213,0,27.87,0,27.496
			s0.209-0.717,0.541-0.889l31-16c0.289-0.148,0.629-0.148,0.918,0l31,16C63.791,26.779,64,27.122,64,27.496
			s-0.209,0.717-0.541,0.889l-31,15.999C32.314,44.458,32.157,44.495,32,44.495z M3.181,27.496L32,42.37l28.819-14.874L32,12.622
			L3.181,27.496z"/>
	</g>
	<g>
		<path fill="#656D78" d="M32,39.49c-0.157,0-0.314-0.037-0.459-0.111l-31-15.996C0.209,23.211,0,22.868,0,22.494
			s0.209-0.717,0.541-0.889l31-16c0.289-0.148,0.629-0.148,0.918,0l31,16C63.791,21.777,64,22.12,64,22.494
			s-0.209,0.717-0.541,0.889l-31,15.996C32.314,39.453,32.157,39.49,32,39.49z M3.181,22.494L32,37.365l28.819-14.871L32,7.62
			L3.181,22.494z"/>
	</g>
	<path fill="#656D78" d="M32,61.502c-0.157,0-0.314-0.037-0.459-0.111l-31-16c-0.49-0.253-0.683-0.856-0.43-1.348
		c0.253-0.49,0.854-0.682,1.348-0.43L32,59.377l30.541-15.764c0.493-0.253,1.094-0.062,1.348,0.43
		c0.253,0.491,0.061,1.095-0.43,1.348l-31,16C32.314,61.465,32.157,61.502,32,61.502z"/>
	<path fill="#545C66" d="M32.459,61.391l31-16c0.49-0.253,0.683-0.856,0.43-1.348c-0.254-0.491-0.854-0.683-1.348-0.43L32,59.377
		v2.125C32.157,61.502,32.314,61.465,32.459,61.391z"/>
	<g>
		<path fill="#CCD1D9" d="M63,45.502c-0.553,0-1-0.447-1-1V19.498c0-0.552,0.447-1,1-1s1,0.448,1,1v25.004
			C64,45.055,63.553,45.502,63,45.502z"/>
	</g>
	<g>
		<path fill="#CCD1D9" d="M32,61.501c-0.553,0-1-0.447-1-1V35.498c0-0.553,0.447-1,1-1s1,0.447,1,1v25.003
			C33,61.054,32.553,61.501,32,61.501z"/>
	</g>
	<g>
		<path fill="#CCD1D9" d="M1,45.501c-0.553,0-1-0.447-1-1V19.498c0-0.552,0.447-1,1-1s1,0.448,1,1v25.003
			C2,45.054,1.553,45.501,1,45.501z"/>
	</g>
</g>
</svg>
